<svg width="44" height="36" fill="none" xmlns="http://www.w3.org/2000/svg"><path stroke="#F4F4F4" stroke-width="1.5" d="M.75.75h42.5V28.5H.75z"/><path stroke="#F4F4F4" d="M10.361 33.5h23.276v2H10.361zm4.735-.25l1.34-4.25h10.87l1.564 4.25H15.096zm3.611-23.5a2.5 2.5 0 0 1 2.5-2.5h1.586a2.5 2.5 0 0 1 2.5 2.5v2.5h-6.586v-2.5z"/><rect x="15.674" y="12.499" width="12.655" height="10.25" rx="2.5" stroke="#F4F4F4"/><mask id="path-6-inside-1" fill="#fff"><path fill-rule="evenodd" clip-rule="evenodd" d="M22.76 17.8a1.5 1.5 0 0 0 .757-1.3c0-.828-.68-1.5-1.517-1.5a1.51 1.51 0 0 0-1.518 1.5c0 .556.306 1.041.76 1.3v.941a.759.759 0 0 0 1.517 0V17.8z"/></mask><path d="M22.76 17.8l-.373-.652-.378.216v.435h.75zm-1.518 0h.75v-.435l-.378-.216-.372.651zm1.525-1.3a.746.746 0 0 1-.38.648l.745 1.302a2.246 2.246 0 0 0 1.135-1.95h-1.5zM22 15.75a.76.76 0 0 1 .767.75h1.5c0-1.25-1.023-2.25-2.267-2.25v1.5zm-.768.75a.76.76 0 0 1 .768-.75v-1.5a2.26 2.26 0 0 0-2.268 2.25h1.5zm.382.65a.747.747 0 0 1-.382-.65h-1.5c0 .84.463 1.566 1.138 1.952l.744-1.303zm.378 1.591v-.94h-1.5v.94h1.5zm.009.009h-.003l-.003-.003a.01.01 0 0 1-.002-.003v-.003h-1.5c0 .833.675 1.509 1.508 1.509v-1.5zm.008-.009v.003s0 .002-.002.003a.01.01 0 0 1-.003.003H22v1.5c.833 0 1.508-.676 1.508-1.509h-1.5zm0-.942v.942h1.5V17.8h-1.5z" fill="#F4F4F4" mask="url(#path-6-inside-1)"/></svg>