<svg width="36" height="36" fill="none" xmlns="http://www.w3.org/2000/svg"><circle cx="18" cy="18" r="17.25" stroke="#F4F4F4" stroke-width="1.5"/><path d="M9.99 7.337c-1.023.781-1.225 1.722-2.11 2.71-.8.895-1.808.91-2.165 2.136-.396 1.362.184 2.35.879 3.53l.002.004c.824 1.401 3.096 2.406 3.096 2.406s1.24.033 1.955.38c1.018.494 1.019 2.134 2.12 2.18.635.027 1.037-1.088 1.537-.63.54.492-.128 1.264-.389 2.009-.315.902-1.226 1.101-1.185 2.073.057 1.357 1.862.667 2.553 1.754.919 1.446-.52 3.143.38 4.607 1.775 2.895 4.492-2.169 6.781-4.532.611-.63 1.67-.783 1.488-1.71-.122-.62-.522-.868-1.03-1.09-.47-.206-.83.234-1.285-.014-.768-.419-.276-1.574-.77-2.382-.345-.564-.607-.832-1.089-1.234-1.848-1.543-3.828 1.223-5.815-.061-1.302-.841-2.949-1.564-2.598-3.264.124-.6.227-1.063.688-1.36.782-.502 1.07 1.192 1.944 1.387 2.11.472 1.694-4.114 3.785-4.707.93-.264 1.546.4 2.448.026.303-.126.74-.424.74-.424s.452.503.79.44c.544-.102-.676-.74-.78-1.375-.105-.634.008-.863.008-.863l-2.505-.386s.185.805-.013 1.223c-.312.655-.992.653-1.596.415-.561-.222-.93-.62-1.027-1.306-.123-.86.387-1.488 1.06-1.859.564-.31 1.416-.683 1.592.017 0 0-.055.358-.006.575.175.787 1.79.833 1.775.019-.01-.556-.459-.7-.847-1.016-.818-.669-1.576-1.042-2.503-.602-.489.232-.608.661-1.052.996-2.256 1.703-4.607-1.789-6.855-.072zm19.927 6.657c-.722-2.81-3.93-6.487-2.109-7.065.21-.067.335-.11.556-.074.96.158 1.059 1.893 1.38 3.315.177.788-.1 1.422.271 2.063.241.416.509.38.8.71 1.578 1.783 1.448 4.866 1.321 7.17-.126 2.302-.834.109-.834.109s-.768-3.826-1.385-6.228z" stroke="#F4F4F4"/></svg>