<svg width="40" height="38" fill="none" xmlns="http://www.w3.org/2000/svg"><path d="M19.467 27.333l-.404-.295-.233.319.256.3.38-.324zm6.887-7.23c0 3.706-3.073 6.73-6.887 6.73v1c4.346 0 7.887-3.451 7.887-7.73h-1zm-6.483 7.525l.724-.993-.808-.59-.724.993.808.59zm-.785.03l.724.85.762-.648-.724-.851-.762.648zm7.651-9.025l-.292.405.316.228.298-.251-.322-.382zm-7.27-6.847c3.734 0 6.77 3.06 6.77 6.847h1c0-4.33-3.474-7.847-7.77-7.847v1zm7.563 6.441l-.998-.72-.585.81.998.721.585-.81zm.03.788l.855-.72-.644-.765-.856.72.644.765z" fill="#F4F4F4"/><path d="M19.467 11.402l.404.295.233-.319-.256-.3-.38.324zm-6.887 7.23c0-3.707 3.073-6.73 6.887-6.73v-1c-4.346 0-7.887 3.451-7.887 7.73h1zm6.483-7.525l-.724.993.808.59.724-.993-.808-.59zm.785-.03l-.724-.85-.762.648.725.851.76-.648zm-7.651 9.025l.293-.405-.316-.229-.299.252.322.382zm7.27 6.847c-3.734 0-6.77-3.06-6.77-6.847h-1c0 4.329 3.474 7.847 7.77 7.847v-1zm-7.562-6.442l.997.72.586-.81-.998-.72-.585.81zm-.03-.787l-.855.72.644.765.855-.72-.644-.765zm-9.009 1.851l.57-.821-.616-.428-.583.472.63.777zM18.73 36c-8.236 0-14.864-6.486-14.864-14.43h-2C1.866 30.671 9.442 38 18.73 38v-2zM2.296 22.392l2.177 1.513 1.141-1.642-2.177-1.513-1.141 1.642zm-.06-1.598L.37 22.307l1.26 1.554 1.866-1.513-1.26-1.554zm34.572-3.631l-.588.809.636.463.6-.51-.648-.762zM20.945 2c8.191 0 14.863 6.771 14.863 15.163h2C37.808 7.702 30.276 0 20.945 0v2zm16.452 14.355l-2.178-1.585-1.177 1.617 2.178 1.585 1.177-1.617zm.059 1.57l1.866-1.584-1.295-1.525-1.866 1.585 1.294 1.524z" fill="#F4F4F4"/></svg>