<svg width="54" height="37" fill="none" xmlns="http://www.w3.org/2000/svg"><path d="M2 10.286l7.173 3.42s1.272-4.235 6.712-4.235c5.44 0 6.917 4.235 6.917 4.235l7.172-3.42L15.885 1 2 10.286z" stroke="#F4F4F4"/><path d="M22.225 22.47h3.88V36H5.87V22.47h4.236l5.427 7.045.816 1.06.786-1.083 5.09-7.021z" stroke="#F4F4F4" stroke-width="2"/><path d="M23.018 15.484c0 3.366-3.09 6.193-7.031 6.193-3.94 0-7.032-2.827-7.032-6.193 0-1.657.883-3.116 2.23-4.176 1.35-1.063 3.124-1.69 4.802-1.69 1.677 0 3.452.627 4.801 1.69 1.347 1.06 2.23 2.519 2.23 4.176z" stroke="#F4F4F4"/><path d="M21.803 10.855a8.781 8.781 0 0 0-.664-.544 8.215 8.215 0 0 0-5.055-1.64c-2.226.03-3.96.857-5.134 1.671a9.805 9.805 0 0 0-.789.61l.21-2.196a9.278 9.278 0 0 1 1.48-1.093c1.034-.616 2.496-1.222 4.24-1.222 1.74 0 3.148.605 4.126 1.216a8.21 8.21 0 0 1 1.385 1.088l.201 2.11zm8.172 3.015l5.38 2.66s1.332-3.295 5.657-3.295c4.324 0 5.819 3.294 5.819 3.294l5.38-2.66-11.2-7.222-11.036 7.223z" stroke="#F4F4F4"/><path d="M46.098 23.632h3.211v11.206H32.877V23.632h3.497l4.393 5.787.616.81.592-.828 4.123-5.769z" stroke="#F4F4F4" stroke-width="1.5"/><path d="M46.69 18.162c0 2.668-2.45 4.926-5.597 4.926-3.147 0-5.597-2.259-5.597-4.926 0-1.308.696-2.465 1.77-3.312 1.076-.849 2.492-1.35 3.827-1.35 1.336 0 2.751.501 3.828 1.35 1.073.847 1.77 2.004 1.77 3.312z" stroke="#F4F4F4"/><path d="M45.976 14.3a9.386 9.386 0 0 0-.412-.311c-1.05-.749-2.587-1.512-4.478-1.489-1.884.023-3.415.782-4.463 1.518a9.6 9.6 0 0 0-.423.315l.264-1.176a7.739 7.739 0 0 1 1.21-.833c.855-.474 2.063-.942 3.504-.942a6.75 6.75 0 0 1 3.408.937 6.833 6.833 0 0 1 1.132.827l.258 1.155zm-9.617-1.049s0 0 0 0h0z" stroke="#F4F4F4"/></svg>