<svg width="54" height="36" fill="none" xmlns="http://www.w3.org/2000/svg"><path stroke="#F4F4F4" stroke-width="2" d="M12.078 1h29.846v33.438H12.078z"/><path stroke="#F4F4F4" d="M.5 15.092h11.461v19.846H.5zm41.539 0H53.5v19.846H42.039z"/><path d="M22.87 7.438c.147 0 .267.046.36.14.093.086.14.2.14.34v6.03a.511.511 0 0 1-.15.35.487.487 0 0 1-.36.14.475.475 0 0 1-.49-.49v-2.59h-3.55v2.59a.46.46 0 0 1-.15.35.497.497 0 0 1-.35.14.487.487 0 0 1-.36-.14.494.494 0 0 1-.13-.35v-6.03c0-.134.047-.247.14-.34a.487.487 0 0 1 .36-.14.46.46 0 0 1 .34.14c.1.093.15.206.15.34v2.52h3.55v-2.52c0-.134.05-.247.15-.34.1-.094.217-.14.35-.14zm6.688 0a.46.46 0 0 1 .34.13c.093.08.14.19.14.33s-.047.25-.14.33c-.087.08-.2.12-.34.12h-1.78v5.61a.45.45 0 0 1-.15.34.487.487 0 0 1-.36.14.522.522 0 0 1-.37-.14.463.463 0 0 1-.14-.34v-5.61h-1.77a.519.519 0 0 1-.35-.12.46.46 0 0 1-.13-.34c0-.134.043-.24.13-.32a.495.495 0 0 1 .35-.13h4.57zm4.431 0c.354 0 .68.096.98.29.3.186.537.443.71.77.18.326.27.686.27 1.08 0 .393-.09.756-.27 1.09-.173.333-.41.596-.71.79-.3.193-.626.29-.98.29h-1.88v2.21a.482.482 0 0 1-.13.34.431.431 0 0 1-.33.14.46.46 0 0 1-.34-.13.519.519 0 0 1-.12-.35v-6.04c0-.134.047-.247.14-.34a.463.463 0 0 1 .34-.14h2.32zm0 3.4c.18 0 .347-.057.5-.17.154-.12.274-.277.36-.47a1.4 1.4 0 0 0 .14-.62c0-.34-.1-.627-.3-.86-.193-.24-.426-.36-.7-.36h-1.88v2.48h1.88z" fill="#F4F4F4"/><path stroke="#F4F4F4" stroke-width=".75" d="M23.221 22.61h7.558v12.452h-7.558z"/></svg>