<svg width="46" height="46" fill="none" xmlns="http://www.w3.org/2000/svg"><path d="M10.357 13.944l-.282-.247.282.247zm2.347-3.083l-.231-.296.23.296zm6.684-1.521l.23.297-.23-.297zm1.668-1.137l.164.337-.164-.337zm3.623 0l-.24.288.24-.288zm1.346 1.137l-.375.007.375-.007zm-2.188 1.137l.068.37-.068-.37zm-2.389 0l-.183-.326.183.326zm-1.142 2.593l.372-.052-.372.052zm1.142 1.485l.141-.348-.14.348zm1.776-.472l.34.158-.34-.158zm2.801-.952l-.357.116.357-.116zm2.26 2.465l.071.368-.07-.368zm-3.103.062l-.086-.365.086.365zm-2.457 1.075l-.105-.36.105.36zm-4.475 4.25l.083-.365-.083.366zm-2.163-1.577l.206.313-.206-.313zm-.765 1.546l-.367-.074.367.074zm2.89 3.713l-.207.313.206-.313zm6.467.07l.243-.286-.243.285zm1.21 1.403l.323-.192-.322.192zm.858 2.71l.182-.328-.182.327zm1.43.015l.152-.343-.153.343zm1.144 1.24l.368-.072-.368.071zm-1.654 1.945l-.273-.258.273.258zm-7.544 5.155l-.321.193.322-.193zm-.422-5.24l.319-.199-.319.198zm-2.838-1.995l-.375.016.375-.016zm1.318-2.358l.355.121-.355-.121zm.432-2.286l.256-.274-.256.274zm-1.71.717l.016-.374-.016.374zm-2.357-2.48l.167-.335-.167.336zm-2.174-.432l-.155.342.07.031.075.002.01-.375zm-3.444-2.737l.325-.187-.325.187zm-.002-.004l-.326.187.326-.187zm-.977-4.015l.36.102-.36-.102zm27.322-5.085l.116.357-.116-.356zm1.66 7.59l-.365.091.364-.091zm0 5.625l-.163.338.162-.338zm2.582 0l-.374-.02.374.02zM38.4 17.374l.284-.245-.284.245zm-.49-1.002l-.326.185.326-.185zm0-2.506l-.366.08.366-.08zm-2.094-2.65l-.062.369.062-.37zM10.64 14.19c.518-.592.841-1.178 1.152-1.68.314-.506.627-.951 1.144-1.355l-.462-.591c-.622.485-.99 1.02-1.32 1.552-.332.536-.613 1.048-1.079 1.58l.565.494zm2.296-3.035c.575-.45 1.089-.64 1.572-.714.494-.075.97-.028 1.498.025.516.053 1.084.112 1.686.024.614-.09 1.249-.332 1.926-.854l-.458-.594c-.578.446-1.093.634-1.577.706-.496.073-.973.026-1.501-.028-.517-.052-1.085-.111-1.687-.02-.613.092-1.246.337-1.921.864l.462.591zm6.682-1.52c.506-.39 1.102-.853 1.603-1.096l-.327-.675c-.587.285-1.252.806-1.734 1.178l.458.594zM21.22 8.54a4.614 4.614 0 0 1 1.711-.435c.617-.03 1.154.09 1.507.386l.481-.576c-.557-.465-1.315-.594-2.024-.56a5.363 5.363 0 0 0-2.002.51l.327.675zm3.218-.05c.143.12.313.213.462.288.162.083.293.143.424.217.267.152.324.253.326.352l.75-.014c-.01-.533-.41-.821-.705-.99-.15-.085-.326-.168-.455-.233a1.76 1.76 0 0 1-.32-.195l-.482.576zm1.212.857c.003.16-.036.242-.077.292-.048.059-.136.12-.3.179a3.967 3.967 0 0 1-.636.147c-.248.042-.561.087-.868.144l.136.737c.307-.056.577-.094.857-.142a4.62 4.62 0 0 0 .762-.18c.23-.081.46-.204.63-.41.175-.214.252-.48.246-.781l-.75.014zm-1.881.762c-.117.021-.27.02-.465-.001-.2-.021-.396-.055-.63-.087a4.157 4.157 0 0 0-.696-.05 1.539 1.539 0 0 0-.713.18l.367.653a.81.81 0 0 1 .371-.083c.167-.006.356.013.568.043.2.027.44.067.655.09.217.023.455.034.679-.008l-.136-.737zm-2.504.042c-.467.262-.832.741-1.062 1.262-.232.525-.347 1.138-.268 1.708l.743-.103c-.057-.408.025-.88.21-1.302.188-.425.462-.752.744-.912l-.367-.653zm-1.33 2.97c.062.446.214.82.457 1.123.242.303.558.514.916.658l.281-.695a1.456 1.456 0 0 1-.612-.431c-.145-.182-.253-.424-.3-.758l-.742.103zm1.373 1.781c.373.151.806.243 1.218.167.435-.08.813-.344 1.038-.828l-.68-.316c-.122.261-.296.37-.494.406-.221.041-.502-.003-.801-.124l-.281.695zm2.256-.661c.052-.113.199-.293.434-.492.228-.192.505-.374.778-.501.282-.131.518-.185.675-.171a.263.263 0 0 1 .139.043c.022.017.054.05.078.127l.714-.232a.984.984 0 0 0-.343-.495 1.006 1.006 0 0 0-.524-.19c-.348-.03-.725.084-1.055.238a4.363 4.363 0 0 0-.946.608c-.265.224-.51.489-.63.749l.68.316zm2.104-.994c.075.23.259.37.45.441a1.4 1.4 0 0 0 .633.06c.456-.05 1.022-.266 1.637-.686l-.423-.62c-.544.373-.995.528-1.295.56a.673.673 0 0 1-.291-.017c-.043-.016-.013-.018.003.03l-.714.232zm2.72-.185c.105-.072.118-.043.073-.053-.055-.011-.055-.047-.028.007.064.127.105.41.085.798-.02.369-.09.762-.188 1.061-.05.151-.1.262-.144.33-.055.087-.055.039.029.023l.141.736c.235-.045.382-.229.462-.354.091-.143.166-.32.225-.503.12-.368.201-.827.224-1.254.021-.407-.006-.862-.165-1.176-.085-.167-.236-.348-.486-.401-.24-.051-.467.04-.651.167l.423.619zm-.173 2.166a2.323 2.323 0 0 1-.385-.005c-.204-.012-.486-.034-.776-.048-.587-.028-1.313-.034-1.958.118l.172.73c.536-.126 1.174-.127 1.75-.099.29.015.54.034.768.048.202.011.42.021.57-.008l-.141-.736zm-3.12.065c-.562.133-.957.35-1.319.554-.36.202-.686.39-1.156.526l.21.72c.564-.163.959-.393 1.314-.593.353-.198.67-.37 1.124-.477l-.172-.73zm-2.475 1.08c-.688.2-1.174.652-1.548 1.163-.368.502-.651 1.099-.91 1.606-.272.53-.513.954-.804 1.223-.263.241-.565.358-1.025.253l-.167.731c.714.163 1.266-.033 1.7-.433.404-.372.7-.917.963-1.433.276-.538.526-1.063.848-1.504.317-.433.678-.748 1.152-.885l-.209-.72zm-4.287 4.245c-.131-.03-.27-.125-.428-.304-.163-.183-.3-.397-.469-.634-.15-.212-.342-.47-.583-.619a.857.857 0 0 0-.47-.136.94.94 0 0 0-.502.167l.412.627c.064-.041.095-.044.103-.044.007 0 .025.001.062.024.094.058.206.189.366.415.143.201.321.475.52.698.201.227.468.456.822.537l.167-.731zm-2.452-1.526c-.663.436-.794 1.131-.926 1.786l.735.148c.143-.71.24-1.069.603-1.307l-.412-.627zm-.926 1.786c-.111.548-.066 1.035.1 1.47.165.43.441.789.763 1.097.623.599 1.504 1.082 2.187 1.533l.413-.626c-.765-.506-1.523-.912-2.08-1.448-.27-.258-.469-.527-.583-.825-.112-.293-.15-.634-.065-1.053l-.735-.148zm3.05 4.1c1.286.85 2.58.335 3.623-.036 1.107-.392 1.962-.644 2.807.078l.487-.57c-1.21-1.034-2.484-.59-3.544-.214-1.124.398-2.036.726-2.96.116l-.413.626zm6.43.042c.513.437.775.712 1.133 1.31l.644-.384c-.41-.684-.731-1.02-1.29-1.497l-.487.57zm1.133 1.31c.217.364.22.805.262 1.358.038.489.115 1.142.734 1.487l.365-.655c-.235-.131-.311-.373-.351-.89-.035-.453-.034-1.129-.366-1.684l-.644.385zm.996 2.845c.397.221.76.12.987.06.248-.065.35-.085.472-.03l.306-.684c-.4-.18-.76-.066-.97-.01-.231.061-.32.07-.43.009l-.365.655zm1.46.03c.273.123.476.235.626.379.14.134.249.31.303.59l.736-.143a1.788 1.788 0 0 0-.52-.989c-.247-.237-.549-.392-.84-.522l-.306.685zm.929.968c.036.19.008.31-.041.403-.055.104-.153.207-.312.326-.165.124-.343.228-.566.375-.21.138-.44.302-.64.513l.545.516a2.84 2.84 0 0 1 .508-.403c.182-.12.414-.26.602-.4.196-.147.396-.33.527-.578.136-.258.178-.555.113-.894l-.736.142zm-1.559 1.617c-.652.688-1.33 1.57-1.999 2.43-.675.87-1.34 1.723-1.984 2.387-.656.679-1.229 1.095-1.706 1.19a.867.867 0 0 1-.614-.088c-.2-.11-.42-.323-.646-.699l-.643.386c.268.447.575.775.927.97.361.198.742.242 1.121.166.724-.143 1.436-.717 2.1-1.403.678-.7 1.368-1.586 2.038-2.449.676-.871 1.33-1.718 1.95-2.374l-.544-.516zm-6.949 5.22c-.418-.696-.305-1.453-.154-2.374.143-.873.326-1.911-.271-2.872l-.637.396c.425.685.32 1.434.168 2.354-.143.872-.33 1.913.251 2.882l.643-.386zm-.425-5.246c-.482-.776-1.367-.912-1.911-1.047-.306-.077-.514-.147-.654-.256-.112-.087-.206-.22-.218-.508l-.75.03c.02.483.202.832.508 1.07.279.217.632.316.932.391.667.167 1.17.256 1.456.716l.637-.396zm-2.783-1.811c-.016-.405.145-.644.414-.943.265-.293.678-.675.885-1.279l-.71-.243c-.144.422-.413.667-.732 1.02-.313.347-.635.774-.606 1.476l.75-.031zm1.299-2.222c.064-.188.155-.383.257-.595.098-.203.208-.428.289-.646a1.78 1.78 0 0 0 .132-.714 1.054 1.054 0 0 0-.345-.726l-.512.547c.077.072.103.14.108.223.006.099-.02.23-.086.409-.066.177-.158.366-.262.583-.1.208-.21.44-.291.676l.71.243zm.333-2.681a.818.818 0 0 0-.377-.21.73.73 0 0 0-.404.026c-.216.074-.4.238-.528.357-.151.14-.263.252-.387.34-.118.084-.196.106-.254.104l-.032.75c.296.012.539-.114.72-.243.176-.124.343-.29.461-.4.141-.13.218-.183.265-.199.012-.004.006 0-.007-.003-.012-.003-.002-.005.03.026l.513-.548zm-1.95.617c-.376-.016-.592-.287-.9-.853-.139-.257-.298-.573-.492-.85-.199-.284-.455-.56-.814-.738l-.333.672c.206.102.374.27.532.496.163.232.293.49.448.778.283.52.68 1.208 1.527 1.244l.032-.75zm-2.206-2.441c-.456-.226-1.05-.34-1.503-.4a9.457 9.457 0 0 0-.809-.071h-.018l-.011.374-.01.375h.012a4.545 4.545 0 0 1 .2.011c.136.01.325.026.538.054.436.058.928.16 1.268.329l.333-.672zm-2.341-.097l.155-.341h-.001l-.005-.003-.019-.009a10.097 10.097 0 0 1-.365-.182 11.977 11.977 0 0 1-.939-.55c-.735-.477-1.533-1.122-1.945-1.839l-.65.374c.504.877 1.428 1.601 2.186 2.094a12.718 12.718 0 0 0 1.396.783l.023.01a.2.2 0 0 0 .007.004h.002l.155-.34zm-3.119-2.924l-.002-.004-.65.374.002.004.65-.374zm-.002-.004c-.782-1.36-1.333-2.348-.942-3.726l-.721-.205c-.49 1.721.25 2.979 1.012 4.305l.65-.374zm-.942-3.726c.166-.584.472-.872.872-1.15.397-.274.973-.579 1.458-1.134l-.564-.494c-.404.463-.834.675-1.32 1.012-.482.333-.936.75-1.167 1.561l.721.205zm26.846-5.543c-.308.1-.54.29-.684.556-.137.255-.177.55-.168.847.019.586.236 1.303.512 2.041.277.744.636 1.566.96 2.352.327.797.622 1.566.791 2.241l.728-.183c-.184-.732-.497-1.544-.826-2.343-.333-.81-.679-1.6-.95-2.33-.275-.734-.45-1.35-.465-1.802-.007-.222.026-.371.078-.467a.408.408 0 0 1 .256-.199l-.232-.713zm1.411 8.037c.27 1.074-.16 2.12-.495 3.16-.157.487-.303 1.008-.248 1.483.028.248.111.488.274.705.161.215.386.388.67.524l.325-.676a1.039 1.039 0 0 1-.395-.298.674.674 0 0 1-.13-.34c-.033-.293.056-.668.218-1.169.302-.937.844-2.237.509-3.572l-.728.183zm.202 5.872c.19.091.424.264.712.475.269.196.583.423.883.559.286.13.706.24 1.058-.044.163-.131.27-.318.34-.53.07-.21.11-.47.127-.778l-.749-.04a2.31 2.31 0 0 1-.09.583c-.043.127-.084.17-.099.18 0 .002-.048.05-.278-.054-.216-.098-.467-.276-.75-.482-.261-.191-.562-.416-.83-.545l-.324.676zm3.12-.318c.061-1.138.172-2.507.069-3.81-.103-1.302-.424-2.602-1.273-3.584l-.568.49c.697.806.995 1.916 1.093 3.154.098 1.238-.007 2.54-.07 3.71l.749.04zm-1.204-7.394a1 1 0 0 1-.195-.352c-.052-.14-.115-.347-.253-.59l-.652.37c.098.174.137.304.2.477.064.178.147.371.332.586l.568-.49zm-.448-.942a.778.778 0 0 1-.08-.373c-.003-.17.02-.361.054-.584.061-.409.172-.964.066-1.445l-.732.162c.068.309-.003.686-.076 1.172a4.369 4.369 0 0 0-.062.708c.004.239.045.495.178.73l.652-.37zm.04-2.402c-.167-.76-.477-1.437-.884-1.952-.404-.513-.924-.889-1.513-.988l-.125.74c.351.059.72.296 1.05.712.326.414.593.984.74 1.65l.732-.162zm-2.397-2.94c-.317-.053-.518.02-.724.087l.232.713c.207-.067.25-.08.367-.06l.125-.74z" fill="#F4F4F4"/><circle cx="23" cy="23" r="22" stroke="#E2E2E2" stroke-width="2"/></svg>