<svg width="46" height="46" fill="none" xmlns="http://www.w3.org/2000/svg"><path fill-rule="evenodd" clip-rule="evenodd" d="M23.693 26.118v1.204a.97.97 0 1 1-1.939 0v-1.203a1.912 1.912 0 0 1-.97-1.66c0-1.06.867-1.917 1.938-1.917 1.07 0 1.939.858 1.939 1.916 0 .71-.39 1.328-.968 1.66zm-.959-.556l.482-.276a.954.954 0 0 0 .486-.828.97.97 0 0 0-.98-.958.97.97 0 0 0-.98.958c0 .349.19.66.487.83l.483.275v1.763l.004.003a.018.018 0 0 0 .003.003h.008l.004-.003.002-.002v-.002l.001-.001v-1.762z" fill="#F4F4F4"/><path fill-rule="evenodd" clip-rule="evenodd" d="M17.876 15.833A3.833 3.833 0 0 1 21.709 12h2.027a3.833 3.833 0 0 1 3.833 3.833v2.875h.046a3.833 3.833 0 0 1 3.833 3.833v6.708a3.833 3.833 0 0 1-3.833 3.834h-9.782A3.833 3.833 0 0 1 14 29.249v-6.708a3.833 3.833 0 0 1 3.833-3.833h.043v-2.875zm3.833-2.555h2.027a2.556 2.556 0 0 1 2.555 2.555v2.556h-7.137v-2.556a2.556 2.556 0 0 1 2.555-2.555zm-3.876 6.707h9.782a2.556 2.556 0 0 1 2.556 2.556v6.708a2.556 2.556 0 0 1-2.556 2.556h-9.782a2.556 2.556 0 0 1-2.555-2.556v-6.708a2.555 2.555 0 0 1 2.555-2.556z" fill="#F4F4F4"/><circle cx="23" cy="23" r="22" stroke="#E2E2E2" stroke-width="2"/></svg>