<svg width="46" height="46" fill="none" xmlns="http://www.w3.org/2000/svg"><path fill-rule="evenodd" clip-rule="evenodd" d="M44 23c0 11.598-9.402 21-21 21S2 34.598 2 23 11.402 2 23 2s21 9.402 21 21zm2 0c0 12.703-10.297 23-23 23S0 35.703 0 23 10.297 0 23 0s23 10.297 23 23zm-28.536-5c.217 0 .395.068.533.204a.642.642 0 0 1 .207.497v8.806a.727.727 0 0 1-.755.716.741.741 0 0 1-.518-.205.689.689 0 0 1-.208-.511v-3.783h-5.257v3.783a.666.666 0 0 1-.222.51.741.741 0 0 1-.518.205.727.727 0 0 1-.534-.204.717.717 0 0 1-.192-.511V18.7c0-.195.07-.36.207-.497a.727.727 0 0 1 .534-.204.69.69 0 0 1 .503.204.65.65 0 0 1 .222.497v3.68h5.257V18.7a.65.65 0 0 1 .223-.497.741.741 0 0 1 .518-.204zm9.904 0c.207 0 .375.063.503.19a.598.598 0 0 1 .207.482.599.599 0 0 1-.207.482.72.72 0 0 1-.503.175H24.73v8.192a.65.65 0 0 1-.222.497.727.727 0 0 1-.533.204.779.779 0 0 1-.548-.204.671.671 0 0 1-.207-.497V19.33H20.6a.775.775 0 0 1-.519-.175.666.666 0 0 1-.192-.497c0-.195.064-.35.192-.467A.739.739 0 0 1 20.6 18h6.767zm6.563 0c.523 0 1.007.141 1.451.424.444.272.795.647 1.052 1.124.266.477.4 1.003.4 1.577a3.26 3.26 0 0 1-.4 1.592 2.99 2.99 0 0 1-1.052 1.154 2.654 2.654 0 0 1-1.451.423h-2.784v3.227c0 .195-.065.36-.193.497a.642.642 0 0 1-.489.204.686.686 0 0 1-.503-.19.751.751 0 0 1-.178-.51V18.7c0-.195.07-.36.207-.497a.69.69 0 0 1 .504-.204h3.436zm0 4.965c.266 0 .513-.083.74-.248.227-.175.405-.404.533-.686.139-.283.208-.585.208-.906 0-.496-.148-.915-.445-1.256-.286-.35-.631-.526-1.036-.526h-2.784v3.622h2.784z" fill="#F4F4F4"/></svg>