<svg width="46" height="46" fill="none" xmlns="http://www.w3.org/2000/svg"><path fill-rule="evenodd" clip-rule="evenodd" d="M13 16.817L23.15 10l10.294 6.815-5.226 2.651c.092.323.142.66.142 1.012 0 2.593-2.302 4.695-5.14 4.695-2.838 0-5.14-2.102-5.14-4.695 0-.351.05-.69.142-1.011L13 16.817zm5.2 1.673a5.277 5.277 0 0 1 .264-.412l.472-2.16s1.742-1.738 4.356-1.738c2.613 0 4.21 1.739 4.21 1.739l.486 2.223a5.544 5.544 0 0 1 .24.355l3.51-1.782-8.585-5.683-8.457 5.68 3.503 1.778zm9.317 1.988c0 2.023-1.83 3.83-4.297 3.83-2.468 0-4.296-1.807-4.296-3.83 0-.967.5-1.853 1.33-2.526.836-.676 1.938-1.075 2.966-1.075 1.028 0 2.13.399 2.966 1.075.83.673 1.33 1.559 1.33 2.526zm-1.93-4.882a5.106 5.106 0 0 0-2.295-.551 5.43 5.43 0 0 0-2.29.523 6.48 6.48 0 0 1 2.207-.421 6.202 6.202 0 0 1 2.378.45z" fill="#F4F4F4"/><path fill-rule="evenodd" clip-rule="evenodd" d="M23.45 29.825l-3.894-5.262h-3.894v10.993h15.116V24.563h-3.664l-3.665 5.262zm6.064-3.965h-1.75l-4.284 6.153-4.552-6.153h-2.002v8.398h12.588V25.86z" fill="#F4F4F4"/><circle cx="23" cy="23" r="22" stroke="#E2E2E2" stroke-width="2"/></svg>