<svg width="22" height="21" fill="none" xmlns="http://www.w3.org/2000/svg"><path d="M14.874 1.65c1.047-.955 3.64-.576 3.64-.576l-2.115 2.03 2.25 2.145 2.114-2.03s.334 2.378-.666 3.411c-.82.848-3.409.5-3.409.5L14.21 4.769s-.218-2.315.664-3.118zM1.67 14.323c-.993 1.005-.588 3.484-.588 3.484l2.114-2.03 2.25 2.145-2.115 2.03s2.487.311 3.564-.649c.883-.787.511-3.263.511-3.263l-2.478-2.363s-2.42-.2-3.257.646z" fill="#000"/><path d="M7.492 16.122l9.282-8.91-2.499-2.381-9.281 8.91 2.498 2.381z" fill="#000"/><path d="M18.513 1.074l.346.361.738-.708L18.586.58l-.073.494zm-3.64.576l.338.37-.337-.37zm-.663 3.118l-.498.046.017.187.136.129.345-.362zm2.478 2.363l-.345.362.117.112.161.021.067-.495zm3.41-.5l.359.347-.36-.348zm.665-3.412l.495-.07-.136-.968-.705.677.346.361zm-2.114 2.03l-.346.362.347.33.345-.332-.346-.36zm-2.25-2.145l-.346-.36-.377.361.378.36.345-.361zM1.082 17.807l-.494.08.154.94.686-.66-.346-.36zm.589-3.484l-.356-.352.356.352zm3.257-.646l.345-.362-.128-.122-.176-.014-.041.498zm2.478 2.363l.495-.074-.026-.17-.124-.118-.345.362zm-.511 3.264l.332.373-.332-.373zm-3.564.648l-.346-.361-.757.726 1.041.13.062-.495zm2.115-2.03l.346.36.377-.361-.378-.36-.345.361zm-2.25-2.145l.345-.362-.346-.33-.345.331.346.361zm13.578-8.564l.346.36.377-.361-.378-.36-.345.36zm-9.282 8.91l-.345.361.346.33.346-.33-.347-.362zM14.275 4.83l.345-.362-.346-.33-.345.33.346.362zm-9.281 8.91l-.347-.361-.377.361.379.361.345-.362zm13.52-12.667l.071-.494h-.003l-.007-.002a3.25 3.25 0 0 0-.117-.015A9.73 9.73 0 0 0 17.07.504a6.226 6.226 0 0 0-1.31.168c-.432.11-.878.293-1.224.608l.674.74c.177-.163.447-.29.796-.378a5.237 5.237 0 0 1 1.095-.138 8.732 8.732 0 0 1 1.335.064l.004.001.072-.495zm-3.977.206c-.312.285-.5.674-.616 1.046a5.343 5.343 0 0 0-.208 1.143 8.596 8.596 0 0 0-.004 1.313l.002.022v.011l.498-.046.498-.047v-.003l-.001-.016a5.073 5.073 0 0 1-.017-.323 7.629 7.629 0 0 1 .02-.828c.027-.318.078-.643.166-.925.09-.288.207-.49.336-.607l-.674-.739zm-.673 3.85l2.479 2.363.69-.724-2.479-2.363-.69.724zm2.824 2l-.066.496h.003l.007.002a3.48 3.48 0 0 0 .115.013c.077.008.187.02.32.03.267.02.634.037 1.03.027a6.05 6.05 0 0 0 1.24-.146c.395-.096.818-.263 1.12-.574l-.719-.695c-.109.112-.316.22-.637.297-.31.075-.673.11-1.029.119a9.388 9.388 0 0 1-1.317-.064l-.067.496zm3.769-.152c.634-.656.805-1.672.847-2.412a8.205 8.205 0 0 0-.041-1.382l-.004-.024a.308.308 0 0 1 0-.01l-.496.07-.495.069v.003l.002.016.008.069a7.199 7.199 0 0 1 .028 1.132c-.04.707-.202 1.396-.568 1.774l.719.695zm-.04-4.12l-2.115 2.03.693.721 2.114-2.03-.692-.72zm-1.423 2.029l-2.25-2.145-.69.724 2.25 2.145.69-.724zm-2.249-1.422l2.114-2.03-.692-.721-2.114 2.03.692.72zM1.082 17.807l.493-.08v-.004l-.003-.017a6.983 6.983 0 0 1-.04-.347 7.584 7.584 0 0 1-.029-.902c.01-.349.05-.711.139-1.034.089-.327.218-.58.384-.748l-.71-.704c-.331.335-.524.768-.64 1.189a5.55 5.55 0 0 0-.172 1.266 8.583 8.583 0 0 0 .084 1.458v.003l.494-.08zm.944-3.132c.124-.125.339-.24.646-.33.3-.087.645-.137.98-.164a8.786 8.786 0 0 1 1.214-.007l.017.001a.04.04 0 0 0 .003 0h.001l.04-.498.042-.498h-.01a1.334 1.334 0 0 0-.109-.008 9.756 9.756 0 0 0-1.276.014 5.99 5.99 0 0 0-1.18.2c-.382.111-.784.288-1.079.586l.711.704zm2.557-.636l2.478 2.363.69-.724-2.478-2.363-.69.724zm2.823 2.001l-.494.074v.004l.003.018.01.073c.007.064.018.158.027.273.02.232.038.547.03.882-.008.338-.042.68-.118.971-.078.3-.187.492-.302.595l.665.747c.327-.291.504-.703.604-1.09.103-.394.141-.819.15-1.198a9.158 9.158 0 0 0-.079-1.413v-.007l-.001-.002v-.001l-.495.074zm-.844 2.89c-.4.357-1.135.517-1.88.558a8.292 8.292 0 0 1-1.267-.03l-.018-.002h-.003l-.063.496-.062.496h.004l.007.001.024.003a6.043 6.043 0 0 0 .404.033 9.38 9.38 0 0 0 1.029.002c.767-.043 1.814-.207 2.49-.81l-.665-.747zm-2.884 1.382l2.114-2.03-.693-.72-2.114 2.029.693.721zM5.79 17.56l-2.25-2.145-.69.724 2.25 2.145.69-.724zm-2.94-2.143l-2.115 2.03.693.72 2.114-2.029-.692-.722zm13.578-8.565l-9.282 8.91.693.721 9.281-8.91-.692-.72zm.691-.001l-2.498-2.382-.69.724 2.498 2.382.69-.724zM13.93 4.47l-9.282 8.91.693.721 9.282-8.91-.693-.721zm-9.28 9.632l2.498 2.382.69-.723-2.498-2.383-.69.724z" fill="#F9F9F9"/></svg>