<svg width="31" height="32" fill="none" xmlns="http://www.w3.org/2000/svg"><path d="M29.229.938H1.993C1.158.938.479 1.615.479 2.45v27.236c0 .834.68 1.513 1.514 1.513h27.236c.834 0 1.513-.679 1.513-1.513V2.45c0-.835-.679-1.514-1.513-1.514zM1.489 2.45c0-.278.226-.505.504-.505h27.236c.278 0 .504.227.504.505v2.522H1.488V2.45zm28.244 27.236a.505.505 0 0 1-.504.504H1.993a.505.505 0 0 1-.505-.504V5.98h28.245v23.706z" fill="#F4F4F4"/><path d="M3.004 3.963a.504.504 0 1 0 0-1.009.504.504 0 0 0 0 1.009zm2.017 0a.504.504 0 1 0 0-1.009.504.504 0 0 0 0 1.009zm2.014 0a.504.504 0 1 0 0-1.009.504.504 0 0 0 0 1.009zm-1.92 18.451a.504.504 0 0 0 .821-.586L3.624 18.59l2.312-3.237a.504.504 0 1 0-.82-.586l-2.523 3.53a.505.505 0 0 0 0 .587l2.522 3.53zm20.293.118a.504.504 0 0 0 .704-.118l2.522-3.53a.505.505 0 0 0 0-.587l-2.522-3.53a.504.504 0 1 0-.821.586l2.312 3.237-2.313 3.238a.504.504 0 0 0 .118.704zm-14.839-.411a3.52 3.52 0 0 0 2.354-.9.504.504 0 1 0-.673-.75 2.516 2.516 0 0 1-1.681.642 2.525 2.525 0 0 1-2.522-2.522 2.525 2.525 0 0 1 4.203-1.88.503.503 0 1 0 .672-.752 3.525 3.525 0 0 0-2.353-.899 3.534 3.534 0 0 0-3.53 3.53 3.534 3.534 0 0 0 3.53 3.531zm6.052-1.008a1.01 1.01 0 0 1-1.009-1.01.505.505 0 0 0-1.008 0 2.02 2.02 0 0 0 2.017 2.018 2.02 2.02 0 0 0 2.018-2.017 2.02 2.02 0 0 0-2.018-2.018 1.01 1.01 0 0 1 0-2.017 1.01 1.01 0 0 1 1.009 1.009.505.505 0 0 0 1.009 0 2.02 2.02 0 0 0-2.018-2.018 2.02 2.02 0 0 0-2.017 2.018 2.02 2.02 0 0 0 2.017 2.017 1.01 1.01 0 0 1 0 2.018zm5.549-.001a1.01 1.01 0 0 1-1.008-1.008.505.505 0 0 0-1.009 0 2.02 2.02 0 0 0 2.018 2.017 2.02 2.02 0 0 0 2.017-2.017 2.02 2.02 0 0 0-2.017-2.018 1.01 1.01 0 0 1 0-2.017 1.01 1.01 0 0 1 1.008 1.009.505.505 0 0 0 1.009 0 2.02 2.02 0 0 0-2.017-2.018 2.02 2.02 0 0 0-2.018 2.018 2.02 2.02 0 0 0 2.018 2.017 1.01 1.01 0 0 1 0 2.017z" fill="#F4F4F4"/></svg>