<svg width="31" height="31" fill="none" xmlns="http://www.w3.org/2000/svg"><path d="M29.237.091H2C1.166.091.487.771.487 1.604v27.237c0 .834.68 1.513 1.513 1.513h27.237c.834 0 1.513-.68 1.513-1.513V1.604c0-.834-.68-1.513-1.513-1.513zM1.497 1.604c0-.277.226-.504.503-.504h27.237c.278 0 .504.227.504.504v2.522H1.496V1.604zM29.74 28.841a.505.505 0 0 1-.504.504H2a.505.505 0 0 1-.504-.504V5.135h28.245v23.706z" fill="#F4F4F4"/><path d="M3.01 3.117a.504.504 0 1 0 0-1.009.504.504 0 0 0 0 1.01zm2.019 0a.504.504 0 1 0 0-1.009.504.504 0 0 0 0 1.01zm2.014 0a.504.504 0 1 0 0-1.009.504.504 0 0 0 0 1.01zM5.122 21.568a.504.504 0 0 0 .82-.586L3.63 17.744l2.313-3.237a.504.504 0 1 0-.821-.586L2.6 17.45a.505.505 0 0 0 0 .586l2.522 3.531zm20.288.118a.504.504 0 0 0 .704-.118l2.522-3.53a.505.505 0 0 0 0-.587l-2.521-3.53a.504.504 0 1 0-.822.586l2.313 3.237-2.313 3.238a.504.504 0 0 0 .118.704zm-18.367-1.42a.505.505 0 0 0 .505-.504v-1.513h2.017v1.513a.505.505 0 0 0 1.009 0v-4.035a.505.505 0 0 0-1.009 0v1.513H7.548v-1.513a.505.505 0 0 0-1.009 0v4.035c0 .278.226.504.504.504zm5.045-4.035h1.009v3.53a.505.505 0 0 0 1.009 0v-3.53h1.008a.505.505 0 0 0 0-1.009h-3.026a.505.505 0 0 0 0 1.01zm5.044 4.035a.504.504 0 0 0 .504-.504V17.24l.605.807c.19.254.617.254.807 0l.606-.807v2.522a.505.505 0 0 0 1.008 0v-4.035a.504.504 0 0 0-.908-.303l-1.11 1.48-1.109-1.48a.505.505 0 0 0-.908.303v4.035c0 .278.226.504.505.504zm5.042 0h2.018a.505.505 0 0 0 0-1.009h-1.514v-3.53a.505.505 0 0 0-1.008 0v4.035c0 .278.226.504.504.504z" fill="#F4F4F4"/></svg>