<svg width="37" height="34" fill="none" xmlns="http://www.w3.org/2000/svg"><path d="M31.544 13.657a.75.75 0 0 0 .75-.749V3.92A3.75 3.75 0 0 0 28.547.175H4.58A3.75 3.75 0 0 0 .834 3.92v25.467a3.75 3.75 0 0 0 3.745 3.745h23.97a3.75 3.75 0 0 0 3.744-3.745v-4.494a.75.75 0 0 0-1.498 0v4.494a2.25 2.25 0 0 1-2.247 2.247H4.58a2.25 2.25 0 0 1-2.247-2.247V7.665h28.463v5.243c0 .414.336.75.75.75zM2.332 6.167V3.92a2.25 2.25 0 0 1 2.247-2.247h23.97a2.25 2.25 0 0 1 2.246 2.247v2.247H2.332z" fill="#F4F4F4"/><path d="M4.58 4.57a.75.75 0 1 0 0-1.498.75.75 0 0 0 0 1.498zm2.995 0a.75.75 0 1 0 0-1.498.75.75 0 0 0 0 1.498zm2.996 0a.749.749 0 1 0 0-1.498.749.749 0 0 0 0 1.498zM36.7 21.453c-.142-.306-1.429-3.786-2.206-5.907a.748.748 0 0 0-.7-.491h-.003a.749.749 0 0 0-.701.485l-2.247 5.992a.75.75 0 0 0 1.402.528l.379-1.011h2.33c.516 1.273.723 1.514 1 1.514.065 0 .135-.012.214-.028l-.137-.77.67-.312zm-3.514-1.903l.596-1.592c.226.616.417 1.128.592 1.592h-1.188zm-8.47 1.903c-.14-.306-1.427-3.786-2.205-5.907a.748.748 0 0 0-.7-.491h-.003a.749.749 0 0 0-.7.485l-2.248 5.992a.75.75 0 0 0 1.402.528l.378-1.011h2.33c.516 1.273.723 1.514 1 1.514.065 0 .135-.012.214-.028l-.137-.77.67-.312zm-3.514-1.903l.596-1.592c.226.616.417 1.128.592 1.592h-1.188zm9.108-4.446a.75.75 0 0 0-.966.438l-1.546 4.122-1.546-4.123a.75.75 0 0 0-1.402.527l2.247 5.993a.75.75 0 0 0 1.404 0l2.247-5.992a.75.75 0 0 0-.438-.965zm-13.746-.048a.75.75 0 0 0-.75.75V20.3a.75.75 0 0 1-1.498 0 .75.75 0 0 0-1.498 0 2.25 2.25 0 0 0 2.247 2.247 2.25 2.25 0 0 0 2.248-2.247v-4.495a.75.75 0 0 0-.75-.749z" fill="#F4F4F4"/></svg>