<svg width="36" height="35" fill="none" xmlns="http://www.w3.org/2000/svg"><path d="M26.076 18.122a2.899 2.899 0 0 0 2.896 2.895c.958 0 1.737.78 1.737 1.738a1.74 1.74 0 0 1-1.737 1.737 1.74 1.74 0 0 1-1.737-1.737.579.579 0 1 0-1.159 0 2.899 2.899 0 0 0 2.896 2.895 2.899 2.899 0 0 0 2.895-2.895 2.899 2.899 0 0 0-2.895-2.896 1.74 1.74 0 0 1-1.737-1.737c0-.958.78-1.737 1.737-1.737.958 0 1.737.78 1.737 1.737a.579.579 0 1 0 1.159 0 2.899 2.899 0 0 0-2.896-2.896 2.899 2.899 0 0 0-2.896 2.896z" fill="#F4F4F4"/><path d="M34.767 12.91h-6.37V7.698l-.002-.018a.569.569 0 0 0-.01-.092v-.004a.575.575 0 0 0-.02-.074l-.005-.013a.554.554 0 0 0-.03-.07l-.001-.001a.555.555 0 0 0-.105-.14L21.28.341a.574.574 0 0 0-.062-.053l-.012-.01a.567.567 0 0 0-.065-.04l-.004-.002a.586.586 0 0 0-.068-.03l-.012-.005a.575.575 0 0 0-.167-.03l-.022-.002H1.178A.58.58 0 0 0 .6.75v33.587c0 .32.258.58.579.58h26.638c.32 0 .58-.26.58-.58v-6.37h6.37c.32 0 .578-.26.578-.579V13.489c0-.32-.258-.58-.578-.58zM21.447 2.146L26.42 7.12h-4.972V2.146zm5.791 31.611H1.758V1.327h18.531v6.37c0 .32.259.58.58.58h6.37v4.633H16.234a.58.58 0 0 0-.579.579v13.898c0 .32.259.58.58.58h11.002v5.79zm6.95-6.95H16.813v-12.74h17.373v12.74z" fill="#F4F4F4"/><path d="M23.18 15.226a.58.58 0 0 0-.579.58v6.949a1.16 1.16 0 0 1-2.316 0 .579.579 0 1 0-1.158 0 2.319 2.319 0 0 0 2.316 2.316 2.319 2.319 0 0 0 2.317-2.316v-6.95a.58.58 0 0 0-.58-.579z" fill="#F4F4F4"/></svg>