<svg width="36" height="36" fill="none" xmlns="http://www.w3.org/2000/svg"><path d="M15.469 18.31a1.74 1.74 0 0 0-1.738-1.738 1.74 1.74 0 0 0-1.737 1.737c0 .958.78 1.738 1.737 1.738a2.899 2.899 0 0 1 2.896 2.895 2.899 2.899 0 0 1-2.896 2.896 2.899 2.899 0 0 1-2.895-2.896.58.58 0 0 1 1.158 0c0 .958.78 1.738 1.737 1.738a1.74 1.74 0 0 0 1.738-1.738 1.74 1.74 0 0 0-1.738-1.737 2.899 2.899 0 0 1-2.895-2.896 2.899 2.899 0 0 1 2.895-2.895 2.899 2.899 0 0 1 2.896 2.895.58.58 0 0 1-1.158 0z" fill="#F4F4F4"/><path fill-rule="evenodd" clip-rule="evenodd" d="M25.89 20.047c0-2.555-1.82-4.633-4.055-4.633-2.235 0-4.053 2.078-4.053 4.633 0 2.554 1.818 4.633 4.053 4.633.287 0 .566-.035.835-.1a2.321 2.321 0 0 0 2.061 1.258.58.58 0 0 0 0-1.158 1.16 1.16 0 0 1-.985-.549c1.275-.782 2.143-2.32 2.143-4.084zm-6.95 0c0-1.916 1.299-3.475 2.895-3.475 1.597 0 2.896 1.559 2.896 3.475 0 1.509-.806 2.795-1.928 3.274-.303.13-.629.2-.968.2-1.596 0-2.895-1.558-2.895-3.474z" fill="#F4F4F4"/><path d="M27.053 25.259v-9.266a.58.58 0 0 1 1.158 0v8.687h4.054a.58.58 0 0 1 0 1.158h-4.633a.58.58 0 0 1-.579-.58z" fill="#F4F4F4"/><path fill-rule="evenodd" clip-rule="evenodd" d="M28.21 13.099h6.37c.32 0 .579.26.579.579v13.898c0 .32-.26.58-.58.58h-6.37v6.37a.578.578 0 0 1-.578.578H.992a.58.58 0 0 1-.579-.579V.937c0-.32.26-.579.58-.579h19.695l.006.001a.596.596 0 0 1 .083.008l.008.001.013.002a.559.559 0 0 1 .087.026h.002a.6.6 0 0 1 .057.026l.005.002.006.003a.577.577 0 0 1 .136.101l6.949 6.95a.59.59 0 0 1 .05.058l.011.014a.57.57 0 0 1 .04.064l.002.003.001.002c.011.021.02.043.029.066v.001l.005.013a.566.566 0 0 1 .02.074l.001.005a.582.582 0 0 1 .01.09V13.1zm-1.977-5.791L21.26 2.335v4.973h4.972zM1.57 33.946h25.48v-5.79H9.1a.58.58 0 0 1-.58-.58V13.678c0-.32.26-.58.58-.58h17.952V8.467h-6.37a.58.58 0 0 1-.58-.58v-6.37H1.572v32.43zm8.108-6.949H34v-12.74H9.679v12.74z" fill="#F4F4F4"/></svg>