<svg width="49" height="41" fill="none" xmlns="http://www.w3.org/2000/svg"><path fill-rule="evenodd" clip-rule="evenodd" d="M24.695 1.69L1.968 10.866l22.727 8.874 22.549-8.874-22.549-9.178zM1.288 9.31a1.666 1.666 0 0 0 .02 3.122l.888.347v16.803c-.776.195-1.318.642-1.318 1.162 0 .56.63 1.035 1.502 1.202C1.353 34.782-.373 39.81.072 40.39c.622.813 5.638.813 6.042 0 .289-.58-1.37-5.608-2.347-8.444.873-.168 1.502-.643 1.502-1.202 0-.52-.542-.967-1.317-1.162V13.465l6.587 2.572V26.09l.735.116.143-.833-.143.834h.007l.018.003.07.011.268.041c.233.035.57.086.992.146.843.12 2.02.28 3.363.44 2.675.319 6.04.64 8.709.637 2.624-.004 5.935-.327 8.566-.643a148.632 148.632 0 0 0 4.546-.621l.07-.01.017-.003.005-.001h.001l-.142-.834.143.833.735-.116V16.078l9.267-3.648a1.665 1.665 0 0 0 .02-3.119L25.378.134a1.82 1.82 0 0 0-1.364-.002L1.288 9.309zm11.007 15.34a143.21 143.21 0 0 0 3.913.521c2.661.317 5.937.628 8.49.624 2.511-.004 5.733-.315 8.35-.63a147.48 147.48 0 0 0 3.837-.514v-6.75l-11.88 4.26-.31.11-.308-.112-12.092-4.43v6.922zM2.185 35.159c.3-.898.611-1.784.885-2.548.26.763.557 1.645.847 2.54a68.262 68.262 0 0 1 1.044 3.482 13.896 13.896 0 0 1 .287 1.309 3.517 3.517 0 0 1-.33.078c-.465.088-1.089.136-1.743.136-.654 0-1.295-.048-1.792-.138a3.602 3.602 0 0 1-.497-.12 10.027 10.027 0 0 1 .249-1.272c.246-.98.635-2.227 1.05-3.467zm3.083 5.044v.001l.001-.015a.13.13 0 0 0-.001.014zm.18-.337a.06.06 0 0 1 .013-.008l-.012.008zm-4.566.246l-.002-.016.002.016z" fill="#D10000"/></svg>