<svg width="49" height="32" fill="none" xmlns="http://www.w3.org/2000/svg"><path fill-rule="evenodd" clip-rule="evenodd" d="M31.033 7.795c0 3.399-2.742 6.154-6.125 6.154-3.382 0-6.125-2.755-6.125-6.154s2.743-6.154 6.125-6.154c3.383 0 6.125 2.755 6.125 6.154zm1.634 0c0 4.305-3.474 7.795-7.759 7.795S17.15 12.1 17.15 7.795 20.624 0 24.908 0c4.285 0 7.759 3.49 7.759 7.795zm-13.71 7.795l4.858 6.48 1.031 1.376.992-1.405 4.552-6.451h5.543v3.282h2.153l2.76 3.72 1.027 1.386.987-1.415 2.576-3.691H49v10.667H35.933V32H13.067v-1.641H0V19.693h3.786l2.76 3.72 1.027 1.386.987-1.415 2.576-3.692h1.93V15.59h5.891zm-5.89 5.743v7.385H1.633v-7.385h1.333l3.297 4.446 1.35 1.82 1.297-1.858 3.076-4.408h1.08zM34.3 30.36H14.7V17.231h3.442l5.4 7.202 1.344 1.794 1.293-1.832 5.055-7.164H34.3v13.128zm1.633-2.462v-7.384h1.333l3.297 4.446 1.35 1.82 1.297-1.859 3.076-4.407h1.08v7.384H35.934zm8.984-13.948a3.274 3.274 0 0 1-3.267 3.282 3.274 3.274 0 0 1-3.267-3.282 3.274 3.274 0 0 1 3.267-3.282 3.274 3.274 0 0 1 3.267 3.282zm1.633 0c0 2.719-2.194 4.923-4.9 4.923-2.706 0-4.9-2.204-4.9-4.923 0-2.72 2.194-4.923 4.9-4.923 2.706 0 4.9 2.204 4.9 4.923zm-35.933.82a3.274 3.274 0 0 1-3.267 3.282 3.274 3.274 0 0 1-3.267-3.282 3.274 3.274 0 0 1 3.267-3.282 3.274 3.274 0 0 1 3.267 3.282zm1.633 0c0 2.72-2.194 4.923-4.9 4.923-2.706 0-4.9-2.204-4.9-4.923s2.194-4.923 4.9-4.923c2.706 0 4.9 2.204 4.9 4.923z" fill="#D10000"/></svg>