<svg width="49" height="38" fill="none" xmlns="http://www.w3.org/2000/svg"><path fill-rule="evenodd" clip-rule="evenodd" d="M18.148 1.81H31.76c1.003 0 1.815.81 1.815 1.809v1.81h-17.24v-1.81c0-1 .812-1.81 1.814-1.81zm-3.63 3.619v-1.81A3.624 3.624 0 0 1 18.148 0H31.76c2.005 0 3.63 1.62 3.63 3.619v1.81h8.167c3.006 0 5.444 2.43 5.444 5.428v21.714C49 35.57 46.562 38 43.556 38H5.444C2.438 38 0 35.57 0 32.571V10.857C0 7.86 2.438 5.43 5.444 5.43h9.075zm1.815 1.81h17.241V36.19h-17.24V7.238zm-2.722 0H5.444a3.624 3.624 0 0 0-3.63 3.618v21.714a3.624 3.624 0 0 0 3.63 3.62h8.167V7.238zM43.556 36.19h-7.26V7.238h7.26c2.004 0 3.63 1.62 3.63 3.62V32.57a3.624 3.624 0 0 1-3.63 3.62z" fill="#D10000"/></svg>