<svg width="55" height="41" fill="none" xmlns="http://www.w3.org/2000/svg"><path fill-rule="evenodd" clip-rule="evenodd" d="M41.553 4.139c-.443-.921-.135-2.07.689-2.566L44.478.227c.824-.496 1.85-.151 2.294.77l8.025 16.678c.444.922.135 2.07-.688 2.566l-2.236 1.347c-.7.42-1.546.236-2.056-.394-.489.637-1.131 1.423-1.732 1.977-.559.514-1.31 1.04-1.914 1.433.12.148.23.317.313.505.505 1.153.476 2.495-.256 3.589a3.452 3.452 0 0 1-3.325 1.52c.014.43-.04.905-.25 1.346-.372.786-.995 1.512-1.717 1.971-.53.337-1.18.567-1.85.494-.054.575-.194 1.343-.59 1.916-.293.422-.691.695-1.053.877a4.933 4.933 0 0 1-1.098.38 7.248 7.248 0 0 1-1.162.166l-.08.004h-.024l-.007.001h-.004v-.017l-.004-.147.003.164-.1.003c-.122.204-.27.438-.439.681-.472.68-1.231 1.611-2.155 1.966-.656.252-1.456.234-2.003.187a9.044 9.044 0 0 1-1.016-.148l-.018-.004-.005-.002h-.003l.166-.929-.167.929-.028-.007-.028-.008-3.918-1.196a13.33 13.33 0 0 1-.29.34c-.36.406-.896.959-1.43 1.267-.539.31-1.119.529-1.732.547-.628.018-1.235-.176-1.81-.597-.43-.315-.699-.78-.871-1.2a6.02 6.02 0 0 1-.345-1.284l-.008-.05-.004-.026-.212.084a4.87 4.87 0 0 1-1.288.312c-.452.038-.985-.009-1.47-.307-.452-.278-.764-.717-.979-1.128a6.288 6.288 0 0 1-.477-1.27 9.21 9.21 0 0 1-.104-.428c-.162.04-.34.077-.524.108-.401.066-.87.105-1.333.049-.456-.056-.98-.215-1.408-.621-.392-.372-.618-.87-.754-1.316a6.417 6.417 0 0 1-.237-1.34 9.75 9.75 0 0 1-.029-.735 8.815 8.815 0 0 1-.408-.158c-.554-.232-1.351-.634-1.863-1.263-.679-.836-1.5-1.936-1.151-3.56.133-.618.538-1.289.815-1.709l.14-.208-2.566-3.709c-.57.713-1.54.844-2.25.273l-2.06-1.66c-.76-.611-.932-1.795-.386-2.644L10.21 1.238c.547-.849 1.605-1.042 2.364-.43l2.061 1.66c.76.61.932 1.794.386 2.643l-.235.365c.436.328.93.664 1.323.85.669.313 1.659.475 2.55.549.432.035.817.048 1.094.052h.031c.107-.153.242-.343.396-.548.373-.498.905-1.152 1.439-1.586.722-.588 1.678-.951 2.629-1.187.965-.24 2.003-.365 2.946-.429a28.11 28.11 0 0 1 3.406-.016l.056.004.015.001h.006l-.055.946.056-.945.075.005.073.02 3.125.869.076.02.07.037h.001l.005.002.021.011a9.435 9.435 0 0 0 .43.202c.294.133.706.308 1.176.478.97.35 2.076.637 2.907.574.656-.05 1.522-.38 2.282-.743.265-.127.505-.251.704-.36l-.07-.143zM7.471 16.845l6.325-9.831c.466.353 1.092.792 1.657 1.058.938.44 2.162.616 3.082.692l.058.004-2.72 4.245-.086.136-.04.162.815.254a336.58 336.58 0 0 0-.816-.254v.003l-.002.006-.005.02-.016.07a15.184 15.184 0 0 0-.204 1.053 9.89 9.89 0 0 0-.111 1.031c-.016.341-.01.743.075 1.108.164.701.54 1.215 1.075 1.498.49.26 1.033.287 1.508.241.86-.083 1.832-.446 2.563-.719l.192-.071c1.221-.453 2.265-1.692 2.945-2.654a16.912 16.912 0 0 0 1.021-1.644l1.827-.87a119.396 119.396 0 0 1 3.535 1.945c2.193 1.256 4.843 2.873 6.762 4.357 1.458 1.128 3.233 2.75 4.656 4.104a126.992 126.992 0 0 1 2.414 2.36l.035.035.008.009.002.002h.001l.094.096.113.06h.003l.018.01.08.047a3.3 3.3 0 0 1 .262.177c.1.075.193.153.266.23a.914.914 0 0 1 .101.128c.258.59.216 1.16-.091 1.62-.429.641-1.276.946-2.055.714a1.77 1.77 0 0 1-.401-.227 4.149 4.149 0 0 1-.193-.143l-.053-.043-.013-.01v-.001h-.001v-.001l-.05-.042-.055-.034-8.332-5.106-.814 1.661 8.084 4.954c.046.126.097.287.14.462.111.463.097.782.027.93-.221.468-.616.93-1.058 1.212-.445.283-.817.313-1.08.19a1.695 1.695 0 0 1-.178-.107 4.125 4.125 0 0 1-.088-.06l-.024-.017-.006-.004-.025-.018-.027-.017-7.637-4.746-.823 1.656 7.22 4.486a7 7 0 0 1-.014.39c-.034.547-.135.963-.26 1.143-.058.083-.181.195-.406.308a3.39 3.39 0 0 1-.746.254 5.737 5.737 0 0 1-.8.122l-.248-.123-6.596-3.259-.684 1.733 5.69 2.811a9.228 9.228 0 0 1-.176.264c-.451.65-.95 1.176-1.368 1.336-.306.118-.808.135-1.322.09a7.571 7.571 0 0 1-.785-.11l-.03-.007-3.351-1.022c.208-.473.439-1.086.523-1.664.091-.625.1-1.246-.05-1.855a3.811 3.811 0 0 0-.879-1.646c-.326-.369-.739-.583-1.106-.715a4.79 4.79 0 0 0-1.096-.238 6.24 6.24 0 0 0-.19-.018c.017-.201.031-.42.037-.649a7.002 7.002 0 0 0-.122-1.585c-.11-.532-.328-1.123-.762-1.57-.573-.591-1.426-.815-1.977-.914a6.766 6.766 0 0 0-.244-.04 10.214 10.214 0 0 0-.034-.693 6.826 6.826 0 0 0-.264-1.44c-.15-.477-.395-1.002-.816-1.387-.376-.345-.828-.52-1.228-.612a5.011 5.011 0 0 0-1.183-.112 7.502 7.502 0 0 0-1.288.133l-.024.005-.008.002h-.003l.16.93-.161-.93-.326.071-.196.3-.836 1.278c-.36-.55-.923-1.273-1.634-1.596-.483-.22-.989-.39-1.525-.409-.554-.019-1.09.127-1.629.455-.287.174-.544.4-.756.616L6.21 19.276l1.26-2.43zm41.447 2.599l-3.337-6.935-3.316-6.47c-.198.106-.429.224-.68.344-.788.378-1.875.82-2.834.892-1.171.089-2.538-.3-3.542-.662a18.458 18.458 0 0 1-1.738-.734l-2.977-.827a24.549 24.549 0 0 0-.889-.035 26.83 26.83 0 0 0-2.309.05c-.892.061-1.834.178-2.682.388-.863.214-1.554.507-2 .87-.356.29-.779.793-1.137 1.271a16.514 16.514 0 0 0-.543.77l-.03.046-.007.011-.001.002-3.554 5.549a12.963 12.963 0 0 0-.155.814 7.787 7.787 0 0 0-.088.807 2.14 2.14 0 0 0 .022.527c.045.194.107.238.163.267.1.054.298.098.637.065.648-.063 1.432-.354 2.215-.645l.152-.056c.712-.264 1.49-1.099 2.15-2.031a15.005 15.005 0 0 0 1.008-1.652l.012-.023.003-.005.14-.283.267-.127 2.43-1.157.345-.165.341.176-.354.86.354-.86h.002l.004.003.015.008.06.03c.051.028.128.067.226.119a120.492 120.492 0 0 1 3.63 1.996c2.205 1.263 4.937 2.926 6.953 4.485 1.532 1.184 3.359 2.857 4.79 4.219a129.95 129.95 0 0 1 2.055 2c.156-.096.339-.21.535-.337.6-.389 1.288-.87 1.755-1.3.502-.464 1.092-1.182 1.574-1.816.122-.16.235-.312.335-.45zM24.383 37.215l.001-.001a11.12 11.12 0 0 0 .353-.695c.214-.461.398-.952.45-1.306.066-.45.054-.782-.012-1.05-.063-.26-.192-.523-.448-.812-.064-.072-.193-.164-.42-.245a3.268 3.268 0 0 0-.74-.157 5.445 5.445 0 0 0-.58-.03l-2.533 3.81.002.038c.011.216.035.506.085.81.05.308.123.601.22.837.098.243.195.357.258.403.301.222.572.296.837.288.28-.008.607-.11 1.002-.338.278-.16.654-.523 1.002-.916a11.958 11.958 0 0 0 .519-.63l.004-.005zm-2.624-5.622a9.426 9.426 0 0 0 .123-1.25 4.897 4.897 0 0 0-.079-1.1c-.068-.329-.168-.514-.26-.609-.175-.18-.58-.342-1.1-.436a5.55 5.55 0 0 0-.44-.06l-4.114 6.038c.034.22.088.51.17.814.084.314.19.614.316.856.13.249.25.373.335.426.089.055.254.1.527.077.268-.022.57-.104.873-.218a6.467 6.467 0 0 0 .923-.44l2.726-4.098zm-7.271 1.514l4.283-6.287.004-.12a8.704 8.704 0 0 0-.026-.926 4.768 4.768 0 0 0-.177-.993c-.093-.298-.2-.465-.29-.548-.085-.078-.242-.163-.498-.222a3.505 3.505 0 0 0-.819-.073 6.22 6.22 0 0 0-.71.054l-1.369 2.093-3.138 4.795-.003.097a7.96 7.96 0 0 0 .019.841c.025.323.074.637.154.898.08.269.173.413.244.48.074.07.225.15.498.183.267.033.58.013.9-.04a6.272 6.272 0 0 0 .928-.232zm-1.29-7.649a7.882 7.882 0 0 0-.243-.414c-.334-.528-.687-.926-.964-1.052-.396-.18-.69-.262-.94-.27-.233-.009-.473.046-.767.224-.218.133-.45.363-.645.596a4.967 4.967 0 0 0-.276.363l-.013.018v.001l-.001.001-.025.038-.028.036-.001.002-.007.008-.029.037a9.791 9.791 0 0 0-.455.637c-.286.436-.488.827-.532 1.03-.125.58.07.995.758 1.842.22.27.68.544 1.203.762.124.052.243.098.35.136l2.615-3.995z" fill="#D10000"/></svg>