<svg width="43" height="43" fill="none" xmlns="http://www.w3.org/2000/svg"><path fill-rule="evenodd" clip-rule="evenodd" d="M16.815 13.714v.857h-4.26A2.564 2.564 0 0 0 10 17.143v10.286A2.564 2.564 0 0 0 12.556 30h17.888A2.564 2.564 0 0 0 33 27.429V17.143a2.564 2.564 0 0 0-2.556-2.572h-3.833v-.857c0-.947-.763-1.714-1.704-1.714h-6.389a1.71 1.71 0 0 0-1.703 1.714zm8.092-.857h-6.389a.854.854 0 0 0-.851.857v.857h8.092v-.857a.855.855 0 0 0-.852-.857zm.852 2.572h-8.092v13.714h8.092V15.429zm-13.203 0h3.833v13.714h-3.833a1.709 1.709 0 0 1-1.704-1.714V17.143c0-.947.763-1.714 1.704-1.714zm14.481 13.714h3.407a1.71 1.71 0 0 0 1.704-1.714V17.143a1.71 1.71 0 0 0-1.704-1.714h-3.407v13.714z" fill="#D10000"/><circle cx="21.5" cy="21.5" r="20.5" stroke="#D10000" stroke-width="2"/></svg>