<svg width="43" height="43" fill="none" xmlns="http://www.w3.org/2000/svg"><path fill-rule="evenodd" clip-rule="evenodd" d="M21.725 20.77c2.361 0 4.275-1.964 4.275-4.385C26 13.963 24.086 12 21.725 12c-2.361 0-4.275 1.963-4.275 4.385 0 2.421 1.914 4.384 4.275 4.384zm0-.924c1.864 0 3.375-1.55 3.375-3.461 0-1.912-1.511-3.462-3.375-3.462s-3.375 1.55-3.375 3.462c0 1.911 1.511 3.461 3.375 3.461z" fill="#D10000"/><path fill-rule="evenodd" clip-rule="evenodd" d="M21.69 25.188l-3.245-4.419H15.2v2.308h-1.064l-1.963 2.872-2.087-2.872H8v6h7.2V30h12.6v-1.385H35v-6h-1.964l-1.963 2.873-2.087-2.873H27.8V20.77h-3.055l-3.054 4.42zm-6.49 2.966V24h-.595l-2.41 3.525L9.635 24H8.9v4.154h6.3zm.9.923h10.8v-7.385h-1.69l-3.497 5.06-3.716-5.06H16.1v7.385zm11.7-5.539v4.154h6.3v-4.154h-.596l-2.41 3.525-2.56-3.524H27.8z" fill="#D10000"/><path fill-rule="evenodd" clip-rule="evenodd" d="M30.95 22.615c1.491 0 2.7-1.24 2.7-2.769 0-1.53-1.209-2.77-2.7-2.77s-2.7 1.24-2.7 2.77 1.209 2.77 2.7 2.77zm0-.923c.994 0 1.8-.826 1.8-1.846S31.944 18 30.95 18s-1.8.827-1.8 1.846c0 1.02.806 1.846 1.8 1.846zm-18.9 1.385c1.491 0 2.7-1.24 2.7-2.77 0-1.529-1.209-2.768-2.7-2.768s-2.7 1.24-2.7 2.769c0 1.53 1.209 2.769 2.7 2.769zm0-.923c.994 0 1.8-.827 1.8-1.846 0-1.02-.806-1.846-1.8-1.846s-1.8.826-1.8 1.846.806 1.846 1.8 1.846z" fill="#D10000"/><circle cx="21.5" cy="21.5" r="20.5" stroke="#D10000" stroke-width="2"/></svg>