<svg width="43" height="43" fill="none" xmlns="http://www.w3.org/2000/svg"><path fill-rule="evenodd" clip-rule="evenodd" d="M28.969 12.73c-.39.229-.535.761-.326 1.188l.033.067c-.094.05-.207.107-.332.166-.36.169-.769.322-1.08.345-.392.029-.915-.104-1.373-.267a8.089 8.089 0 0 1-.744-.307l-.016-.008-.01-.005h-.002l-.034-.018-1.547-.421-.036-.003h-.01l-.027-.002a8.784 8.784 0 0 0-.455-.018 13.57 13.57 0 0 0-1.155.025c-.445.03-.936.088-1.393.2-.449.108-.9.277-1.242.549-.252.201-.504.504-.68.735a8.625 8.625 0 0 0-.188.254h-.014a7.95 7.95 0 0 1-.517-.024c-.422-.034-.89-.11-1.206-.255a4 4 0 0 1-.625-.393l.11-.17c.259-.393.177-.941-.182-1.225l-.974-.769c-.359-.283-.859-.194-1.117.2L9.15 19.698c-.258.394-.177.942.182 1.226l.974.769a.751.751 0 0 0 1.064-.127l1.213 1.719-.066.096c-.131.195-.323.506-.386.793-.165.752.223 1.262.544 1.649.242.292.62.478.881.585.068.028.133.053.193.074 0 .1.004.217.014.34.015.19.047.41.112.621.064.207.17.438.356.61.203.188.45.262.666.288.218.026.44.008.63-.023.087-.014.17-.032.248-.05.014.063.03.13.049.199.05.185.122.395.225.588.102.19.25.394.463.523.23.138.481.16.695.142a2.342 2.342 0 0 0 .71-.184l.001.012.004.024c.03.184.08.396.163.594.081.196.208.41.411.557.272.195.56.285.856.276.29-.008.564-.11.819-.253.252-.143.506-.4.676-.587l.137-.157 1.852.553.014.005.013.003h.004l.009.002.03.006a4.34 4.34 0 0 0 .45.063c.258.022.637.03.946-.087.437-.164.796-.596 1.02-.91.08-.113.15-.222.207-.317h.053l.011-.001.038-.002a3.425 3.425 0 0 0 .55-.077c.16-.036.344-.09.518-.176.171-.084.36-.21.498-.407.187-.265.254-.621.28-.887.316.034.623-.073.874-.23.34-.212.636-.549.811-.913.1-.204.125-.424.118-.623a1.645 1.645 0 0 0 1.573-.705c.345-.507.36-1.129.12-1.663a1.033 1.033 0 0 0-.148-.234 7.24 7.24 0 0 0 .905-.665c.284-.256.588-.62.819-.915a.751.751 0 0 0 .972.182l1.057-.624c.389-.23.535-.762.325-1.189l-3.794-7.73c-.21-.426-.695-.586-1.084-.356l-1.057.624zm-3.391 16.59l-.002-.077.001.068v.008zm-2.102-15.415l.026-.438-.026.438zm-.533 16.227l-.079.43zM15.522 15.25l-2.99 4.556-.596 1.127 1.185 1.679c.1-.1.222-.205.358-.286a1.38 1.38 0 0 1 .77-.21c.253.008.492.087.72.189.337.15.603.485.773.74l.488-.732.154-.032.076.43-.076-.43h.002l.004-.001.01-.003.04-.007a3.452 3.452 0 0 1 .57-.055c.17-.002.366.009.559.053.19.042.403.123.58.283.2.179.316.422.386.643.072.225.107.461.125.667.01.114.015.224.016.322.037.005.076.01.115.018.26.046.665.15.935.423.206.207.308.481.36.728.054.25.064.51.058.735a4.77 4.77 0 0 1-.018.3l.09.008c.159.017.342.049.519.11.173.062.368.161.523.332.204.226.344.476.415.763.07.282.067.57.024.86-.04.267-.15.552-.248.77l1.584.474.014.003c.02.004.048.01.084.015.073.012.174.027.288.037.243.02.48.012.625-.042.197-.074.433-.318.646-.62a4.49 4.49 0 0 0 .084-.122l-2.69-1.302.323-.803 3.236 1.567.049-.005c.086-.008.204-.024.329-.052.126-.028.25-.067.352-.117a.508.508 0 0 0 .192-.143c.06-.084.107-.277.123-.53.004-.064.006-.126.006-.18l-3.412-2.08.388-.767 3.61 2.2.014.007.012.009.002.002.012.008.041.027c.038.025.07.043.084.05.125.057.3.043.511-.088a1.41 1.41 0 0 0 .5-.562c.033-.068.04-.216-.013-.43a2.03 2.03 0 0 0-.066-.215l-3.821-2.296.384-.77 3.965 2.383.023.019h.001l.006.005.026.02c.022.018.054.042.09.067a.84.84 0 0 0 .19.105.885.885 0 0 0 .971-.33c.146-.214.166-.479.044-.752l-.003-.004a.402.402 0 0 0-.045-.055.986.986 0 0 0-.126-.107 1.6 1.6 0 0 0-.162-.103l-.009-.005-.054-.028-.044-.044-.002-.001-.004-.004-.016-.017-.065-.064-.243-.237a59.66 59.66 0 0 0-.833-.793c-.673-.627-1.512-1.378-2.201-1.901-.908-.688-2.16-1.437-3.197-2.02a57.012 57.012 0 0 0-1.67-.9l-.864.403-.082.143a7.8 7.8 0 0 1-.401.618c-.322.446-.815 1.02-1.392 1.23l-.091.033c-.346.127-.806.295-1.212.334-.224.02-.481.008-.713-.112-.252-.132-.43-.37-.508-.694a1.882 1.882 0 0 1-.035-.514c.008-.164.029-.332.052-.478a6.823 6.823 0 0 1 .097-.488l.008-.032.002-.012v-.002l.02-.074 1.326-2.03-.027-.003c-.435-.035-1.013-.116-1.457-.32a4.809 4.809 0 0 1-.783-.49zm15.025 2.547l1.578 3.214c-.048.063-.1.134-.158.208-.229.294-.507.626-.745.84-.22.2-.546.424-.829.604-.093.059-.18.112-.253.156l-.077-.075-.05-.048c-.21-.204-.505-.487-.845-.804-.676-.631-1.54-1.406-2.264-1.955-.953-.723-2.244-1.493-3.287-2.079a57.242 57.242 0 0 0-1.716-.925l-.107-.054-.028-.015-.007-.003-.002-.001-.162-.082-1.438.671-.067.131v.003l-.006.01-.012.022a6.724 6.724 0 0 1-.465.744c-.312.432-.68.819-1.016.941l-.072.026c-.37.135-.741.27-1.047.299-.16.015-.254-.005-.301-.03-.027-.014-.056-.034-.078-.124a.98.98 0 0 1-.01-.244c.006-.118.022-.248.042-.374a5.939 5.939 0 0 1 .073-.377l1.68-2.572.004-.006.014-.021a7.616 7.616 0 0 1 .256-.357c.17-.221.37-.454.539-.59.21-.167.537-.303.945-.402a7.67 7.67 0 0 1 1.268-.18 12.814 12.814 0 0 1 1.512-.007l1.407.383.033.016c.043.02.104.049.18.082.152.068.364.156.608.243.475.168 1.12.348 1.675.306.453-.033.967-.238 1.34-.413a8.22 8.22 0 0 0 .321-.16l1.567 2.999zm-10.02 11.448v.001l-.002.003a4.587 4.587 0 0 1-.246.292c-.164.182-.342.35-.474.424-.186.106-.34.153-.473.157a.626.626 0 0 1-.396-.134.436.436 0 0 1-.122-.186 1.82 1.82 0 0 1-.104-.389 3.404 3.404 0 0 1-.04-.375v-.017l1.197-1.765c.077 0 .172.003.273.013.124.013.247.036.35.073.108.038.17.08.199.113a.86.86 0 0 1 .212.376c.031.125.037.278.006.487a2.468 2.468 0 0 1-.213.605 5.083 5.083 0 0 1-.167.322zm-1.224-2.712a4.418 4.418 0 0 1-.017.108l-1.289 1.899a3.14 3.14 0 0 1-.436.204 1.61 1.61 0 0 1-.412.1c-.13.011-.208-.01-.25-.035a.503.503 0 0 1-.158-.197 1.955 1.955 0 0 1-.15-.397 3.595 3.595 0 0 1-.08-.377l1.945-2.799c.061.006.133.015.208.028.246.044.437.12.52.203.043.043.09.13.123.282.032.15.042.327.037.509-.005.18-.023.348-.041.472zm-1.43-2.104l-2.024 2.913-.026.009a3.018 3.018 0 0 1-.412.1 1.57 1.57 0 0 1-.426.017c-.13-.015-.2-.052-.236-.085a.516.516 0 0 1-.115-.222 1.99 1.99 0 0 1-.073-.416 3.6 3.6 0 0 1-.009-.39l.002-.045 2.13-3.192c.09-.011.208-.023.336-.025.135-.002.27.008.387.034a.53.53 0 0 1 .235.103.579.579 0 0 1 .138.254c.043.134.07.295.083.46a3.959 3.959 0 0 1 .01.485zm-2.749-.823c.044.067.082.133.115.192l-1.236 1.851a3.363 3.363 0 0 1-.166-.063c-.246-.101-.464-.228-.568-.353-.325-.393-.418-.585-.359-.854.021-.094.117-.275.252-.477a4.943 4.943 0 0 1 .215-.296l.014-.017.003-.003.014-.018.011-.017.007-.01.027-.037c.024-.033.06-.08.104-.131.092-.108.202-.215.304-.276a.637.637 0 0 1 .363-.104c.119.004.257.042.444.125.131.059.299.243.456.488z" fill="#D10000"/><circle cx="21.5" cy="21.5" r="20.5" stroke="#D10000" stroke-width="2"/></svg>