<svg width="43" height="43" fill="none" xmlns="http://www.w3.org/2000/svg"><path fill-rule="evenodd" clip-rule="evenodd" d="M7.649 20.277a.971.971 0 0 1-.012-1.828l13.451-5.372c.258-.103.55-.103.807.001L35.24 18.45a.971.971 0 0 1-.01 1.826l-5.485 2.135v5.861l-.437.069-.083-.489.083.488-.002.001-.052.008a50.738 50.738 0 0 1-.733.108c-.49.07-1.176.162-1.958.255-1.557.186-3.516.374-5.07.377-1.578.002-3.57-.187-5.153-.373a89.093 89.093 0 0 1-2.736-.367l-.042-.006-.01-.002h-.005l-.435-.069v-5.885l-5.463-2.11zm.39-.916L21.49 13.99l13.345 5.372-13.345 5.195L8.04 19.36zm6.463 8.119a84.875 84.875 0 0 1-.35-.05v-4.052l7.339 2.66 7.214-2.56v3.952a88.6 88.6 0 0 1-2.27.301c-1.55.184-3.457.366-4.943.369-1.511.002-3.45-.18-5.025-.366a88.168 88.168 0 0 1-1.965-.254z" fill="#D10000"/><circle cx="21.5" cy="21.5" r="20.5" stroke="#D10000" stroke-width="2"/></svg>