<svg width="94" height="29" fill="none" xmlns="http://www.w3.org/2000/svg"><path d="M37.35 9.614h2.34c.582 0 1.019.119 1.31.357.29.229.48.55.568.965.097.414.146.97.146 1.666 0 .67-.044 1.212-.133 1.627a1.699 1.699 0 0 1-.582.992c-.29.246-.727.37-1.309.37h-.99v3.12h-1.35V9.615zm2.129 4.76c.273 0 .467-.048.581-.145.124-.106.203-.278.239-.516.044-.238.066-.608.066-1.11 0-.503-.022-.87-.066-1.098-.036-.238-.115-.406-.239-.503-.114-.106-.308-.159-.581-.159h-.78v3.531h.78zm6.34 4.443c-.74 0-1.274-.127-1.6-.383-.317-.256-.52-.683-.608-1.283-.08-.6-.12-1.595-.12-2.988s.04-2.39.12-2.989c.088-.6.29-1.027.608-1.283.326-.255.86-.383 1.6-.383.75 0 1.283.128 1.6.383.327.256.53.684.609 1.283.088.6.132 1.596.132 2.989 0 1.393-.044 2.389-.132 2.988-.08.6-.282 1.027-.608 1.283-.318.256-.851.383-1.6.383zm0-1.23c.327 0 .551-.057.675-.171.123-.115.207-.397.251-.847.044-.45.066-1.251.066-2.406 0-1.155-.022-1.957-.066-2.407-.044-.45-.128-.732-.251-.846-.123-.115-.348-.172-.675-.172-.326 0-.55.057-.674.172-.114.114-.194.396-.238.846-.044.45-.066 1.252-.066 2.407s.022 1.957.066 2.406c.044.45.124.732.238.847.123.114.348.172.674.172zm8.808 1.125l-.925-6.943h-.067l-.925 6.943h-1.865l-1.124-9.098h1.362l.727 7.51h.093l.965-7.51h1.653l.979 7.51h.093l.7-7.51h1.323l-1.138 9.098h-1.85zm4.841 0V9.614h3.584v1.23h-2.221v2.658h1.944v1.23H60.83v2.75h2.221v1.23h-3.584zm8.843 0l-.833-3.386H66.46v3.386h-1.35V9.614h2.394c.582 0 1.018.11 1.31.33.29.22.48.534.568.94.097.396.145.925.145 1.586 0 .679-.052 1.225-.158 1.64-.106.414-.326.723-.661.925l.991 3.677h-1.388zm-1.018-4.576c.273 0 .467-.048.581-.145.124-.097.203-.256.239-.476.044-.22.066-.565.066-1.032 0-.458-.022-.798-.066-1.018-.036-.22-.115-.38-.239-.476-.123-.097-.317-.146-.581-.146h-.833v3.293h.833zm4.377-4.522h2.34c.582 0 1.019.119 1.31.357.29.229.48.55.568.965.097.414.146.97.146 1.666 0 .67-.044 1.212-.133 1.627a1.699 1.699 0 0 1-.581.992c-.291.246-.728.37-1.31.37h-.991v3.12h-1.35V9.615zm2.129 4.76c.273 0 .467-.048.582-.145.123-.106.203-.278.238-.516.044-.238.066-.608.066-1.11 0-.503-.022-.87-.066-1.098-.035-.238-.115-.406-.238-.503-.115-.106-.309-.159-.582-.159h-.78v3.531h.78zm4.172 4.338V9.614h1.362v7.855h1.997v1.243h-3.36zm8.537 0l-.383-2.182h-1.772l-.37 2.182h-1.35l1.64-9.098h1.957l1.64 9.098h-1.362zm-1.23-7.617h-.08l-.7 4.231h1.481l-.7-4.231zm5 7.617v-3.346l-1.825-5.752h1.362l1.124 4.192h.106l1.084-4.192h1.322l-1.824 5.752v3.346h-1.35z" fill="#000"/><path d="M36.634 2.385a1.7 1.7 0 0 0-2.39.276L23.422 16.322a1.7 1.7 0 1 0 2.666 2.112L36.91 4.774a1.7 1.7 0 0 0-.276-2.39zm-7.305-.365a1.7 1.7 0 0 0-2.389.277L9.253 24.621a1.7 1.7 0 0 0 2.665 2.112L29.606 4.409a1.7 1.7 0 0 0-.277-2.389zm-7.569-.03a1.7 1.7 0 0 0-2.388.277L1.685 24.59a1.7 1.7 0 0 0 2.665 2.112L22.037 4.379a1.7 1.7 0 0 0-.276-2.389z" fill="#FF7300"/></svg>