<svg width="136" height="21" fill="none" xmlns="http://www.w3.org/2000/svg"><path d="M19.98 2.714v-.019h-.133v-.02h-.077v-.018h-.057v-.02h-.057V2.62h-.038V2.6h-.039v-.02h-.019v-.019h-.038v-.019h-.038v-.019h-.02v-.02h-.038v-.018h-.019v-.02h-.019v-.018h-.019v-.02h-.038v-.019h-.02V2.39h-.018v-.038h-.02v-.02h-.019v-.018h-.019v-.02h-.019v-.038h-.019v-.019h-.02v-.019h-.018V2.18h-.02v-.038h-.018v-.039h-.02v-.038h-.019v-.057h-.019V1.95h-.019v-.058h-.019v-.114h-.02v-.516h.02v-.115h.02v-.058h.018v-.057h.02V.975h.018V.937h.02v-.02h.019V.88h.019V.841h.019V.803h.019v-.02h.02V.766h.018v-.04h.02V.707h.018V.688h.02V.67h.019V.65h.019V.632h.019V.61h.019V.594h.02v-.02h.037v-.02h.02V.535h.019V.516h.038V.497h.019v-.02h.038V.46h.038V.44h.039V.422h.038V.4h.057V.382h.077V.363h.057V.344h.191V.325h11.755v.02h.19v.018h.058v.02h.076V.4h.058v.02h.038v.02h.038v.019h.039v.019h.038v.019h.019v.02h.038v.018h.02v.02h.018v.018h.039v.02h.019v.019h.019V.63h.019v.02h.019v.019h.02v.02h.018v.018h.02v.038h.018v.02h.02v.019h.019v.019h.019V.84h.019v.038h.019v.038h.02v.039h.018v.019h.02v.057h.019v.057h.019v.077h.019v.115h.019v.477h-.02v.134h-.018v.058h-.02v.057h-.019v.057h-.019v.038h-.019v.039h-.019v.038h-.02v.02h-.018v.037h-.02v.02h-.018v.038h-.02v.019h-.019v.019h-.019v.019h-.019v.038h-.019v.02h-.038v.018h-.02v.02h-.018v.019h-.02v.019h-.019v.019h-.038v.019h-.019v.02h-.038v.018h-.038v.02h-.02v.018h-.038v.02h-.038v.019h-.057v.019h-.058v.019h-.076v.019h-.134v.02" fill="url(#paint0_linear)"/><path d="M20.019 19.763v-.02h-.172v-.018h-.058v-.02h-.057v-.019h-.057v-.019h-.038v-.019h-.039v-.019h-.038v-.02h-.038v-.018h-.038v-.02h-.02v-.018h-.018v-.02h-.039v-.019h-.019v-.019h-.019v-.019h-.02v-.019h-.018v-.02h-.02v-.018h-.018v-.02h-.02v-.018h-.019v-.02h-.019v-.038h-.019v-.019h-.019v-.019h-.02v-.038h-.018v-.038h-.02v-.02h-.018v-.038h-.02v-.038h-.019v-.057h-.019v-.058h-.019v-.057h-.019v-.115h-.02v-.516h.02v-.114h.02v-.058h.018v-.057h.02v-.058h.018v-.038h.02v-.038h.019v-.038h.019v-.02h.019v-.037h.019v-.02h.02v-.038h.018v-.019h.02v-.02h.018v-.018h.02v-.02h.019v-.037h.038v-.02h.019v-.019h.02v-.019h.018v-.019h.02v-.02h.038v-.018h.019v-.02h.038v-.018h.038v-.02h.038v-.019h.02v-.019h.038v-.019h.057v-.019h.076v-.02h.058v-.018H20v-.02h11.869v.02h.153v.019h.057v.019h.077v.02h.057v.018h.038v.02h.02v.018h.038v.02h.038v.019h.038v.019h.02v.019h.037v.019h.02v.02h.019v.018h.019v.02h.019v.018h.038v.039h.02v.019h.018v.019h.02v.02h.018v.018h.02v.038h.019v.02h.019v.038h.019v.038h.019v.02h.02v.037h.018v.038h.02v.058h.019v.057h.019v.057h.019v.134h.019v.478h-.02v.115h-.018v.076h-.02v.058h-.019v.057h-.019v.038h-.019v.02h-.019v.038h-.02v.038h-.018v.038h-.02v.02h-.018v.018h-.02v.038h-.019v.02h-.019v.019h-.019v.019h-.019v.019h-.02v.019h-.018v.02h-.02v.018h-.018v.02h-.02v.018h-.038v.02h-.019v.019h-.019v.019h-.038v.019h-.038v.019h-.039v.02h-.038v.018h-.038v.02h-.058v.018h-.057v.02h-.057v.019h-.172v.019" fill="url(#paint1_linear)"/><path d="M7.717 9.794c1.626 0 2.918-.314 3.873-.945.955-.63 1.433-1.52 1.433-2.668 0-1.113-.411-1.966-1.234-2.559-.823-.593-2.227-.889-4.214-.889H2.582v7.061h5.135zM.368 19.526A1.194 1.194 0 0 1 0 18.637V1.62C0 1.269.123.966.368.717c.246-.25.55-.375.909-.375h6.61c2.573 0 4.503.519 5.788 1.556 1.287 1.038 1.93 2.402 1.93 4.087a5.246 5.246 0 0 1-.95 3.046c-.634.917-1.557 1.58-2.767 1.987 1.362.353 2.294 1.182 2.795 2.489.5 1.306.751 2.59.751 3.85v1.28c0 .352-.122.648-.368.889-.246.242-.55.363-.908.363-.397 0-.714-.117-.95-.35-.238-.23-.355-.53-.355-.902v-.834c0-.927-.086-1.785-.255-2.572-.17-.788-.578-1.492-1.22-2.113-.643-.62-1.618-.932-2.923-.932H2.582v6.451c0 .352-.128.648-.382.889a1.294 1.294 0 0 1-.923.363c-.359 0-.663-.12-.909-.363zm42.22-2.141c1.55 0 2.911-.31 4.085-.932 1.172-.62 2.08-1.482 2.724-2.585.644-1.102.964-2.378.964-3.824 0-1.446-.32-2.72-.964-3.822-.643-1.103-1.552-1.965-2.724-2.586-1.174-.62-2.534-.932-4.085-.932h-4.086v14.681h4.086zm-6.3 2.002a1.197 1.197 0 0 1-.368-.89V1.62c0-.352.123-.654.368-.903.246-.25.55-.375.908-.375H42.9c2.155 0 3.986.467 5.49 1.403 1.504.937 2.633 2.145 3.39 3.63a10.164 10.164 0 0 1 1.134 4.67c0 1.631-.379 3.188-1.133 4.672-.758 1.482-1.887 2.692-3.391 3.628-1.504.936-3.335 1.404-5.49 1.404h-5.704c-.358 0-.662-.12-.908-.362zm65.086-.777L94.367 1.954a1.26 1.26 0 0 1-.086-.473c0-.39.113-.7.34-.932.228-.231.54-.348.937-.348.264 0 .505.08.724.236.216.158.383.366.495.626l6.669 16.294 6.667-16.294c.114-.26.279-.468.497-.626.217-.157.458-.236.722-.236.398 0 .711.117.937.348.227.232.34.541.34.932 0 .166-.029.325-.086.473l-7.007 16.654c-.398.853-.983 1.28-1.758 1.28h-.625c-.776 0-1.361-.427-1.759-1.28zm19.859.082a1.293 1.293 0 0 1-.57-.458 1.17 1.17 0 0 1 .101-1.502c.216-.232.495-.348.837-.348.188 0 .367.037.539.111 1.74.761 3.603 1.14 5.589 1.14 3.309 0 4.966-1.065 4.966-3.196a1.76 1.76 0 0 0-.641-1.39c-.424-.37-.949-.663-1.573-.878-.623-.211-1.513-.467-2.666-.763-1.533-.389-2.773-.765-3.717-1.126a6.509 6.509 0 0 1-2.441-1.627c-.68-.723-1.021-1.687-1.021-2.892 0-1.057.283-2.016.851-2.878.567-.861 1.405-1.547 2.511-2.058 1.107-.509 2.435-.765 3.985-.765 2.082 0 3.962.306 5.648.918.528.186.793.557.793 1.113a1.2 1.2 0 0 1-.311.806 1.033 1.033 0 0 1-.822.361c-.115 0-.266-.036-.455-.11a14.121 14.121 0 0 0-4.568-.752c-1.495 0-2.71.279-3.645.835-.936.557-1.405 1.335-1.405 2.336 0 .667.222 1.209.666 1.626.445.416 1.003.742 1.674.974.671.232 1.584.477 2.739.735 1.494.353 2.699.706 3.616 1.058.917.352 1.703.9 2.357 1.64.651.741.976 1.743.976 3.004 0 1.037-.302 1.97-.906 2.794-.606.825-1.456 1.47-2.553 1.932-1.099.462-2.364.695-3.804.695-2.4 0-4.652-.444-6.75-1.335z" fill="#fff"/><path d="M20 11.238v-.019h-.153V11.2h-.058v-.019h-.076v-.019h-.057v-.02h-.038v-.018h-.02v-.02h-.038v-.018h-.038v-.02h-.038v-.019h-.02v-.019h-.038v-.019h-.019v-.02h-.019v-.018h-.019v-.02h-.02v-.018h-.037v-.039h-.02v-.019h-.019v-.019h-.019v-.019h-.019v-.02h-.019v-.037h-.019v-.02h-.02v-.038h-.018v-.019h-.02v-.038h-.018v-.038h-.02v-.038h-.019v-.058h-.019v-.057h-.019v-.058h-.019v-.114h-.02v-.516h.02V9.67h.02v-.057h.018v-.058h.02V9.5h.018v-.038h.02v-.038h.019v-.02h.019v-.038h.019v-.038h.019v-.019h.02v-.02h.018v-.037h.02v-.02h.018v-.019h.02v-.019h.019v-.019h.019v-.019h.019v-.019h.019v-.02h.02v-.018h.018v-.02h.038V9.06h.02v-.02h.019v-.019h.038v-.019h.038v-.019h.038v-.02h.039v-.018h.038v-.02h.057v-.018h.058v-.02h.057v-.019h.191V8.85h11.793v.02h.19v.018h.058v.02h.057v.019h.058v.019h.038v.019h.038v.02h.039v.018h.038v.02h.038v.018h.02v.02h.018v.019h.038v.019h.02v.019h.019v.019h.019v.02h.019v.018h.019v.02h.02v.018h.018v.02h.02v.019h.018v.038h.02v.019h.019v.02h.019v.037h.019v.039h.019v.038h.02v.019h.018V9.5h.02v.057h.019v.058h.019v.076h.019v.115h.019v.478h-.02v.133h-.018v.058h-.02v.057h-.019v.058h-.019v.038h-.019v.038h-.019v.02h-.02v.037h-.018v.039h-.02v.019h-.018v.038h-.02v.019h-.019v.02h-.019v.018h-.019v.02h-.019v.038h-.038v.019h-.02v.019h-.018v.019h-.02v.019h-.038v.02h-.019v.018h-.019v.02h-.038v.018h-.038v.02h-.039v.019h-.019v.019h-.038v.019h-.057v.02h-.077v.018h-.057v.02h-.153v.018" fill="url(#paint2_linear)"/><path d="M57.036 19.897v-.019h-.114v-.02h-.058v-.018h-.057v-.02h-.057v-.018h-.038v-.02h-.039v-.019h-.038v-.019h-.038v-.019h-.038v-.019h-.02v-.02h-.019v-.018h-.038v-.02h-.019v-.018h-.02v-.02h-.018v-.019h-.038v-.019h-.02v-.019h-.019v-.038h-.019v-.02h-.019v-.018h-.019v-.02h-.02v-.019h-.018V19.4h-.02v-.019h-.018v-.038h-.02v-.02h-.019v-.038h-.019v-.038h-.019v-.038h-.019v-.038h-.02v-.077h-.018v-.057h-.02v-.057h-.018v-.153h-.02V5.467h.02v-.153h.019v-.058h.019V5.2h.019v-.057h.019v-.058h.02v-.019h.018v-.038h.02V4.99h.019v-.04h.019v-.039h.019v-.019h.019v-.019h.019v-.019h.019v-.038h.02v-.02h.018V4.78h.02v-.02h.019v-.02h.019v-.019h.019v-.019h.019v-.019h.019v-.019h.038v-.02h.02v-.018h.018v-.02h.02v-.018h.038v-.02h.038V4.55h.038v-.02h.038v-.019h.02v-.019h.057v-.02h.057v-.018h.057v-.02h.058v-.018h.172v-.02h.42v.02h.172v.019h.058v.019h.057v.019h.057v.019h.058v.02h.019v.018h.038v.02h.038v.018h.038v.02h.039v.019h.019v.019h.019v.019h.02v.019h.037v.02h.02v.018h.019v.02h.019v.018h.019v.02h.019v.019h.019v.019h.02v.019h.018v.038h.02v.02h.019v.018h.019v.02h.019v.038h.019v.038h.019v.038h.019v.038h.02v.02h.018v.057h.02v.057h.019v.057h.019v.058h.019v.153h.019v13.36h-.02v.153h-.018v.057h-.02v.057h-.019v.077h-.019v.038h-.019v.038h-.019v.038h-.02v.039h-.018v.019h-.02v.038h-.018v.02h-.02v.037h-.019v.02h-.019v.019h-.019v.019h-.019v.019h-.02v.038h-.018v.02h-.02v.018h-.038v.02h-.019v.018h-.019v.02h-.019v.019h-.038v.019h-.02v.019h-.018v.02h-.039v.018h-.038v.02h-.038v.018h-.038v.02h-.038v.019h-.058v.019h-.057v.019h-.057v.019h-.115v.02" fill="url(#paint3_linear)"/><path d="M71.874 19.801v-.019h-.115v-.02h-.057v-.018h-.039v-.02h-.057v-.018h-.038v-.02h-.038v-.019h-.039v-.019h-.038v-.019h-.019v-.019h-.038v-.02h-.02v-.018h-.038v-.02h-.019v-.018H71.3v-.02h-.019v-.019h-.019v-.019h-.02v-.019h-.018v-.019h-.02v-.02h-.018V19.4h-.02v-.02h-.019v-.018h-.019v-.039h-.019v-.019h-.019v-.019h-.02v-.019h-.018v-.02h-.02v-.037h-.019v-.02h-.019v-.019h-.019v-.019h-.019v-.019h-.019v-.038h-.02v-.02H70.9v-.018h-.02v-.02h-.018v-.019h-.02v-.038h-.019v-.019h-.019v-.019h-.019v-.02h-.019v-.018h-.02v-.038h-.018v-.02h-.02v-.019h-.018v-.019h-.02v-.019h-.019v-.038h-.019v-.02h-.019v-.018h-.019v-.02h-.02v-.018h-.018v-.039h-.02v-.019h-.018v-.019h-.02v-.02h-.019v-.018h-.019v-.038h-.019v-.02h-.019v-.019h-.02v-.019h-.018v-.038h-.02v-.02h-.018v-.018h-.02v-.02h-.019v-.018h-.019v-.039h-.019v-.019h-.019v-.019h-.02v-.019h-.018v-.02h-.02v-.037h-.019v-.02h-.019v-.019h-.019v-.019h-.019v-.019h-.019v-.038h-.019v-.02h-.02v-.018h-.018v-.02h-.02v-.018H70v-.039h-.019v-.019h-.019v-.019h-.019v-.019h-.019v-.02h-.019v-.037h-.02v-.02h-.018v-.019h-.02v-.019h-.018v-.019h-.02v-.038h-.019v-.02h-.019V17.7h-.019v-.02h-.02v-.018h-.018v-.039h-.02v-.019h-.018v-.019h-.02v-.02h-.019v-.018h-.019v-.038H69.6v-.02h-.019v-.019h-.02v-.019h-.018v-.019h-.02v-.038h-.018v-.02h-.02v-.018h-.019v-.02h-.019v-.019h-.019v-.038h-.019v-.019h-.02v-.019h-.018v-.02h-.02v-.018h-.018v-.039h-.02v-.019h-.019v-.019h-.019v-.019h-.019v-.019h-.019v-.038h-.02v-.02h-.018v-.018h-.02v-.02h-.019v-.019h-.019v-.038h-.019v-.019h-.019v-.019h-.019v-.02h-.019v-.018h-.02v-.038h-.018v-.02h-.02v-.019h-.019v-.019h-.019v-.019h-.019v-.038h-.019v-.02h-.019v-.018h-.019v-.02h-.02v-.019h-.018v-.038h-.02v-.019h-.019v-.02h-.019v-.018h-.019v-.02h-.019v-.038h-.019v-.019h-.02v-.019h-.018v-.019h-.02v-.038h-.018v-.02h-.02v-.018h-.019v-.02h-.019v-.018h-.019v-.039h-.019v-.019h-.02v-.019h-.018v-.02h-.02v-.018h-.018v-.038h-.02v-.02h-.019v-.019h-.019v-.019h-.019v-.019h-.019v-.038h-.02v-.02h-.018v-.018h-.02v-.02h-.018v-.019h-.02v-.038h-.019v-.019h-.019v-.019h-.019v-.02h-.019v-.018h-.02v-.039h-.018v-.019h-.02v-.019h-.019v-.019h-.019v-.019h-.019v-.038h-.019v-.02h-.019v-.018h-.019v-.02h-.02v-.019h-.018v-.038h-.02v-.019h-.018v-.02h-.02v-.018h-.019v-.02h-.019v-.037h-.019v-.02h-.019v-.019h-.02v-.019h-.018v-.019h-.02v-.038h-.019v-.02h-.019v-.018h-.019v-.02h-.019v-.019h-.019v-.038h-.02v-.019h-.018v-.02h-.02v-.018h-.018v-.02h-.02v-.038h-.019V15.1h-.019v-.019h-.019v-.019h-.019v-.019h-.02v-.038h-.018v-.02h-.02v-.018h-.018v-.02h-.02v-.019h-.019v-.038h-.019v-.019h-.019v-.02h-.019v-.018h-.02v-.02h-.018v-.038h-.02v-.019h-.018v-.019h-.02v-.019h-.019v-.019h-.019v-.038h-.019v-.02h-.019v-.019h-.02v-.019h-.018v-.019h-.02v-.038h-.018v-.02h-.02v-.018h-.019v-.02h-.019v-.018h-.019v-.039h-.019v-.019h-.02v-.019H67v-.019h-.02v-.02h-.019v-.037h-.019v-.02h-.019v-.018h-.019v-.02h-.019v-.038h-.019v-.019h-.02v-.02h-.018v-.018h-.02v-.02h-.019v-.038h-.019v-.019h-.019v-.019h-.019v-.019h-.019v-.019h-.019v-.038h-.02v-.02h-.018v-.018h-.02v-.02h-.018v-.019h-.02v-.038h-.019v-.019h-.019v-.02h-.019v-.018h-.02v-.02h-.018v-.038h-.02v-.019h-.018v-.019h-.02v-.019h-.019v-.019h-.019v-.038h-.019v-.02h-.019v-.019h-.02v-.019h-.018v-.019h-.02v-.038h-.018v-.02h-.02v-.018h-.019v-.02h-.019v-.018h-.019v-.039h-.019v-.019h-.02v-.019h-.018v-.019h-.02v-.02h-.018v-.037h-.02v-.02h-.019v-.018h-.019v-.02h-.019v-.019h-.019v-.038h-.02v-.02h-.018v-.018h-.02v-.02h-.019v-.018h-.019v-.039h-.019v-.019h-.019v-.019h-.019v-.019h-.019v-.02h-.02v-.037h-.018v-.02h-.02v-.019h-.019v-.019h-.019v-.019h-.019v-.038h-.019v-.02H65.7v-.018h-.019v-.02h-.02v-.018h-.018v-.039h-.02v-.019h-.019v-.019h-.019v-.019h-.019v-.02h-.019v-.037h-.019v-.02h-.02v-.019h-.018v-.019h-.02v-.019h-.018V12.5h-.02v-.02h-.019v-.018h-.019v-.02h-.019v-.018h-.019v-.039h-.02v-.019h-.018v-.019h-.02v-.02h-.018v-.018h-.02v-.038h-.019v-.02h-.019v-.019h-.019v-.019h-.019v-.038h-.02v-.02h-.018v-.018h-.02v-.02h-.018V12.1h-.02v-.039h-.019v-.019h-.019v-.019h-.019v-.019h-.019v-.02h-.02v-.037h-.018v-.02h-.02v-.018h-.018v-.02h-.02v-.019h-.019v-.038h-.019v-.02h-.019v-.018h-.019v-.02h-.02v-.018h-.018v-.039h-.02v-.019h-.019v-.019h-.019v-.019h-.019v-.02h-.019v-.037h-.019v-.02h-.019v-.019h-.02v-.019h-.018v-.019h-.02v-.038h-.019v-.02h-.019v-.018h-.019v-.02h-.019v-.018h-.019v-.039h-.019v-.019h-.02v-.019h-.018v-.02h-.02v-.018h-.019v-.038H64.4v-.02h-.019v-.019h-.019v-.02h-.019v-.019h-.02v-.038h-.018v-.02h-.02v-.018h-.018v-.02h-.02v-.019h-.019v-.038h-.019v-.019h-.019v-.019h-.019v-.02h-.02v-.018h-.018v-.038h-.02v-.02h-.018v-.019h-.02v-.019h-.019v-.019h-.019V10.8h-.019v-.02H64v-.018h-.02v-.02h-.018v-.019h-.02v-.038h-.018v-.019h-.02v-.019h-.019v-.02h-.019v-.018h-.019v-.039h-.019v-.019h-.02v-.019h-.018v-.019h-.02v-.019h-.018v-.038h-.02v-.02h-.019v-.018h-.019v-.02h-.019v-.019h-.019v-.038h-.02v-.019h-.018v-.019h-.02v-.02h-.019v-.018h-.019v-.038h-.019v-.02h-.019v-.019h-.019v-.019h-.019v-.019h-.02v-.038h-.018v-.02h-.02v-.018h-.018v-.02h-.02v-.038h-.019v-.019h-.019v-.019h-.019v-.02h-.02V9.94h-.018V9.9h-.02v-.02h-.018v-.019h-.02v-.019h-.019v-.019h-.019v-.038h-.019v-.02h-.019v-.018h-.02v-.02h-.018V9.71h-.02v-.038h-.018v-.019h-.02v-.019h-.019v-.02h-.019v-.018h-.019v-.038h-.019v-.02h-.02v-.019h-.018V9.5h-.02v-.02h-.018v-.038h-.02v-.02h-.019v-.018h-.019v-.02h-.019v-.019h-.019v-.038h-.02v-.019h-.018V9.29h-.02v-.02h-.018v-.018h-.02v-.038H62.7v-.02h-.019v-.019h-.019v-.019h-.019v-.019h-.02v-.038h-.018v-.02h-.02V9.06h-.019v-.02h-.019v-.019h-.019v-.038h-.019v-.019h-.019v-.02h-.019v-.018h-.02v-.02h-.018v-.038h-.02V8.85h-.018v-.02h-.02v-.019h-.019v-.019h-.019v-.038h-.019v-.02h-.019v-.018h-.02v-.02h-.018v-.019h-.02V8.64h-.019v-.02h-.019V8.6h-.019v-.018h-.019v-.02h-.019v-.038h-.02v-.019h-.018v-.019h-.02v-.019h-.018v-.019h-.02V8.41h-.019v-.02h-.019v-.018h-.019v-.02h-.019v-.019h-.02v-.038h-.018v-.019h-.02v-.02h-.018v-.018h-.02v-.02h-.019V8.18h-.019v-.019h-.019v-.019h-.019v-.019h-.02v-.02h-.018v-.037h-.02v-.02h-.018v-.018h-.02v-.02h-.019V7.97h-.019v-.019h-.019v-.02h-.019v-.018h-.02v-.02h-.018v-.038h-.02v-.019h-.018v-.019h-.02v-.019h-.019V7.78h-.019v-.038h-.019v-.02h-.019v-.018h-.02v-.02h-.018v-.019h-.02v-.038h-.019v-.019h-.019v-.02h-.019V7.57h-.019v-.02h-.019v-.038h-.019v-.019h-.02v-.019h-.018v-.019h-.02v-.019h-.018v-.038h-.02v-.02h-.019V7.36h-.019v-.02h-.019v-.02h-.02v-.038h-.018v-.019h-.02v-.02h-.018v-.018h-.02v-.02h-.019v-.038h-.019v-.019h-.019V7.13h-.019v-.02h-.02v-.019h-.018v-.038h-.02v-.02h-.018v-.018h-.02v-.02h-.019v-.019h-.019v-.038h-.019v-.02h-.019V6.9h-.02v-.02h-.018v-.018h-.02v-.039h-.018v-.019h-.02v-.019h-.019v-.019h-.019v-.02h-.019V6.71h-.019v-.02h-.02v-.02h-.018v-.019h-.02v-.019h-.019v-.038h-.019v-.02h-.019v-.018h-.019v-.02h-.019v-.018h-.019v-.039h-.02V6.46h-.018v-.019h-.02v-.019h-.019v-.02h-.019v-.037h-.019v-.02h-.019v-.019h-.019v-.019h-.019v-.019h-.02V6.25h-.018v-.02h-.02v-.018h-.018v-.02h-.02v-.018h-.019v-.039h-.019v-.019h-.019v-.019h-.02v-.019h-.018v-.02h-.02v-.037h-.018V6h-.02v-.019h-.019v-.019h-.019v-.019h-.019v-.038h-.019v-.02h-.02v-.018h-.018v-.02h-.02V5.81h-.018v-.019h-.02v-.019h-.019v-.019h-.019v-.02h-.019v-.037h-.019v-.02h-.02v-.019h-.018v-.019h-.02V5.62H59.7v-.038h-.02v-.02h-.019v-.018h-.019v-.02h-.019v-.018h-.019v-.039h-.02v-.019h-.018v-.019h-.02V5.41h-.018v-.02h-.02v-.037h-.019v-.02h-.019v-.019h-.019v-.019h-.019v-.019h-.02v-.038h-.018v-.02h-.02V5.2h-.018v-.02h-.02v-.018h-.019v-.039h-.019v-.019h-.019v-.019h-.019v-.019h-.02v-.02h-.018v-.037h-.02v-.02h-.019V4.97h-.019v-.02h-.019v-.019h-.019v-.038h-.019v-.02h-.019v-.018h-.02v-.02h-.018v-.019h-.02v-.038h-.019V4.76h-.019v-.02h-.019v-.02h-.019v-.018h-.019v-.038h-.02v-.02h-.018v-.019h-.02v-.019h-.018v-.019h-.02V4.55h-.019v-.02h-.02v-.018h-.019v-.02h-.019v-.019h-.02v-.038h-.018v-.019h-.02v-.019h-.018v-.02h-.02v-.018h-.019V4.32h-.019V4.3h-.019v-.019h-.019v-.019h-.02v-.019h-.018v-.038h-.02v-.02h-.018v-.018h-.02v-.02h-.019v-.019h-.019V4.09h-.019v-.019h-.019v-.019h-.02v-.02h-.018v-.018h-.02v-.038h-.018v-.02h-.02v-.019h-.019v-.019h-.019V3.9h-.019v-.038h-.019v-.02h-.02v-.018h-.018v-.02h-.02v-.038h-.019v-.019h-.019v-.019h-.019v-.02h-.019V3.69h-.019v-.04h-.019v-.02h-.02v-.019h-.018v-.019h-.02v-.019h-.018v-.038h-.02v-.02h-.019v-.018h-.019v-.02h-.019V3.46h-.02v-.038h-.018v-.019h-.02v-.019h-.018v-.02h-.02v-.018h-.019v-.038h-.019v-.02h-.019v-.019h-.019V3.25h-.02v-.02h-.018v-.038h-.02v-.02h-.018v-.018h-.02v-.02h-.019v-.019h-.019v-.038h-.019v-.019h-.019V3.04h-.02v-.02h-.018v-.018h-.02v-.038h-.018v-.02h-.02v-.019h-.019v-.019h-.019v-.019h-.019v-.038h-.019v-.02h-.02V2.81h-.018v-.02h-.02v-.019h-.018v-.038h-.02v-.019h-.019v-.02h-.019v-.018h-.019v-.02h-.019v-.038h-.02V2.6h-.018v-.02h-.02v-.019h-.018v-.019h-.02v-.038h-.019v-.02H57.1v-.018h-.019v-.02h-.019v-.038h-.02V2.39h-.018v-.038h-.02v-.02h-.019v-.037h-.019v-.02h-.019v-.038h-.019v-.038h-.019v-.057h-.019v-.039h-.02v-.057h-.018V1.97h-.02v-.096h-.019V1.51h.02v-.115h.019V1.32h.019v-.04h.019v-.058h.02v-.038h.018v-.057h.02v-.02h.018V1.07h.02v-.019h.019v-.038h.019v-.02h.019V.957h.019v-.02h.02V.918h.018v-.02h.02V.88h.018V.86h.02V.841h.019v-.02h.019V.804h.019v-.02h.019V.766h.02v-.02h.018v-.02h.02V.707h.038V.688h.019V.67h.019V.65h.019V.632h.019V.61h.038V.594h.02v-.02h.038v-.02h.019V.535h.038V.516h.019v-.02h.038V.479h.058v-.02h.038V.44h.038V.42h.057V.401h.077V.382h.076V.363h.383v.02h.114V.4h.058v.02h.057v.02h.057v.019h.058v.019h.019v.019h.038v.02h.038v.018h.02v.02h.038v.018h.038v.02h.019v.019h.019V.63h.02v.02h.018v.019h.02v.02h.018v.018h.02v.02h.019v.018h.019v.02h.019v.019h.019v.019h.02v.019h.018V.84h.02v.02h.018v.037h.02v.02h.019v.019h.019v.019h.019v.019h.019v.038h.02v.02h.018v.018h.02v.02h.018v.018h.02v.039h.019v.019h.019v.019h.019v.019h.019v.02h.02v.037h.018v.02h.02v.019h.018v.02h.02v.019h.019v.038h.019v.02h.019v.018h.019v.02h.02v.018h.018v.039h.02v.019h.018v.019h.02v.02h.019v.018h.019v.038h.019v.02h.019v.019h.02v.019h.018v.019h.02V1.7h.019v.02h.019v.018h.019v.02h.019v.019h.019v.038h.019v.019h.02v.019h.018v.02h.02v.018h.018v.038h.02v.02h.019v.019h.019v.019h.019v.019h.02v.038h.018v.02h.02v.018h.018v.02h.02v.019h.019v.038h.019v.019h.019v.019h.019v.02h.02v.037h.018v.02h.02v.019h.018v.019h.02v.019h.019v.038h.019v.02h.019v.018h.019v.02h.02v.018h.018v.039h.02v.019h.018v.019h.02v.02h.019v.018h.019v.04h.019v.02h.019v.019h.02v.019h.018v.019h.02v.038h.019v.02h.019v.018h.019v.02h.019v.019h.019v.038h.019v.019h.02v.019h.018v.02h.02v.018h.019v.038h.019v.02h.019v.019h.019V3h.019v.019h.019v.038h.02v.02h.018v.018h.02v.02h.018v.019h.02v.038h.019v.019h.019v.019h.019v.02h.02v.018h.018v.038h.02v.02h.018v.019h.02v.019h.019v.019h.019v.038h.019v.02h.019v.018h.02v.02h.018v.019h.02v.038h.018v.019h.02v.019h.019v.02h.019v.018h.019v.038h.019v.02h.02v.019h.018v.019h.02v.019h.018v.038h.02v.02h.019v.018h.019v.02h.019v.019h.019v.038h.02v.019h.018v.02h.02v.018h.018v.02h.02v.038h.019v.019h.019v.019h.019v.019h.019v.019h.02v.038h.018v.02h.02v.018h.018v.02h.02v.019h.019v.038h.019v.019h.019v.02h.019v.018h.02v.02h.018v.038h.02v.019h.019v.019h.019v.019h.019v.038h.019v.02h.019v.018h.019v.02h.02v.019h.018v.038h.02v.019h.018v.019h.02v.02h.019v.018h.019v.038h.019v.02h.02v.019h.018v.019h.02v.019h.018v.038h.02v.02h.019v.018h.019v.02h.019v.019h.019v.038h.02v.019h.018v.02h.02v.018h.018v.02h.02v.038h.019v.019h.019v.019h.019v.019h.019v.019h.02v.038h.018v.02h.02v.018h.018v.02h.02v.019h.019v.038h.019v.019h.019v.02h.019v.018h.02v.02h.018v.038h.02v.019h.019v.019h.019v.019h.019v.019h.019v.038h.019v.02h.019v.018h.02v.02h.018v.019h.02v.038h.019v.019h.019v.02h.019v.018h.019v.02h.019v.038h.019v.019h.02v.019h.018v.019h.02v.019h.018v.038h.02v.02h.019v.019h.019v.019h.019v.019h.02v.038h.018v.02h.02v.018h.018v.02h.02v.018h.019v.039h.019v.019h.019v.019h.019v.019h.02v.02h.018v.037h.02v.02h.018v.019h.02v.019h.019v.019h.019v.038h.019v.02h.019v.018h.02v.02h.018v.018h.02v.039h.018v.019h.02v.019h.019v.019h.019v.02h.019v.037h.019v.02h.02v.019h.018v.019h.02v.038h.018v.019h.02v.02h.019v.018h.019v.02h.019v.038H64v.019h.02v.019h.018v.019h.02v.019h.019v.038h.019v.02h.019v.018h.019v.02h.019v.019h.019v.038h.02v.02h.018v.018h.02v.02h.019v.018h.019v.039h.019v.019h.019v.019h.019v.019h.019v.02h.02v.037h.018v.02h.02v.019h.019v.019h.019v.019h.019v.038h.019v.02h.019V7.3h.02v.02h.018v.018h.02v.039h.018v.019h.02v.019h.019v.019h.019v.02h.019v.037h.019v.02h.02v.019h.018v.019h.02v.019h.018v.038h.02v.02h.019v.018h.019v.02h.019v.018h.019v.039h.02v.019h.018v.019h.02v.019h.018v.02h.02v.037h.019v.02h.019v.019h.019v.019h.019v.019h.02v.038h.018v.02h.02v.018h.019v.02h.019v.018h.019v.039h.019v.019h.019v.019h.019v.02h.02v.018h.018v.038h.02v.02h.018v.019h.02v.019h.019v.019h.019v.038h.019v.02h.019v.018h.02v.02h.018v.019h.02v.038h.019v.019h.019v.019h.019v.02h.019v.018h.019v.038h.02v.02h.018v.019h.02v.019h.018v.038h.02v.02h.019v.018h.019v.02h.019v.018h.019v.039h.02v.019h.018v.019h.02v.019h.018v.02h.02v.037h.019v.02h.019v.019h.019v.019h.019v.019h.02v.038h.018v.02h.02v.018h.018v.02h.02v.018h.019v.039h.019v.019h.019v.019h.019v.02h.02v.018h.018v.038h.02v.02h.019v.019h.019v.019h.019v.019h.019v.038h.019v.02h.019v.018h.02v.02h.018v.019h.02v.038h.019v.019h.019v.019h.019v.02h.019v.018h.019v.038h.019v.02h.02v.019h.018v.019h.02v.019h.018v.038h.02v.02h.019v.018h.019v.02h.019v.019h.02v.038h.018v.019h.02v.019h.018v.02h.02v.018h.019v.038h.019v.02h.019v.019h.019v.019h.02v.019h.018v.038h.02v.02h.018v.018h.02v.02h.019v.019h.019v.038h.019v.019h.019v.019h.02v.02h.018v.018h.02v.039h.018v.019h.02v.019h.019v.019H67v.019h.019v.038h.019v.02h.02v.018h.018v.02h.02v.019h.018v.038h.02v.019h.019v.02h.019v.018h.019v.02h.019v.037h.02v.02h.018v.019h.02v.019h.019v.019h.019v.038h.019v.02h.019v.018h.019v.02h.019v.038h.02v.019h.018v.019h.02v.02h.019v.018h.019v.039h.019v.019h.019v.019h.019v.019h.019v.019h.02v.038h.018v.02h.02v.018h.019v.02h.019v.019h.019v.038h.019v.019h.019v.019h.02v.02h.018v.018h.02v.039h.018v.019h.02v.019h.019v.019h.019v.019h.019v.038h.019v.02h.02v.018h.018v.02h.02v.019h.018v.038h.02v.019h.019v.02h.019v.018h.019v.02h.019v.037h.02v.02h.018v.019h.02v.019h.018v.019h.02v.038h.019v.02h.019v.018h.019v.02h.019v.019h.02v.038h.018v.019h.02v.02h.018v.018h.02v.02h.019v.038h.019v.019h.019v.019h.019v.019h.02v.019h.018v.038h.02v.02h.019v.018h.019v.02h.019v.019h.019v.038h.019v.019h.019v.02h.02v.018h.018v.02h.02v.038h.019v.019h.019v.019h.019v.019h.019v.02h.019v.037h.02v.02h.018v.019h.02v.019h.018v.019h.02v.038h.019v.02h.019v.018h.019v.02h.019v.018h.02v.039h.018v.019h.02v.019h.018v.019h.02v.02h.019v.037h.019v.02h.019v.018h.019v.02h.02v.019h.018v.038h.02v.02h.018v.018h.02v.02h.019v.038h.019v.019h.019v.019h.019v.019h.02v.019h.018v.038h.02v.02h.018v.018h.02v.02h.019v.019h.019v.038h.019v.019h.019v.02h.02v.018h.018v.02h.02v.038h.019v.019h.019v.019h.019v.019h.019v.019h.019v.038h.019v.02h.02v.019h.018v.019h.02v.019h.018v.038h.02v.02h.019v.018h.019v.02h.019v.018h.019v.039h.02v.019h.018v.019h.02v.019h.019v.02h.019v.037h.019v.02h.019v.018h.019v.02h.02v.019h.018v.038h.02v.02h.018v.018h.02v.02h.019v.018h.019v.039h.019v.019h.019v.019h.02v.019h.018v.02h.02v.037h.018v.02h.02v.019h.019v.019h.019v.019h.019v.038h.019v.02h.02v.018h.018v.02h.02v.018h.018v.039h.02v.019h.019v.019h.019v.019h.019v.02h.019v.037h.02v.02h.018v.019h.02v.019h.019v.019h.019v.038h.019v.02h.019v.018h.019v.02h.019v.018h.02v.039h.018v.019h.02v.019h.019v.02h.019v.018h.019v.038h.019v.02h.019v.019h.019v.019h.02v.019h.018v.038h.02v.02h.019v.018h.019v.02h.019v.019h.019v.038h.019v.019h.02v.019h.018v.02h.02v.037h.018v.02h.02v.019h.019v.019h.019v.019h.019v.038h.019v.02h.02v.018h.018v.02h.02v.018h.018v.039h.02v.019h.019v.019h.019v.019h.019v.02h.019v.037h.02v.02h.018v.019h.02v.019h.018v.019h.02v.038h.019v.02h.019v.018h.019v.02h.019v.018h.02v.039h.018v.019h.02v.019h.018v.02h.02v.018h.019v.038h.019v.02h.019v.019h.019v.019h.02v.019h.018v.038h.02v.02h.019v.018h.019v.02h.019v.018h.019v.039h.019v.019h.019v.019h.02v.02h.018v.018h.02v.038h.019v.02h.019v.019h.019v.019h.019v.019h.019v.038h.019v.02h.02v.018h.018v.02h.02v.019h.019v.038h.019v.019h.019v.019h.019v.02h.019v.018h.02v.038h.018v.02h.02v.019h.018v.019h.02v.019h.019v.038h.019v.02h.019v.018h.019v.02h.02v.019h.018v.038h.02v.019h.018v.02h.02v.018h.019v.02h.019v.038h.019v.019h.019v.019h.02v.019h.018v.019h.02v.038h.018v.02h.02v.018h.019v.02h.019v.019h.019v.038h.019v.019h.02v.02h.018v.018h.02v.02h.018v.037h.02v.02h.019v.019h.019v.019h.019v.038h.019v.02h.02v.018h.018v.02h.02v.019h.019v.038h.019v.019h.019v.019h.019v.02h.019v.018h.019v.038h.02v.02H73v.019h.02v.019h.019v.019h.019v.038h.019v.02h.019v.018h.019v.02h.02v.019h.018v.038h.02v.019h.018v.019h.02v.038h.019v.02h.019v.038h.019v.019h.019v.038h.02v.038h.018v.038h.02v.058h.018v.038h.02v.038h.019v.096h.019v.095h.019v.344h-.02v.096h-.018v.076h-.02v.058h-.019v.038h-.019v.057h-.019v.038h-.019v.039h-.019v.038h-.02v.02h-.018v.037h-.02v.02h-.019v.038h-.019v.019h-.019v.019h-.019v.019h-.019v.02h-.02v.018h-.018v.02h-.02v.018h-.018v.02h-.02v.019h-.019v.019H73v.019h-.019v.019h-.019v.02h-.02v.018h-.037v.02h-.02v.019h-.018v.019h-.02v.019h-.038v.019h-.019v.019h-.038v.019h-.02v.02h-.038v.018h-.019v.02h-.019v.018H72.6v.02h-.038v.019h-.058v.019h-.038v.019h-.076v.019h-.096v.02" fill="url(#paint4_linear)"/><path d="M71.873 14.392v-.019h-.19v-.02h-.077v-.018h-.058v-.02h-.057v-.018h-.057v-.02h-.038v-.019h-.039v-.019h-.019v-.019H71.3v-.019h-.038v-.02h-.038v-.018h-.02v-.02h-.019v-.019h-.019v-.019h-.019v-.019h-.038v-.019h-.02v-.019h-.018v-.02h-.02v-.018h-.019v-.02h-.019v-.037h-.019v-.02h-.019v-.019h-.02v-.019h-.018v-.038h-.02v-.02H70.9V13.8h-.02v-.039h-.019v-.038h-.019v-.038h-.019v-.038h-.019v-.058h-.02v-.057h-.018v-.076h-.02v-.153h-.018V1.07h.019V.917h.019V.86h.019V.803h.019V.745h.02V.707h.018V.67h.02V.63h.018V.592h.02V.554h.019V.516h.019v-.02h.019V.479h.019v-.02h.02V.42h.018V.401h.02V.382h.019V.363h.019V.344h.019v-.02h.019V.307h.019v-.02h.019V.269h.038v-.02h.02V.23h.019V.21h.019V.191h.038V.172h.038v-.02h.038V.135h.038v-.02h.039V.097h.038v-.02h.057v-.02h.077V.038h.057V.02h.172V0h.382v.02h.172v.018h.058v.02h.057v.018h.076v.02h.039v.019h.038v.019h.038v.019h.038v.019h.039v.02h.019V.21h.038v.02h.02v.018h.018v.02h.02v.019h.038v.019h.019v.019h.019v.019h.019v.02H73v.018h.02v.02h.018V.44h.02v.019h.019v.019h.019v.019h.019v.019h.019v.038h.019v.038h.019v.039h.02v.038h.018v.038h.02v.038h.019v.058h.019V.86h.019v.076h.019v.153h.019v12.214h-.02v.152h-.018v.058h-.02v.076h-.019v.058h-.019v.038h-.019v.038h-.019v.038h-.019v.039h-.02v.038h-.018v.019h-.02v.038h-.018v.02h-.02v.018h-.019v.02h-.019v.019h-.019v.038H73v.019h-.02v.02h-.018v.018h-.02v.02h-.037v.018h-.02v.02h-.019v.019h-.019v.019h-.019v.019h-.038v.019h-.038v.02h-.039v.018h-.019v.02h-.038v.018h-.038v.02h-.058v.019h-.057v.019h-.057v.019h-.096v.019h-.172v.02" fill="url(#paint5_linear)"/><path d="M77.436 19.897v-.019h-.172v-.02h-.057v-.018h-.058v-.02h-.057v-.018h-.057v-.02h-.039v-.019h-.057v-.019h-.038v-.019h-.038v-.019h-.039v-.02h-.038v-.018h-.038v-.02h-.038v-.018h-.02v-.02h-.038v-.019h-.038v-.019h-.019v-.019h-.02v-.02h-.018v-.018h-.02v-.02H76.5v-.018h-.019v-.02h-.019v-.019h-.019v-.019h-.019v-.038h-.02v-.02h-.018v-.018h-.02v-.02h-.018v-.038h-.02v-.019h-.019v-.038h-.019v-.038h-.019v-.038h-.019v-.039h-.02v-.038h-.018v-.038h-.02v-.057h-.019v-.077h-.019v-.057h-.019v-.23h-.019v-.019h.02v-.172h.018v-.095h.02v-.057h.019v-.077h.019v-.057h.019V18.1h.019v-.039h.02v-.057h.018v-.038h.02v-.039h.018v-.038h.02v-.057h.019v-.038h.019v-.039h.019V17.7h.019v-.038h.02v-.038h.018v-.039h.02v-.057h.018v-.038h.02v-.038h.019v-.058h.019v-.038h.019v-.038h.019v-.038h.02v-.058h.018v-.038h.02v-.038h.018v-.058h.02v-.038h.019v-.038h.019v-.038h.019v-.057h.019v-.039h.02v-.038h.018v-.057h.02v-.039h.019v-.038h.019v-.038h.019v-.057h.019v-.039h.019v-.038h.019v-.057h.02v-.038h.018V16.4h.02v-.038h.019v-.057h.019v-.038h.019v-.039h.019v-.057h.019v-.038h.02v-.038h.018v-.039h.02v-.057h.018v-.038h.02v-.038h.019v-.058h.019v-.038h.019v-.038h.019v-.038h.02v-.058h.018v-.038h.02v-.038h.018v-.058h.02v-.038h.019v-.038h.019v-.038h.019v-.058h.019v-.038h.02v-.038h.018v-.057h.02v-.039h.018v-.038h.02v-.038h.019v-.057h.019v-.039h.019v-.038h.019v-.057h.02v-.038h.018v-.039h.02v-.038h.019v-.057h.019v-.038h.019v-.039h.019v-.057h.019v-.038h.019v-.038h.02v-.039h.018v-.057h.02v-.038h.019v-.038h.019v-.058h.019v-.038h.019v-.038h.019v-.039h.019v-.057h.02v-.038h.018v-.038h.02v-.038h.018v-.058h.02v-.038h.019v-.038h.019v-.058h.019v-.038h.02v-.038h.018v-.038h.02v-.058h.018v-.038h.02v-.038h.019v-.057h.019v-.039h.019v-.038h.019v-.038h.02v-.057h.018v-.039h.02v-.038h.018v-.057h.02v-.039h.019v-.038h.019v-.038h.019v-.057h.019v-.038h.02v-.039h.018v-.057h.02v-.038h.018v-.038h.02v-.039h.019v-.057h.019v-.038h.019v-.039h.019v-.057h.02v-.038h.018v-.038h.02v-.038h.019v-.058h.019v-.038h.019v-.038h.019v-.058h.019v-.038h.019v-.038h.02v-.038h.018v-.058h.02v-.038h.019v-.038h.019v-.057h.019v-.039h.019v-.038h.019v-.038h.019v-.057h.02v-.039h.018v-.038h.02v-.057h.019v-.039h.019v-.038h.019v-.038h.019v-.057h.019v-.038h.02v-.039h.018v-.057h.02v-.038h.018v-.039h.02v-.038h.019v-.057h.019v-.04h.019v-.039h.019v-.057h.02v-.038h.018v-.038h.02v-.039h.018v-.057h.02v-.038h.019v-.038h.019v-.058h.019v-.038h.019v-.038h.02v-.038h.018v-.058h.02v-.038h.018v-.038h.02v-.058h.019v-.038h.019v-.038h.019v-.038h.019v-.058h.02v-.038h.018v-.038h.02v-.057h.018v-.039h.02v-.038h.019v-.038h.019v-.057h.019v-.039h.019V9.94h.02v-.038h.018v-.057h.02v-.039h.018v-.038h.02V9.71h.019v-.038h.019v-.039h.019v-.038h.019v-.057h.02V9.5h.018v-.04h.02v-.057h.019v-.038h.019v-.038h.019v-.039h.019v-.057h.019v-.038h.019v-.038h.02v-.058h.018V9.06h.02v-.038h.019v-.038h.019v-.058h.019v-.038h.019V8.85h.019v-.058h.02v-.038h.018v-.038h.02v-.038h.018V8.62h.02v-.038h.019v-.038h.019v-.057h.019v-.039h.019V8.41h.02v-.038h.018v-.057h.02v-.039h.018v-.038h.02v-.057h.019v-.038h.019v-.039h.019v-.038h.019V8.01h.02v-.04h.018v-.039h.02v-.057h.018v-.038h.02v-.038h.019V7.76h.019v-.057h.019v-.038h.019v-.038h.02v-.058h.018v-.038h.02v-.038h.019v-.039h.019v-.057h.019V7.36h.019v-.04h.019v-.058h.019v-.038h.02v-.038h.018v-.038h.02V7.09h.018v-.038h.02v-.038h.019v-.057h.019v-.039h.019V6.88h.019v-.038h.02v-.057h.018v-.039h.02V6.71h.019v-.057h.019v-.038h.019v-.039h.019v-.038h.019V6.48h.02v-.04h.018v-.038h.02v-.057h.018v-.038h.02v-.039h.019V6.23h.019v-.057h.019v-.038h.019v-.039h.02V6.04h.018v-.038h.02v-.038h.018v-.039h.02v-.057h.019V5.83h.019v-.038h.019v-.039h.019v-.057h.02v-.038h.018V5.62h.02v-.058h.018v-.038h.02v-.038h.019v-.038h.019V5.39h.019v-.038h.019v-.038h.02v-.058h.018v-.038h.02V5.18h.018v-.038h.02v-.058h.019v-.038h.019v-.038h.019v-.057h.019v-.039h.02v-.038h.018v-.038h.02v-.057h.019V4.74h.019v-.038h.019v-.057h.019v-.038h.019v-.039h.019V4.53h.02v-.057h.018v-.038h.02v-.039h.019V4.34h.019v-.038h.019v-.038h.019v-.039h.019v-.057h.019V4.13h.02v-.04h.018v-.058h.02v-.038h.018v-.038h.02v-.038h.019V3.86h.019v-.038h.019v-.038h.02v-.058h.018V3.69h.02v-.038h.018v-.038h.02v-.058h.019v-.038h.019V3.48h.019v-.057h.019v-.039h.02v-.038h.018v-.038h.02V3.25h.018v-.04h.02v-.038h.019v-.057h.019v-.038h.019v-.039h.019V3h.02v-.057h.018v-.038h.02v-.039h.018V2.81h.02v-.038h.019v-.038h.019v-.039h.019v-.057h.019V2.6h.02v-.038h.018v-.058h.02v-.038h.019v-.038h.019V2.39h.019v-.058h.019v-.038h.019v-.038h.019v-.058h.02V2.16h.018v-.038h.02v-.038h.019v-.058h.019v-.038h.019V1.95h.019v-.057h.019v-.039h.019v-.038h.02v-.038h.018V1.72h.02v-.039h.019v-.038h.019v-.038h.019v-.057h.019V1.51h.019v-.038h.02v-.057h.018v-.038h.02v-.039h.018V1.3h.02v-.057h.019v-.038h.019v-.039h.019v-.038h.019V1.09h.02v-.038h.018v-.039h.02V.994h.018V.956h.02v-.02h.019V.919h.019V.88h.019V.86h.019V.841h.02V.822h.018V.803h.02V.784h.018v-.02h.02V.747h.038v-.02h.019V.709h.019v-.02h.038V.67h.02V.65h.038V.631h.019V.612h.038v-.02h.038V.575h.038v-.02h.058V.537h.057v-.02h.057v-.02h.096V.478h.172V.46h.076v.02h.191v.018h.077v.02h.057v.019h.058v.019h.057v.019h.057v.019h.039v.019h.038v.02h.038V.65h.057v.02h.02v.018h.038v.02h.038v.019h.038v.019h.02v.019h.037v.019h.02v.02h.038v.018h.019v.02h.02V.86h.018v.02h.02v.019h.018v.019h.02v.019h.019v.019h.019v.02h.019v.037h.019v.02h.02v.019h.018v.019h.02v.038h.018v.038h.02v.038H86v.039h.019v.038h.019v.019h.019v.057h.02v.077h.018v.057h.02v.134h.018v.267h-.019v.134h-.019v.077h-.019v.057h-.019v.057h-.02v.058h-.018v.038h-.02v.038h-.019v.038h-.019v.058h-.019v.038h-.019v.038h-.019v.038h-.019V2.6h-.02v.038h-.018v.038h-.02v.058h-.018v.038h-.02v.038h-.019v.038h-.019v.058h-.019v.038h-.02v.038h-.018v.057h-.02v.039h-.018v.038h-.02v.038h-.019v.057h-.019v.039h-.019v.038h-.019v.057h-.02v.038h-.018v.039h-.02v.038h-.018v.057h-.02v.038h-.019v.039h-.019v.057h-.019v.038h-.019v.038h-.02v.039h-.018v.057h-.02v.038h-.018V3.9h-.02v.058h-.019v.038h-.019v.038h-.019v.038h-.019v.058h-.02v.038h-.018v.038h-.02v.058h-.018V4.3h-.02v.038h-.02v.038h-.019v.058h-.019v.038h-.019v.038h-.02v.057h-.018v.039h-.02v.038h-.019v.038h-.019v.057h-.019v.039h-.019v.038h-.019v.057h-.019v.038h-.02v.039h-.018v.038h-.02v.057h-.019v.038h-.019v.039h-.019v.057h-.019v.038h-.019v.038H84.7v.039h-.02v.057h-.018v.038h-.02v.038h-.019v.058h-.019v.038h-.019v.038h-.019V5.6h-.019v.057h-.02v.038h-.018v.038h-.02v.058h-.018v.038h-.02v.038h-.019v.038h-.019v.058h-.019v.038h-.019v.038h-.02v.057h-.018v.039h-.02v.038h-.018v.038h-.02v.057h-.019v.039h-.019v.038h-.019v.057h-.019v.038h-.02v.039h-.018v.038h-.02v.057h-.018v.039h-.02v.038h-.019v.057h-.019v.038h-.019v.039h-.019v.038h-.02v.057h-.018v.038h-.02v.039h-.018v.057h-.02v.038h-.019v.038h-.019v.039h-.019v.057h-.019v.038h-.02v.038h-.018v.058h-.02v.038h-.019v.038h-.019v.038h-.019v.058h-.019v.038h-.019v.038h-.019v.058h-.02v.038h-.018v.038h-.02v.038h-.019v.06h-.019v.038h-.019v.038h-.019v.057h-.019v.039h-.02v.038h-.018v.038h-.02v.057h-.018v.039h-.02v.038h-.019v.057H83.4v.038h-.019v.039h-.019v.038h-.02v.057h-.018v.038h-.02v.039h-.018v.057h-.02v.038h-.019v.038h-.019v.039h-.019v.057h-.019v.038h-.02v.038h-.018v.058h-.02v.038h-.018v.038h-.02v.038h-.019v.058h-.019v.038h-.019v.038h-.019v.038h-.02v.058h-.018v.038h-.02v.038h-.018v.058h-.02v.038h-.019v.038h-.019v.038h-.019V9.5h-.019v.038h-.02v.038h-.018v.057h-.02v.039h-.019v.038h-.019v.038h-.019v.057h-.019v.039h-.019v.038h-.019v.057h-.02v.038h-.018v.039h-.02v.038h-.018v.057h-.02v.038h-.019v.039h-.019v.057h-.019v.038h-.019v.038h-.02v.039h-.018v.057h-.02v.038h-.019v.038h-.019v.058h-.019v.038h-.019v.038h-.019v.038h-.02v.058h-.018v.038h-.02v.038h-.018v.058h-.02v.038h-.019v.038h-.019v.038h-.019v.058h-.019v.038h-.02v.038h-.018v.057h-.02v.039H82.1v.038h-.02v.038h-.019v.057h-.019v.039h-.019v.038h-.019v.057h-.02v.039h-.018v.038h-.02v.038h-.018v.057h-.02v.038h-.019v.039h-.019v.057h-.019v.038h-.019v.039h-.02v.038h-.018v.057h-.02v.038h-.019v.039h-.019v.057h-.019v.038h-.019v.038h-.019v.038h-.019v.058h-.02v.038h-.018v.038h-.02v.058h-.019v.038h-.019v.038h-.019v.038h-.019v.058h-.019v.038h-.019v.038h-.02v.057h-.018v.039h-.02v.038h-.019v.038h-.019v.058h-.019v.038h-.019v.038h-.019v.057h-.02v.039h-.018v.038h-.02v.038h-.018v.057h-.02v.038h-.019v.039h-.019v.057h-.019v.038h-.019v.039h-.02v.038h-.018v.057h-.02v.038h-.018v.039h-.02v.057h-.019v.038h-.019v.038h-.019v.039h-.019v.057h-.02v.038h-.018v.038h-.02v.058h-.018v.038h-.02v.038h-.019v.038h-.019v.058h-.019v.038h-.019v.038h-.02v.057h-.018v.039h-.02v.038h-.018v.038h-.02v.057h-.019v.039h-.019v.038h-.019v.057h-.019v.039h-.02v.038h-.018v.038h-.02v.057h-.019v.039h-.019v.038h-.019v.057h-.019v.038h-.019v.039h-.019v.038h-.02v.057h-.018v.038h-.02v.039h-.019v.057h-.019v.038h-.019v.038h-.019v.039h-.019v.057h-.02v.038h-.018v.038h-.02v.058h-.018v.038h-.02v.038h-.019v.038h-.019v.058h-.019v.038h-.019v.038h-.02v.058h-.018v.038h-.02v.038h-.018v.038h-.02v.058h-.019v.038h-.019v.038h-.019v.038h-.019v.058h-.02v.038h-.018v.038h-.02v.057h-.018v.039h-.02v.038h-.019v.038h-.019v.057h-.019v.039h-.019v.038h-.02v.057h-.018v.038h-.02v.039h-.018v.038h-.02v.057h-.019v.038h-.019v.039h-.019v.057h-.019v.038h-.02v.039h-.018v.038h-.02v.057h-.018v.038h-.02v.038h-.019v.058H79.5v.038h-.019v.038h-.019v.038h-.02v.058h-.018v.038h-.02v.038h-.019v.058h-.019v.038h-.019v.038h-.019v.038h-.019v.058h-.019v.038h-.02v.038h-.018v.057h-.02v.039h-.019v.038h-.019v.038h-.019v.057h-.019v.039h-.019v.038h-.02v.057H79.1v.038h-.02v.039h-.018v.038h-.02v.057h-.019v.038h-.019v.039h-.019v.057h-.019v.038h-.02v.039h-.018v.038h-.02v.057h-.018v.038h-.02v.038h-.019v.058h-.019v.038h-.019v.038h-.019v.038h-.02v.058h-.018v.038h-.02v.038h-.018v.058h-.02v.038h-.019v.038h-.019v.038h-.019v.058h-.019v.038h-.02v.038h-.018v.038h-.02v.02h-.019v.038h-.019v.038h-.019v.038h-.019v.02h-.019v.018h-.019v.02h-.02v.019h-.018v.019h-.02v.038h-.019v.02h-.019v.018h-.019v.02h-.019v.018h-.038v.02h-.02v.019h-.018v.019h-.04v.019h-.02v.019h-.019v.02h-.038v.018h-.038v.02h-.038v.018h-.039v.02h-.038v.019h-.076v.019h-.058v.019h-.076v.019h-.153v.02" fill="url(#paint6_linear)"/><path d="M92.243 19.897v-.019h-.172v-.02h-.057v-.018h-.077v-.02h-.057v-.018h-.038v-.02h-.038v-.019h-.039v-.019h-.038v-.019h-.038v-.019h-.02v-.02h-.037v-.018h-.02v-.02h-.019v-.018h-.038v-.02h-.019v-.019h-.02v-.019h-.018v-.019h-.02v-.02h-.018v-.018h-.02v-.02h-.019v-.018h-.019v-.039h-.019v-.019h-.019V19.4h-.02v-.038h-.018v-.02h-.02v-.037h-.019v-.039h-.019v-.038h-.019v-.019h-.019v-.057h-.019v-.039h-.019v-.038h-.02v-.038h-.018v-.057h-.02v-.039h-.019v-.038h-.019v-.057h-.019v-.038h-.019v-.039h-.019v-.038h-.02v-.057h-.018v-.038h-.02v-.039h-.018v-.057h-.02v-.038h-.019v-.038h-.019v-.039h-.019v-.057h-.019v-.038h-.02v-.038h-.018v-.058h-.02v-.038h-.018v-.038h-.02v-.038h-.019v-.058h-.019v-.038h-.019v-.038h-.019v-.058h-.02v-.038h-.018v-.038h-.02v-.038h-.018v-.058h-.02v-.038h-.019v-.038h-.019v-.057h-.019v-.039h-.019v-.038h-.02v-.038h-.018v-.057h-.02v-.039h-.018v-.038h-.02v-.057h-.019v-.038h-.019v-.039h-.019v-.038h-.019v-.057h-.02v-.038h-.018v-.039h-.02v-.057h-.019v-.038h-.019v-.038h-.019v-.039h-.019v-.057h-.019v-.038h-.019v-.038h-.02v-.058h-.018v-.038h-.02v-.038h-.018v-.039h-.02v-.057h-.019v-.038h-.019v-.038h-.019v-.058h-.02v-.038h-.018v-.038h-.02v-.038h-.018v-.058h-.02v-.038h-.019v-.038h-.019v-.057h-.019v-.039h-.019v-.038h-.02v-.038h-.018v-.057h-.02v-.039h-.018v-.038h-.02v-.057h-.019v-.038h-.019v-.039h-.019v-.038h-.019v-.057h-.02v-.038h-.018v-.039h-.02v-.057h-.018v-.038h-.02v-.039h-.019v-.038h-.019v-.057h-.019v-.038h-.019v-.039h-.02v-.057h-.018v-.038h-.02V15.1h-.018v-.038h-.02v-.058h-.019v-.038h-.019v-.038h-.019v-.058h-.019v-.038h-.02v-.038H89.3v-.038h-.02v-.058h-.019v-.038h-.019v-.038h-.019v-.057h-.019v-.039h-.019v-.038h-.019v-.038h-.02v-.057h-.018v-.039h-.02v-.038h-.019v-.057h-.019v-.039h-.019v-.038h-.019v-.038h-.019v-.057h-.019v-.038h-.02v-.039h-.018v-.057h-.02v-.038h-.019v-.038h-.019v-.039h-.019v-.057h-.019v-.038h-.019v-.039h-.02v-.057h-.018v-.038h-.02v-.038h-.018v-.039h-.02v-.057h-.019v-.038h-.019v-.038h-.019v-.039h-.019v-.057h-.02v-.038h-.018v-.038h-.02v-.058h-.018v-.038h-.02v-.038h-.019v-.038h-.019v-.058h-.019v-.038h-.019v-.038h-.02v-.057h-.018v-.039h-.02v-.038h-.018v-.038h-.02v-.058h-.019v-.038h-.019v-.038h-.019v-.057h-.019v-.038h-.02v-.039h-.018v-.038h-.02v-.057h-.018v-.039h-.02v-.038h-.019v-.057h-.019v-.038h-.019v-.039h-.019v-.038h-.02v-.057h-.018v-.038h-.02v-.039h-.019v-.057h-.019v-.038h-.019v-.038h-.019v-.039H88v-.057h-.019v-.038h-.02v-.038h-.018v-.058h-.02v-.038h-.019v-.038h-.019v-.038h-.019v-.058h-.019v-.038h-.019v-.038h-.02v-.058h-.018v-.038h-.02v-.038h-.018v-.038h-.02v-.058h-.019v-.038h-.019v-.038h-.019v-.057h-.019v-.039h-.02v-.038h-.018v-.038h-.02v-.057h-.018v-.039h-.02v-.038h-.019v-.057h-.019v-.038h-.019v-.039h-.019v-.038h-.02v-.057h-.018v-.038h-.02v-.039h-.018v-.057h-.02v-.038h-.019v-.038h-.019v-.039h-.019v-.057h-.019v-.038h-.02v-.039h-.018v-.057h-.02v-.038h-.018v-.038h-.02v-.038h-.019v-.058h-.019v-.038h-.019v-.038h-.019v-.058h-.02v-.038h-.018V9.73h-.02v-.04h-.018v-.058h-.02v-.038h-.019v-.038h-.019V9.5h-.019v-.04h-.019v-.038h-.02v-.038h-.018v-.057h-.02v-.039h-.019V9.25h-.019v-.057h-.019v-.038h-.019v-.039h-.019V9.08h-.019v-.057h-.02v-.038h-.018v-.039h-.02v-.057h-.019V8.85H86.7v-.038h-.019v-.039h-.019v-.057h-.019v-.038h-.02v-.039h-.018v-.057h-.02v-.038h-.018v-.038h-.02v-.039h-.019V8.41h-.019v-.038h-.019v-.038h-.019v-.058h-.02v-.038h-.018V8.2h-.02v-.038h-.018v-.058h-.02v-.038h-.019v-.038h-.019V7.97h-.019v-.039H86.3v-.038h-.02v-.038h-.018v-.057h-.02V7.76h-.018v-.038h-.02v-.057h-.019v-.038h-.019v-.039h-.019V7.55h-.019v-.057h-.02v-.039h-.018v-.038h-.02V7.36h-.019v-.04h-.019v-.039h-.019v-.038h-.019v-.057h-.019v-.038h-.019V7.11h-.02v-.057h-.018v-.038h-.02v-.038h-.019v-.039h-.019v-.057h-.019v-.038h-.019v-.038h-.019v-.039h-.019V6.71h-.02v-.038h-.018v-.038h-.02v-.058h-.018v-.038h-.02V6.5h-.019v-.04h-.019v-.058h-.019v-.038h-.02v-.038h-.018v-.058h-.02V6.23h-.018v-.038h-.02v-.038h-.019v-.058h-.019V6.06h-.019v-.038h-.019v-.057h-.02v-.039h-.018v-.038h-.02V5.85h-.018v-.057h-.02v-.039h-.019v-.038h-.019v-.057h-.019V5.62h-.019v-.04h-.02v-.038h-.018v-.057h-.02v-.038h-.018v-.039h-.02v-.057h-.019v-.038h-.019v-.038h-.019v-.039h-.019V5.18h-.02v-.038h-.018v-.038h-.02v-.058h-.018v-.038h-.02V4.97H85v-.038h-.019v-.058h-.019v-.038h-.019v-.038h-.02V4.74h-.018v-.038h-.02v-.038h-.019v-.038h-.019v-.058h-.019V4.53h-.019v-.038h-.019v-.057h-.019v-.039h-.02v-.038h-.018V4.32h-.02v-.057h-.019v-.039h-.019v-.038h-.019V4.13h-.019v-.04h-.019v-.039h-.019v-.038h-.02v-.057h-.018v-.038h-.02V3.88h-.019v-.057h-.019v-.038h-.019v-.038h-.019v-.039h-.019v-.057h-.02v-.038h-.018v-.038h-.02v-.058h-.018V3.48h-.02v-.038h-.019v-.038h-.019v-.058h-.019v-.038h-.019V3.27h-.02v-.06h-.018v-.038h-.02v-.038h-.018v-.038h-.02v-.058h-.019V3h-.019v-.038h-.019v-.057h-.019v-.039h-.02V2.83h-.018v-.038h-.02v-.057h-.018v-.039h-.02v-.038h-.019V2.6h-.019v-.038h-.019v-.039h-.019v-.038h-.02v-.057h-.018V2.39h-.02v-.04h-.018v-.057h-.02v-.038h-.019v-.038h-.019V2.16h-.019v-.076h-.019v-.058h-.02v-.095h-.018v-.402h.019v-.076h.019v-.057h.02v-.077h.018v-.038h.02v-.038h.018v-.038h.02v-.039h.019v-.038h.019V1.09h.019v-.02h.019v-.018h.02v-.039h.018V.994h.02V.975h.018V.956h.02V.918h.019v-.02h.038V.88h.019V.86h.02V.841h.018V.822h.02V.803h.018V.784h.02v-.02h.038V.747h.038v-.02h.038V.709h.02v-.02h.038V.67h.038V.65h.038V.631h.057V.612h.039v-.02h.038V.575h.057v-.02h.058V.537h.057v-.02h.057v-.02h.077V.478h.19V.46h.077v.02h.172v.018h.096v.02h.057v.019h.057v.019h.039v.019h.057v.019h.038v.019h.02v.02h.038V.65h.038v.02h.019v.018h.038v.02h.02v.019h.018v.019h.02v.019h.019v.019h.019v.02h.019v.018h.019v.02h.02V.86h.018v.02h.02v.019h.018v.019h.02v.038h.019v.02h.019v.018h.019v.038h.019v.039h.02v.038h.018v.02h.02v.037h.018v.058h.02v.038h.019V1.3h.019v.038h.019v.058h.019v.038h.02v.038h.018v.057h.02v.039h.019v.038h.019v.038h.019v.057h.019v.039h.019v.038h.019v.057h.02v.038h.018v.039h.02v.038h.019v.057h.019v.038h.019v.039h.019v.057h.019v.038h.019v.039h.02v.038h.018v.057h.02v.038h.019v.039h.019v.057h.019v.038h.019v.038h.019v.039h.02v.057h.018v.038h.02v.038h.018v.058h.02v.038h.019v.038h.019v.038h.019v.058h.019v.038h.02V3h.018v.057h.02v.039h.018v.038h.02v.038h.019v.058h.019v.038h.019v.038h.019v.057h.02v.039h.018v.038h.02v.038h.018v.057h.02v.039h.019v.038h.019v.057h.019v.038h.019v.039h.02v.038h.018v.057h.02v.038h.018v.039h.02v.057h.019v.038h.019v.038h.019v.039h.019v.057h.02v.038h.018v.038h.02v.058h.019v.038h.019v.038h.019v.038h.019v.058h.019v.038h.019v.038h.02v.058h.018v.038h.02v.038h.019v.038h.019v.058h.019v.038h.019v.038h.019v.057h.02v.039h.018v.038h.02v.038h.018v.057h.02v.039h.019v.038h.019v.057h.019v.038h.019v.039h.02v.038h.018v.057h.02v.038h.018v.039h.02v.057h.019v.038h.019v.038h.019v.039h.019v.057h.02v.038h.018v.038h.02v.058h.018v.038h.02v.038h.019v.038h.019v.058h.019v.038h.019v.038h.02v.038h.018v.058h.02v.038h.019v.038h.019v.058h.019v.038h.019v.038h.019v.038h.019v.058h.02v.038h.018v.038h.02v.057h.018v.039h.02v.038h.019v.038h.019v.057h.019v.039h.019v.038h.02V6.9h.018v.038h.02v.039h.019v.038h.019v.057h.019v.038h.019v.039h.019v.057h.02v.038h.018v.038h.02v.039h.018v.057h.02v.038h.019v.038h.019v.058h.019v.038h.019v.038h.02v.039h.018v.057h.02v.038h.018v.038h.02v.058h.019v.038h.019v.038h.019v.038h.019v.058h.02v.038h.018v.038h.02v.057h.018v.039h.02V8.2h.019v.038h.019v.057h.019v.039h.019v.038h.02v.057h.018v.038h.02v.039h.018v.038h.02V8.6h.019v.038h.019v.039h.019v.057h.019v.038h.02v.039h.018v.038h.02v.057h.019v.038h.019v.039h.019v.057h.019v.038h.019v.038h.019v.039h.02v.057h.018v.038h.02v.038h.019v.058h.019v.038h.019v.038h.019v.038h.019v.058h.019v.038h.02v.038h.018v.057h.02v.039h.018v.038h.02v.038h.019v.058h.019v.038h.019V9.9h.02v.057h.018v.039h.02v.038h.018v.038h.02v.057h.019v.038h.019v.039h.019v.057h.019v.038h.02v.039h.018v.038h.02v.057h.018v.038h.02v.039h.019v.057h.019v.038h.019v.038h.019v.039h.02v.057h.018v.038h.02v.038h.018v.058h.02v.038h.019v.038h.019v.038h.019v.058h.019v.038h.02v.038h.018v.057h.02v.039h.019v.038h.019v.038h.019v.058h.019v.038h.019v.038h.019v.038h.02v.058h.018v.038h.02v.038h.019v.057h.019v.039h.019v.038h.019v.038h.019v.057h.019v.039h.02v.038h.018v.057h.02v.038h.019v.039h.019v.038h.019v.057H91v.038h.019v.039h.02v.057h.018v.038h.02v.038h.018v.039h.02v.057h.019v.038h.019v.039h.019v.057h.019v.038h.02v.038h.018v.038h.02v.058h.018v.038h.02v.038h.019v.058h.019v.038h.019v.038h.019v.038h.02v.058h.018v.038h.02v.038h.018v.057h.02v.039h.019v.038h.019v.038h.019v.057h.019v.039h.02v.038h.018v.057h.02v.038h.018v.039h.02v.038h.019v.057h.019v.038h.019v.039h.019v.057h.02v.038h.018v.039h.02v.038h.018v.057h.02v.038h.019v.039h.019v.057h.019v.038h.019v.038h.02v.038h.018v.058h.02v.038h.019v.038h.019v.058h.019v.038h.019v.038h.019v.038h.019v.058h.02v.038h.018v.038h.02v.057h.019v.039h.019v.038h.019v.038h.019v.057h.019v.039h.02v.038h.018v.057h.02v.039h.018v.038h.02v.038h.019v.057h.019v.038h.019v.039h.019v.057h.02v.038h.018v.038h.02v.039h.018v.057h.02v.038h.019v.039h.019v.057h.019v.038h.019v.038h.02v.039h.018v.057h.02v.038h.018v.038h.02v.058h.019v.038h.019v.038h.019v.038h.019v.058h.02v.038h.018v.038h.02v.058h.019v.038h.019v.038h.019v.038h.019v.058h.019v.038h.019v.038h.02v.057h.018v.038h.02v.039h.019v.038h.019v.057h.019v.039h.019v.038h.019v.057h.019v.038h.02v.039h.018v.038h.02v.057h.018v.038h.02v.039h.019v.038h.019v.057h.019v.038h.02v.039h.018v.057h.02v.038h.018v.038h.02v.039h.019v.057h.019v.038h.019v.038h.019v.058h.02v.038h.018v.038h.02v.038h.018v.058h.02v.038h.019v.038h.019v.058h.019v.038h.019v.038h.02v.038h.018v.058h.02v.038h.018v.076h.02v.058h.019v.057h.019v.134h.019v.267h-.02v.134h-.018v.057h-.02v.077h-.019v.057h-.019v.038H93.6v.039h-.019v.038h-.019v.038h-.02v.038h-.018v.02h-.02v.019h-.019v.019h-.019v.038h-.019v.019h-.019v.02h-.019v.037h-.019v.02h-.038v.019h-.02v.019h-.018v.019h-.02v.019h-.019v.02h-.019v.018h-.038v.02h-.02v.018h-.037v.02h-.039v.019h-.019v.019h-.038v.019h-.038v.019h-.038v.02h-.039v.018h-.057v.02h-.038v.018h-.038v.02h-.058v.019h-.057v.019h-.057v.019h-.058v.019h-.172v.02" fill="url(#paint7_linear)"/><path d="M83.049 14.774v-.02h-.153v-.018h-.077v-.02h-.057v-.018h-.058v-.02h-.038v-.019h-.038v-.019h-.038v-.019h-.02v-.019h-.037v-.02h-.039v-.018h-.019v-.02h-.019v-.018h-.02v-.02h-.018v-.019h-.038v-.019h-.02v-.019h-.019v-.019h-.019v-.038h-.019v-.02h-.019v-.018h-.02v-.02h-.018v-.038h-.02v-.019h-.018v-.038h-.02V14.2h-.019v-.039h-.019v-.038h-.019v-.038h-.019v-.057h-.02v-.077h-.018v-.095h-.02v-.555h.02v-.095h.019v-.058h.019v-.076h.02v-.038h.018v-.039h.02v-.038h.019v-.038h.019V12.9h.019v-.038h.019v-.02h.019v-.038h.019v-.019h.02v-.019h.018v-.019h.02v-.02h.019v-.018h.019v-.02h.019v-.018h.019v-.02h.019v-.019h.02v-.019h.037v-.019h.02v-.019h.019v-.02h.038v-.018h.038v-.02h.038V12.5h.038v-.02h.039v-.019h.057v-.019h.057v-.019h.077v-.019h.172v-.02h3.918v.02h.191v.02h.057v.018h.058v.02h.057v.018h.058v.02h.038v.019h.019v.019h.038v.019h.038v.019h.038v.02h.02v.018h.019v.02h.019v.018h.019v.02h.038v.019h.02v.019h.018v.019h.02v.038h.019v.02h.019v.018h.019v.02h.019v.019h.02v.038h.018v.038h.02v.038h.018v.02h.02v.038h.019v.038h.019v.057h.019v.077h.019v.057h.02v.172h.018v.325h-.019v.172h-.019v.076h-.02v.058h-.018v.057h-.02v.038h-.018v.038h-.02v.039h-.019v.038h-.019v.02h-.019v.037h-.02v.02h-.018v.019h-.02v.038h-.018v.019h-.02v.019h-.019v.02h-.019v.018h-.019v.02h-.019v.019h-.02v.019h-.037v.019h-.02v.019h-.019v.019h-.019v.019h-.038v.02h-.038v.018h-.038v.02h-.038v.018h-.039v.02h-.057v.019h-.057v.019h-.058v.019h-.153v.019" fill="url(#paint8_linear)"/><path d="M115.868 20.03v-.019h-.134v-.019h-.057v-.019h-.057v-.019h-.058v-.019h-.038v-.02h-.038v-.018h-.038v-.02h-.039v-.018h-.019v-.02h-.038v-.019h-.019v-.019h-.019v-.019h-.038v-.02h-.02v-.018h-.019v-.02h-.019v-.018h-.038v-.039h-.019v-.019h-.019v-.019h-.019v-.019h-.019v-.02h-.02v-.037h-.019v-.02h-.019v-.018h-.019v-.039h-.019v-.038h-.019V19.4h-.019v-.038h-.019v-.02h-.019v-.057h-.02v-.057h-.019v-.058h-.019v-.076h-.019v-.172h-.019V1.3h.019v-.172h.019V1.07h.019v-.057h.019V.937h.02V.898h.019V.86h.019V.822h.019V.784h.019V.745h.019V.726h.019V.688h.019V.67h.019V.65h.02V.632h.019V.593h.019v-.02h.019V.554h.019V.535h.019V.516h.019V.497h.019v-.02h.039V.46h.019V.44h.019V.422h.019V.4h.038V.382h.019V.363h.038V.344h.039v-.02h.038V.307h.038v-.02h.038V.269h.058v-.02h.076V.23h.057V.21h.172V.191h.402v.02h.172v.018h.057v.02h.058v.019h.057v.019h.057v.019h.038v.019h.02v.02h.038v.018h.038v.02h.038V.4h.019v.02h.019v.02h.039v.019h.019v.019h.019v.019h.019v.02h.019v.018h.038v.038h.02v.02h.019v.019h.019V.63h.019v.038h.019v.02h.019v.018h.019v.038h.019v.039h.019v.019h.02V.84h.019v.038h.019v.038h.019v.058h.019v.057h.019v.077h.019v.114h.019v17.775h-.019v.134h-.019v.057h-.019v.058h-.019v.057h-.019v.038h-.019v.039h-.019v.038h-.02v.038h-.019v.038h-.019v.02h-.019v.038h-.019v.019h-.019v.019h-.019v.019h-.019v.038h-.019v.02h-.02v.018h-.019v.02h-.019v.019h-.019v.019h-.038v.019h-.019v.019h-.019v.02h-.02v.018h-.038v.02h-.019v.018h-.038v.02h-.038v.019h-.039v.019h-.038v.019h-.019v.02h-.076v.018h-.058v.02h-.057v.018h-.115v.02" fill="url(#paint9_linear)"/><defs><linearGradient id="paint0_linear" x1="19.01" y1="1.523" x2="32.856" y2="1.523" gradientUnits="userSpaceOnUse"><stop stop-color="#D10000"/></linearGradient><linearGradient id="paint1_linear" x1="19.01" y1="18.567" x2="32.856" y2="18.567" gradientUnits="userSpaceOnUse"><stop stop-color="#D10000"/></linearGradient><linearGradient id="paint2_linear" x1="19.01" y1="10.046" x2="32.856" y2="10.046" gradientUnits="userSpaceOnUse"><stop stop-color="#D10000"/></linearGradient><linearGradient id="paint3_linear" x1="57.323" y1="19.895" x2="57.323" y2="4.406" gradientUnits="userSpaceOnUse"><stop stop-color="#fff"/></linearGradient><linearGradient id="paint4_linear" x1="72.887" y1="19.49" x2="57.29" y2=".739" gradientUnits="userSpaceOnUse"><stop stop-color="#D10000"/></linearGradient><linearGradient id="paint5_linear" x1="72.025" y1="14.375" x2="72.025" y2=".013" gradientUnits="userSpaceOnUse"><stop stop-color="#fff"/></linearGradient><linearGradient id="paint6_linear" x1="76.976" y1="19.754" x2="85.345" y2=".633" gradientUnits="userSpaceOnUse"><stop stop-color="#fff"/></linearGradient><linearGradient id="paint7_linear" x1="92.869" y1="19.755" x2="84.499" y2=".634" gradientUnits="userSpaceOnUse"><stop stop-color="#fff"/></linearGradient><linearGradient id="paint8_linear" x1="82.057" y1="13.583" x2="88.042" y2="13.583" gradientUnits="userSpaceOnUse"><stop stop-color="#D10000"/></linearGradient><linearGradient id="paint9_linear" x1="116.14" y1="20.027" x2="116.14" y2=".202" gradientUnits="userSpaceOnUse"><stop stop-color="#D10000"/></linearGradient></defs></svg>