<svg width="60" height="60" fill="none" xmlns="http://www.w3.org/2000/svg"><path d="M30.004 0C13.434 0 0 13.432 0 30c0 16.568 13.434 30 30.004 30 .904 0 1.804-.04 2.7-.121a30.001 30.001 0 0 0 2.479-.332l.315-.056c15.235-2.843 25.798-16.819 24.373-32.25C58.446 11.812 45.502.006 30.004 0zm-2.41 57.894h-.071a27.724 27.724 0 0 1-2.316-.306c-.043-.008-.087-.013-.13-.021a27.89 27.89 0 0 1-2.222-.494l-.177-.045a27.887 27.887 0 0 1-2.12-.67c-.071-.025-.144-.048-.216-.075a27.477 27.477 0 0 1-2.015-.836c-.082-.037-.164-.072-.246-.111a25.32 25.32 0 0 1-1.907-.993l-.265-.15a28.385 28.385 0 0 1-1.8-1.146c-.089-.062-.179-.122-.267-.184a28.414 28.414 0 0 1-1.69-1.3l-.15-.132V43c.007-6.072 4.928-10.993 11.001-11h14.002c6.073.007 10.994 4.928 11.002 11v8.432l-.133.111c-.56.467-1.133.908-1.723 1.325-.078.055-.157.107-.235.16-.594.414-1.204.803-1.828 1.168l-.236.133c-.632.36-1.275.7-1.931 1.006a6.515 6.515 0 0 1-.227.1c-.666.307-1.343.59-2.031.843-.069.025-.138.047-.2.071-.7.251-1.411.478-2.13.673l-.172.043c-.734.194-1.475.36-2.224.495-.043.008-.086.013-.13.02-.765.134-1.538.238-2.317.307h-.07a28.111 28.111 0 0 1-4.826.007zm22.413-8.316V43c-.008-7.176-5.825-12.992-13.002-13H23.003c-7.177.008-12.993 5.824-13.002 13v6.577C-.77 38.585-.65 20.96 10.27 10.115 21.19-.73 38.818-.73 49.738 10.115c10.92 10.845 11.04 28.47.269 39.462v.001z" fill="#D10000"/><path d="M30.001 8C24.478 8 20 12.477 20 18s4.478 10 10.001 10c5.524 0 10.002-4.477 10.002-10-.006-5.52-4.48-9.994-10.002-10zm0 18a8 8 0 1 1 0-16 8 8 0 0 1 8.001 8 8.01 8.01 0 0 1-8 8z" fill="#D10000"/></svg>