<svg width="103" height="103" fill="none" xmlns="http://www.w3.org/2000/svg"><circle cx="51.445" cy="51.445" r="45.445" stroke="#D10000" stroke-width="12"/><path d="M22.518 32.649l-4.804 7.733-5.222 6.35 4.111 8.205 9.932 4.297 5.756-.077 7.039 4.248 2.846.616 1.057 2.17-2.45 5.692 8.083 2.979 3.164 11.094L69.36 71.35l3.476-4.96-3.431-2.14-3.678.631-3.277-5.438-3.667-2.463-16.64 2.853-8.893-6.658 1.351-3.686 6.18 2.395 8.866-9.229 3.35-2.719 4.739 3.964 6.132-3.13-1.608-5.073-3.626 2.717-4.561-4.44-3.255.734-4.372 1.84-3.523-2.668 2.19-5.103 3.37-1.828 4.42 1.214 5.64-1.13-4.557-3.962-10.116-.085-4.075 5.746-17.276 3.918zM78.965 43.5L65.433 18l8.293 3.866 5.24 9.7.806 6.127 3.235 1.998 3.034 17.718L83.007 68l-4.042-24.5z" stroke="#D10000"/></svg>