<svg width="22" height="11" fill="none" xmlns="http://www.w3.org/2000/svg"><path fill-rule="evenodd" clip-rule="evenodd" d="M21.364 5.5c0 3.033-2.425 5.5-5.406 5.5H4.24C2.103 11 .364 9.232.364 7.058c0-2.174 1.739-3.942 3.875-3.942h11.125c1.275 0 2.313 1.055 2.313 2.352s-1.038 2.353-2.313 2.353H8.843a.441.441 0 0 1-.438-.445c0-.246.196-.445.438-.445h6.521c.793 0 1.438-.656 1.438-1.463 0-.806-.645-1.462-1.438-1.462H4.24c-1.654 0-3 1.369-3 3.052s1.346 3.052 3 3.052h11.718c2.499 0 4.531-2.068 4.531-4.61 0-2.542-2.032-4.61-4.53-4.61H7.895a.441.441 0 0 1-.438-.445A.443.443 0 0 1 7.896 0h8.062c2.981 0 5.406 2.467 5.406 5.5z" fill="#BBB"/></svg>