<svg width="22" height="23" fill="none" xmlns="http://www.w3.org/2000/svg"><path d="M11 5.128A5.879 5.879 0 0 0 5.13 11c0 1.325.434 2.577 1.256 3.62.162.206.332.404.513.613l.01.012c.551.64 1.122 1.302 1.335 2.082.048.179.055.521.052.785v.449c0 .41.333.743.744.743h3.892c.41 0 .743-.333.743-.743v-.454c-.002-.345.015-.596.051-.727.215-.774.847-1.518 1.41-2.18l.024-.029c.163-.19.316-.371.456-.549A5.798 5.798 0 0 0 16.872 11a5.878 5.878 0 0 0-5.871-5.872zm3.447 8.575c-.123.155-.267.325-.42.505l-.03.035c-.657.773-1.403 1.65-1.705 2.742-.042.155-.09.387-.102.832H9.78c-.01-.473-.058-.716-.102-.88-.302-1.106-1.046-1.97-1.644-2.663l-.01-.012a16.542 16.542 0 0 1-.47-.561A4.326 4.326 0 0 1 6.615 11 4.39 4.39 0 0 1 11 6.615 4.39 4.39 0 0 1 15.386 11c0 .989-.325 1.923-.94 2.703zm-1.517 5.812H9.038a.743.743 0 0 0 0 1.486h3.892a.743.743 0 1 0 0-1.486zm-.973 1.695H10.01a.743.743 0 0 0 0 1.488h1.946a.743.743 0 0 0 0-1.487zm9.3-10.954h-2.565a.743.743 0 0 0 0 1.486h2.565a.743.743 0 0 0 0-1.486zM4.051 11a.743.743 0 0 0-.743-.744H.743a.743.743 0 0 0 0 1.486h2.565c.41 0 .743-.332.743-.743zm6.951-6.948c.41 0 .743-.333.743-.744V.743a.743.743 0 0 0-1.486 0v2.565c0 .41.333.744.743.744zm5.962 11.863a.743.743 0 0 0-1.051 1.05l1.813 1.814a.741.741 0 0 0 1.052 0c.29-.29.29-.76 0-1.05l-1.814-1.814zM5.034 6.086a.741.741 0 0 0 1.051 0c.29-.29.29-.76 0-1.051L4.273 3.222a.743.743 0 1 0-1.051 1.05l1.812 1.814zm.001 9.829l-1.813 1.813a.743.743 0 1 0 1.05 1.051l1.814-1.814a.743.743 0 1 0-1.051-1.05zm11.404-9.611a.74.74 0 0 0 .525-.218l1.813-1.813a.743.743 0 1 0-1.051-1.051l-1.813 1.813a.743.743 0 0 0 .526 1.269z" fill="#D10000"/></svg>