<svg width="22" height="18" fill="none" xmlns="http://www.w3.org/2000/svg"><path d="M18.357 12.961v-2.876h-1.055v2.3a.655.655 0 0 1-.654.652H3.58a.655.655 0 0 1-.653-.653V4.546c0-.36.295-.654.653-.654h7.477v-.67H2.623a.752.752 0 0 0-.75.749v9.74L0 15.957c0 .62.503 1.125 1.123 1.125h17.982c.62 0 1.123-.504 1.123-1.125l-1.872-2.248v-.749zm-6.743 3.746H8.616a.187.187 0 0 1-.187-.188c0-.104.083-.187.187-.187h2.997a.188.188 0 0 1 .001.375zm-4.588-.749l.572-.686h5.033l.572.686H7.026z" fill="#D10000"/><path d="M10.45 8.75H8.885v1.563h1.565V8.75zm.98-2.15H9.864v1.565h1.564V6.6zm1.538 1.963h-1.564v1.564h1.564V8.563zm1.536-2.6h-1.856V7.82h1.856V5.963zM17.128.275h-1.855V2.13h1.855V.275zm-3.367 3.356h-1.856v1.856h1.856V3.631zm3.712-.794h-2.65v2.651h2.65v-2.65zm2.537 3.196h-3.207V9.24h3.206V6.033zM22 0h-3.983v3.984H22V0zm-5.8 8.033h-1.855v1.856H16.2V8.033z" fill="#D10000"/></svg>