<svg width="23" height="24" fill="none" xmlns="http://www.w3.org/2000/svg"><path d="M22.305 10.054l-1.406-2.436a.704.704 0 0 0-.96-.257l-1.04.6a4.884 4.884 0 0 0-.668-.389V6.375a.703.703 0 0 0-.703-.703h-2.813a.703.703 0 0 0-.703.703v1.197a4.905 4.905 0 0 0-.668.389L11.18 6.77a4.309 4.309 0 0 0 0-.791l1.023-.59a.703.703 0 0 0 .257-.961l-1.406-2.436a.703.703 0 0 0-.96-.257l-1.04.6a4.876 4.876 0 0 0-.668-.389V.703A.703.703 0 0 0 7.684 0H4.871a.703.703 0 0 0-.703.703v1.244a4.88 4.88 0 0 0-.668.389l-1.039-.6a.703.703 0 0 0-.96.257L.094 4.43a.703.703 0 0 0 .258.96l1.023.59a4.288 4.288 0 0 0 0 .791l-1.023.59a.703.703 0 0 0-.258.961l1.407 2.436a.703.703 0 0 0 .96.257l1.039-.6c.213.148.436.277.668.388v2.395a4.905 4.905 0 0 0-.668.389l-1.039-.6a.703.703 0 0 0-.96.257L.094 15.679a.703.703 0 0 0 .258.96l1.023.59a4.291 4.291 0 0 0 0 .791l-1.023.59a.703.703 0 0 0-.258.961l1.407 2.436a.703.703 0 0 0 .96.257l1.039-.6c.213.148.436.277.668.388v1.245c0 .388.315.703.703.703h2.813a.703.703 0 0 0 .703-.703v-1.245a4.88 4.88 0 0 0 .668-.388l1.04.6a.703.703 0 0 0 .96-.257l1.406-2.436a.703.703 0 0 0-.257-.96l-1.023-.59a4.308 4.308 0 0 0 0-.791l2.163-1.19c.213.147.436.276.668.387v1.198c0 .388.315.703.703.703h2.813a.703.703 0 0 0 .703-.703v-1.198a4.7 4.7 0 0 0 .668-.388l1.04.6a.704.704 0 0 0 .96-.257l1.406-2.436a.704.704 0 0 0-.257-.96l-1.023-.59a4.31 4.31 0 0 0 0-.791l1.023-.59a.703.703 0 0 0 .257-.961zm-11.087 2.341l-2.162 1.19a4.88 4.88 0 0 0-.669-.388v-2.394a4.88 4.88 0 0 0 .668-.389l2.163 1.19a4.276 4.276 0 0 0 0 .791zm-7.207-3.36a.703.703 0 0 0-.808-.073l-.836.483-.703-1.218.824-.476a.703.703 0 0 0 .34-.737 3.472 3.472 0 0 1-.066-.639c0-.194.021-.397.066-.64A.703.703 0 0 0 2.488 5l-.824-.476.703-1.218.837.483a.7.7 0 0 0 .808-.074 3.49 3.49 0 0 1 1.096-.636c.28-.1.467-.365.467-.663v-1.01H6.98v1.01c0 .297.187.562.467.662.399.142.768.356 1.096.636.226.194.55.223.808.074l.837-.483.703 1.218-.824.476a.703.703 0 0 0-.34.737c.044.242.065.445.065.639s-.02.397-.065.64a.703.703 0 0 0 .34.736l.824.476-.703 1.218-.837-.483a.703.703 0 0 0-.808.074 3.49 3.49 0 0 1-1.096.636.703.703 0 0 0-.467.663v.962H5.575v-.963a.703.703 0 0 0-.467-.662 3.49 3.49 0 0 1-1.097-.636zm5.717 7.95c.044.243.065.446.065.64s-.02.397-.065.64a.703.703 0 0 0 .34.736l.824.476-.703 1.218-.837-.483a.703.703 0 0 0-.808.074 3.49 3.49 0 0 1-1.096.636.703.703 0 0 0-.467.663v1.009H5.575v-1.01a.703.703 0 0 0-.467-.662 3.489 3.489 0 0 1-1.096-.636.703.703 0 0 0-.808-.074l-.837.483-.703-1.218.824-.476a.703.703 0 0 0 .34-.737 3.468 3.468 0 0 1-.066-.639c0-.194.021-.397.066-.64a.703.703 0 0 0-.34-.736l-.824-.476.703-1.218.837.483a.7.7 0 0 0 .808-.074 3.49 3.49 0 0 1 1.096-.636c.28-.1.467-.365.467-.663v-.962H6.98v.962c0 .298.187.563.467.663.399.142.768.356 1.096.636.226.194.55.223.808.074l.837-.483.703 1.218-.824.476a.703.703 0 0 0-.34.737zm9.843-5.624c.045.242.066.445.066.639s-.02.397-.066.64a.703.703 0 0 0 .34.736l.824.476-.703 1.218-.836-.483a.703.703 0 0 0-.808.074 3.49 3.49 0 0 1-1.096.636.703.703 0 0 0-.467.663v.962h-1.407v-.963a.703.703 0 0 0-.467-.662 3.489 3.489 0 0 1-1.096-.636.703.703 0 0 0-.808-.074l-.912.527-.703-1.218.9-.52a.703.703 0 0 0 .34-.737 3.473 3.473 0 0 1-.066-.639c0-.194.02-.397.066-.64a.703.703 0 0 0-.34-.736l-.9-.52.703-1.218.912.527a.7.7 0 0 0 .808-.074 3.49 3.49 0 0 1 1.096-.636c.28-.1.467-.365.467-.663v-.962h1.407v.962c0 .298.187.563.467.663.399.142.767.356 1.096.636.226.194.55.223.808.074l.836-.483.703 1.218-.824.476a.703.703 0 0 0-.34.737z" fill="#D10000"/></svg>