<svg width="18" height="18" fill="none" xmlns="http://www.w3.org/2000/svg"><path d="M17.297 16.594H9.703v-1.298c3.858-.349 6.961-3.588 6.961-7.632A7.66 7.66 0 0 0 9 0a7.66 7.66 0 0 0-7.664 7.664c0 2.047.797 3.972 2.245 5.42a7.605 7.605 0 0 0 4.716 2.212v1.298H.703a.703.703 0 1 0 0 1.406h16.594a.703.703 0 0 0 0-1.406zM15.218 6.96h-2.716c-.065-1.657-.383-3.624-1.14-5.091a6.274 6.274 0 0 1 3.856 5.09zm-2.716 1.406h2.716a6.274 6.274 0 0 1-3.855 5.091c.756-1.468 1.075-3.436 1.139-5.09zM9 1.407c1.371 0 2.03 4.02 2.095 5.554h-4.19C6.987 5.01 7.742 1.406 9 1.406zm-6.218 6.96h2.716c.065 1.657.383 3.624 1.14 5.091a6.274 6.274 0 0 1-3.856-5.09zm2.716-1.406H2.782A6.274 6.274 0 0 1 6.637 1.87c-.756 1.468-1.075 3.436-1.139 5.09zM9 13.92c-1.371 0-2.03-4.02-2.095-5.554h4.19c-.082 1.945-.836 5.555-2.095 5.555z" fill="#D10000"/></svg>