<svg width="43" height="43" fill="none" xmlns="http://www.w3.org/2000/svg"><path fill-rule="evenodd" clip-rule="evenodd" d="M41 21.5C41 32.27 32.27 41 21.5 41S2 32.27 2 21.5 10.73 2 21.5 2 41 10.73 41 21.5zm2 0C43 33.374 33.374 43 21.5 43S0 33.374 0 21.5 9.626 0 21.5 0 43 9.626 43 21.5zm-18.854-4.534l1.94-3.265c.19.055.389.094.597.094a2.165 2.165 0 1 0-1.538-.643l-1.934 3.255c.332.15.646.338.935.559zm-6.177.172l-1.46-1.38c.17-.309.276-.658.276-1.036a2.165 2.165 0 1 0-2.165 2.166 2.15 2.15 0 0 0 1.145-.334l1.457 1.378a5.02 5.02 0 0 1 .747-.794zm12.866 2.56c-.931 0-1.72.592-2.026 1.417l-2.696-.266.002.03.002.03c0 .351-.04.694-.11 1.026l2.695.266a2.161 2.161 0 0 0 4.297-.338 2.164 2.164 0 0 0-2.164-2.165zm-7.436 8.514l-.602-2.633a4.94 4.94 0 0 1-1.063.246l.603 2.633a2.158 2.158 0 0 0 .998 4.077 2.163 2.163 0 0 0 2.164-2.164 2.16 2.16 0 0 0-2.1-2.159zm-7.068-6.258l-3.355 1.124A2.163 2.163 0 0 0 9 24.259a2.166 2.166 0 0 0 4.33 0c0-.03-.003-.06-.007-.09a.982.982 0 0 1-.007-.055l3.365-1.127a4.952 4.952 0 0 1-.35-1.033zm4.839 2.668a3.713 3.713 0 1 0 0-7.426 3.713 3.713 0 0 0 0 7.426z" fill="#D10000"/></svg>