<svg width="43" height="43" fill="none" xmlns="http://www.w3.org/2000/svg"><path fill-rule="evenodd" clip-rule="evenodd" d="M41 21.5C41 32.27 32.27 41 21.5 41S2 32.27 2 21.5 10.73 2 21.5 2 41 10.73 41 21.5zm2 0C43 33.374 33.374 43 21.5 43S0 33.374 0 21.5 9.626 0 21.5 0 43 9.626 43 21.5zm-28-9.989c0-.831.68-1.511 1.512-1.511h9.976c.832 0 1.512.68 1.512 1.511v19.356c0 .832-.68 1.512-1.512 1.512h-9.976c-.832 0-1.512-.68-1.512-1.513V11.511zm8.279-.238a.183.183 0 0 0-.183-.184h-3.192a.183.183 0 0 0 0 .367h3.192a.183.183 0 0 0 .183-.183zm-2.535 19.593a.756.756 0 1 0 1.512.002.756.756 0 0 0-1.512-.002zm-4.692-18.469v17.184h10.896V12.397H16.052z" fill="#D10000"/></svg>