<svg width="46" height="46" fill="none" xmlns="http://www.w3.org/2000/svg"><path fill-rule="evenodd" clip-rule="evenodd" d="M14 14.983c0-.543.44-.983.983-.983h17.034c.543 0 .983.44.983.983v17.034c0 .543-.44.983-.983.983H14.983a.983.983 0 0 1-.983-.983V14.983zm18.345 8.19v-8.19a.328.328 0 0 0-.328-.328h-8.19v2.482c.313-.125.647-.19.983-.189 1.265 0 2.294.882 2.294 1.966s-1.03 1.965-2.294 1.965a2.603 2.603 0 0 1-.982-.189v2.482h3.039a.327.327 0 0 1 .262.524 1.852 1.852 0 0 0-.353 1.114c0 .904.587 1.638 1.31 1.638.723 0 1.31-.735 1.31-1.638a1.85 1.85 0 0 0-.353-1.113.328.328 0 0 1 .262-.525h3.04zm-17.362-8.518a.328.328 0 0 0-.328.328v8.19h2.482a2.616 2.616 0 0 1-.189-.983c0-1.265.882-2.293 1.966-2.293s1.965 1.029 1.965 2.293c.001.336-.063.67-.189.982h2.482v-3.039a.328.328 0 0 1 .525-.262c.323.235.714.359 1.113.353.903 0 1.638-.587 1.638-1.31 0-.723-.735-1.31-1.638-1.31-.4-.006-.79.118-1.113.353a.328.328 0 0 1-.525-.262v-3.04h-8.19zm-.328 9.173v8.19c0 .18.147.327.328.327h8.19v-2.482c-.313.125-.647.19-.983.189-1.265 0-2.294-.882-2.294-1.966s1.03-1.965 2.294-1.965c.336-.001.67.063.982.189v-2.482h-3.039a.327.327 0 0 1-.262-.524 1.85 1.85 0 0 0 .353-1.114c0-.904-.587-1.638-1.31-1.638-.723 0-1.31.735-1.31 1.638-.006.4.118.79.353 1.113a.328.328 0 0 1-.262.525h-3.04zm17.362 8.517a.328.328 0 0 0 .328-.328v-8.19h-2.482c.125.313.19.647.189.983 0 1.265-.882 2.293-1.966 2.293s-1.965-1.029-1.965-2.293c-.001-.336.063-.67.189-.982h-2.482v3.039a.328.328 0 0 1-.525.262 1.854 1.854 0 0 0-1.113-.353c-.903 0-1.638.587-1.638 1.31 0 .723.735 1.31 1.638 1.31.4.006.79-.118 1.113-.353a.328.328 0 0 1 .525.262v3.04h8.19z" fill="#fff"/><circle cx="23" cy="23" r="22" stroke="#E2E2E2" stroke-width="2"/></svg>