<svg width="46" height="46" fill="none" xmlns="http://www.w3.org/2000/svg"><path d="M26.689 23.034a.406.406 0 1 1 .812 0 .406.406 0 0 1-.812 0zm-7.384 7.384a.406.406 0 1 1 .812 0 .406.406 0 0 1-.812 0zm6.354-6.522l-5.086 5.085a.406.406 0 1 0 .575.575l5.085-5.086a.406.406 0 1 0-.575-.574z" fill="#fff"/><path fill-rule="evenodd" clip-rule="evenodd" d="M33.301 18.823a.406.406 0 0 0-.38.11l-1.685 1.697h-.807l-.89-.921v-.819l1.661-1.685a.406.406 0 0 0-.16-.67 4.054 4.054 0 0 0-1.297-.212 4.019 4.019 0 0 0-3.3 1.693 4.016 4.016 0 0 0-.627 3.423l-7.7 7.7a4.02 4.02 0 0 0-3.424.628A4.018 4.018 0 0 0 13 33.065c0 .444.071.88.212 1.298a.395.395 0 0 0 .13.187.406.406 0 0 0 .543-.03l1.685-1.699h.812l.926.926v.812l-1.698 1.685a.406.406 0 0 0 .156.673c.417.14.854.212 1.298.212a4.018 4.018 0 0 0 3.298-1.692 4.018 4.018 0 0 0 .628-3.425l2.958-2.958c0 .004.001.005.003.002a.09.09 0 0 0 .01-.014l4.729-4.73a4.068 4.068 0 0 0 4.905-5.224.406.406 0 0 0-.294-.265zm-5.014 4.743l-8.044 8.044a.406.406 0 0 0-.098.417 3.218 3.218 0 0 1-.443 2.935 3.214 3.214 0 0 1-2.993 1.335L18 35.017a.406.406 0 0 0 .12-.289v-1.15a.406.406 0 0 0-.119-.287l-1.163-1.163a.407.407 0 0 0-.288-.12H15.4a.407.407 0 0 0-.288.12l-1.28 1.291a3.314 3.314 0 0 1-.02-.354c0-1.058.494-2.02 1.354-2.638a3.217 3.217 0 0 1 2.936-.444c.147.05.308.012.417-.097l8.044-8.044c.11-.11.147-.27.098-.417a3.217 3.217 0 0 1 .443-2.935 3.215 3.215 0 0 1 2.639-1.355c.122 0 .244.007.365.02l-1.264 1.283a.404.404 0 0 0-.117.285v1.15c0 .105.04.207.114.282l1.123 1.164c.076.08.182.124.292.124h1.15a.406.406 0 0 0 .288-.12l1.28-1.29a3.255 3.255 0 0 1-4.27 3.436.407.407 0 0 0-.417.097z" fill="#fff"/><path d="M24.276 13.044a.325.325 0 1 0 0 .65.325.325 0 0 0 0-.65zM18.37 18.95a.325.325 0 1 0-.001.651.325.325 0 0 0 0-.65zm.688-.823l4.069-4.068a.325.325 0 0 1 .46.46l-4.069 4.068a.325.325 0 1 1-.46-.46z" fill="#fff"/><path fill-rule="evenodd" clip-rule="evenodd" d="M28.937 10.088a.325.325 0 0 1 .539.125 3.255 3.255 0 0 1-3.924 4.179l-3.784 3.784-.007.011c-.002.002-.002.001-.002-.002l-2.367 2.367a3.215 3.215 0 0 1-.502 2.74 3.214 3.214 0 0 1-2.639 1.353 3.23 3.23 0 0 1-1.038-.17.325.325 0 0 1-.125-.538l1.358-1.348v-.65l-.74-.74h-.65l-1.348 1.358a.325.325 0 0 1-.538-.125 3.24 3.24 0 0 1-.17-1.038c0-1.059.493-2.02 1.354-2.638a3.215 3.215 0 0 1 2.74-.503l6.16-6.16a3.213 3.213 0 0 1 .5-2.738A3.215 3.215 0 0 1 26.395 8c.355 0 .705.057 1.038.17a.325.325 0 0 1 .128.536l-1.328 1.348v.655l.71.737h.647l1.348-1.358zM18.795 20.23l6.435-6.435a.326.326 0 0 1 .333-.079 2.604 2.604 0 0 0 3.416-2.749L27.956 12a.324.324 0 0 1-.23.096h-.92a.325.325 0 0 1-.234-.099l-.898-.93a.325.325 0 0 1-.092-.227v-.92a.324.324 0 0 1 .094-.227l1.011-1.027a2.572 2.572 0 0 0-2.403 1.068 2.574 2.574 0 0 0-.354 2.348.323.323 0 0 1-.078.333l-6.435 6.436a.325.325 0 0 1-.334.078 2.574 2.574 0 0 0-2.349.355 2.57 2.57 0 0 0-1.068 2.393l1.025-1.032a.325.325 0 0 1 .23-.096h.92c.087 0 .17.034.23.095l.931.93a.325.325 0 0 1 .095.23v.92c0 .087-.034.17-.096.231l-1.032 1.025a2.571 2.571 0 0 0 2.394-1.068c.495-.69.625-1.546.354-2.349a.325.325 0 0 1 .079-.333z" fill="#fff"/><circle cx="23" cy="23" r="22" stroke="#E2E2E2" stroke-width="2"/></svg>