<svg width="46" height="46" fill="none" xmlns="http://www.w3.org/2000/svg"><path d="M31.829 20.538c-.638-3.558-3.81-6.263-7.626-6.263V13c4.55 0 8.315 3.29 8.95 7.575l.014-.013.833.98-1.373 1.121-1.56-1.092.755-1.038.007.005z" fill="#F4F4F4"/><path fill-rule="evenodd" clip-rule="evenodd" d="M23.5 22.315c1.426 0 2.58-1.125 2.58-2.512s-1.154-2.512-2.58-2.512c-1.424 0-2.579 1.125-2.579 2.512s1.155 2.512 2.58 2.512zm0-1.275c.715 0 1.28-.562 1.28-1.237s-.565-1.237-1.28-1.237c-.713 0-1.278.562-1.278 1.237s.565 1.237 1.279 1.237zm-1.933 1.275l2.054 2.842 1.933-2.842h1.933v5.937h-7.973v-5.937h2.053zm4.619 1.37v3.292h-2.239l2.239-3.292zm-2.844 3.292h-2.527V23.59h.08l2.447 3.387z" fill="#F4F4F4"/><path d="M15.934 24.429l-1.56-1.092L13 24.457l.833.98.014-.012c.635 4.285 4.4 7.575 8.95 7.575v-1.275c-3.817 0-6.988-2.705-7.626-6.263l.007.005.756-1.038z" fill="#F4F4F4"/><circle cx="23" cy="23" r="22" stroke="#E2E2E2" stroke-width="2"/></svg>