<svg width="46" height="46" fill="none" xmlns="http://www.w3.org/2000/svg"><path fill-rule="evenodd" clip-rule="evenodd" d="M32 19.014a4.007 4.007 0 0 1-4 4.014c-2.209 0-4-1.797-4-4.014A4.007 4.007 0 0 1 28 15c2.21 0 4 1.797 4 4.014zm-1.21 0c0 1.666-1.327 2.88-2.79 2.88s-2.79-1.214-2.79-2.88 1.327-2.88 2.79-2.88 2.79 1.214 2.79 2.88zm-6.184 4.014l3.606 4.295 3.394-4.295H35V32H21v-1.417h-9v-6.61h2.576l2.576 3.164 2.424-3.165H21v-.944h3.606zm7.61 1.133h1.573v6.706H22.21V24.16h1.808l4.223 5.03 3.975-5.03zm-12.019.944l-3.016 3.938-3.205-3.938h-.766v4.345h7.58v-4.345h-.593z" fill="#F4F4F4"/><path fill-rule="evenodd" clip-rule="evenodd" d="M17 23.972c1.657 0 3-1.268 3-2.833 0-1.565-1.343-2.834-3-2.834s-3 1.269-3 2.834c0 1.565 1.343 2.833 3 2.833zm0-1.133c.979 0 1.79-.752 1.79-1.7s-.811-1.7-1.79-1.7c-.978 0-1.79.752-1.79 1.7s.812 1.7 1.79 1.7z" fill="#F4F4F4"/><circle cx="23" cy="23" r="22" stroke="#E2E2E2" stroke-width="2"/></svg>