<svg width="43" height="43" fill="none" xmlns="http://www.w3.org/2000/svg"><path fill-rule="evenodd" clip-rule="evenodd" d="M21.5 41C32.27 41 41 32.27 41 21.5S32.27 2 21.5 2 2 10.73 2 21.5 10.73 41 21.5 41zm0 2C33.374 43 43 33.374 43 21.5S33.374 0 21.5 0 0 9.626 0 21.5 9.626 43 21.5 43zm2.713-12.66c-.364-.268-.403-.67-.403-.67l-.136-.873h-4.35l-.137.872s-.038.403-.402.67c-.364.268-.65.497-.364.537.277.037 2.886.003 3.078 0 .193.003 2.801.037 3.077 0 .287-.04 0-.268-.363-.537zm-5.928-8.427c-.38 1.167-.524 1.447-1.686 1.456-1.162.01 1.63.64 3.58-.167 1.95-.807-1.196-3.13-1.894-1.289zm10.23-10.678c-.564-.454-1.498-.23-2.087.5l-5.961 8.47-.168.206c-.198.24-.288.35-.274.443.016.102.157.185.42.396.263.212.373.332.477.326.094-.005.182-.117.374-.36l.165-.209 7.01-7.626c.588-.731.608-1.691.044-2.146zm-1.533 1.014s-.087-.101-.377-.334c.435-.71 1.291-.58 1.291-.58-.812.479-.914.914-.914.914zm1.556 1.848h2.622a.84.84 0 0 1 .84.84v12.18a.84.84 0 0 1-.84.84H11.84a.84.84 0 0 1-.84-.84v-12.18a.84.84 0 0 1 .84-.84h12.058l-.888 1.26H12.26v10.08h18.48v-10.08h-3.36l1.158-1.26z" fill="#D10000"/></svg>