<svg width="43" height="43" fill="none" xmlns="http://www.w3.org/2000/svg"><path fill-rule="evenodd" clip-rule="evenodd" d="M41 21.5C41 32.27 32.27 41 21.5 41S2 32.27 2 21.5 10.73 2 21.5 2 41 10.73 41 21.5zm2 0C43 33.374 33.374 43 21.5 43S0 33.374 0 21.5 9.626 0 21.5 0 43 9.626 43 21.5zm-33 0C10 15.149 15.149 10 21.5 10c6.348.007 11.493 5.152 11.5 11.5C33 27.851 27.851 33 21.5 33S10 27.851 10 21.5zm18.175 4.593l3.27-.564c.472-1.16.736-2.394.779-3.646h-3.447a17.166 17.166 0 0 1-.602 4.21zm-13.952-4.21h-3.447c.043 1.252.307 2.486.778 3.646l3.27.564a17.166 17.166 0 0 1-.601-4.21zm.602-4.976l-3.27.564a10.661 10.661 0 0 0-.779 3.646h3.447c.025-1.423.227-2.837.602-4.21zm11.168-.377a26.381 26.381 0 0 0-4.11-.375v4.962h6.128a16.458 16.458 0 0 0-.665-4.354l-1.353-.233zm-4.11-1.142c1.422.018 2.84.147 4.24.386l.949.166c-1.082-2.93-2.992-4.94-5.189-5.152v4.6zm-5.006.386a27.167 27.167 0 0 1 4.24-.386v-4.601c-2.198.21-4.107 2.223-5.189 5.152l.949-.165zm4.24.38a26.376 26.376 0 0 0-4.11.376l-1.353.233a16.458 16.458 0 0 0-.665 4.354h6.128v-4.962zm0 5.73h-6.128c.026 1.474.25 2.938.665 4.352l1.353.234c1.358.232 2.732.358 4.11.375v-4.962zm0 5.73a27.27 27.27 0 0 1-4.24-.389l-.949-.163c1.082 2.928 2.991 4.94 5.189 5.152v-4.6zm5.006-.389c-1.401.24-2.819.37-4.24.389v4.6c2.198-.21 4.107-2.224 5.189-5.153l-.949.165zm-4.24-.38a26.376 26.376 0 0 0 4.11-.375l1.353-.233c.416-1.415.64-2.88.665-4.354h-6.128v4.962zm6.292-9.938c.375 1.373.577 2.787.602 4.21h3.447a10.663 10.663 0 0 0-.778-3.646l-3.27-.564zm-.252-.822l3.135.541a10.785 10.785 0 0 0-6.185-5.313 10.572 10.572 0 0 1 3.05 4.772zm-12.846 0a10.572 10.572 0 0 1 3.05-4.772 10.785 10.785 0 0 0-6.185 5.313l3.135-.54zm0 10.83l-3.135-.541a10.785 10.785 0 0 0 6.185 5.313 10.572 10.572 0 0 1-3.05-4.772zm12.846 0a10.572 10.572 0 0 1-3.05 4.772 10.785 10.785 0 0 0 6.185-5.313l-3.135.54z" fill="#D10000"/></svg>