<svg width="22" height="15" fill="none" xmlns="http://www.w3.org/2000/svg"><path d="M0 0h4.336c3.559 0 5.338 1.197 5.338 3.592 0 .788-.182 1.45-.545 1.985-.363.522-.93.937-1.7 1.247v.063c1.003.296 1.73.733 2.18 1.31.45.578.675 1.352.675 2.324 0 2.845-1.692 4.268-5.077 4.268H0V0zm4.75 6.127c.828 0 1.46-.197 1.895-.592.436-.408.654-.986.654-1.732 0-.69-.24-1.19-.719-1.5-.465-.324-1.213-.486-2.244-.486H2.375v4.31H4.75zm.436 6.845c.9 0 1.583-.211 2.048-.634.464-.437.697-1.07.697-1.901 0-.902-.29-1.557-.872-1.965-.566-.423-1.474-.634-2.723-.634H2.375v5.134h2.81zM22 10.31h-7.757c.117.958.429 1.683.937 2.176.523.493 1.235.74 2.136.74 1.278 0 2.31-.487 3.094-1.458l1.198 1.12c-.421.661-1.024 1.182-1.809 1.563-.784.366-1.648.549-2.592.549-1.627 0-2.898-.479-3.813-1.437-.9-.972-1.351-2.317-1.351-4.035s.457-3.063 1.373-4.035c.915-.986 2.171-1.479 3.769-1.479 1.51 0 2.687.486 3.53 1.458C21.572 6.43 22 7.775 22 9.507v.803zm-2.048-1.648c0-.916-.254-1.634-.763-2.155-.508-.521-1.205-.782-2.091-.782-.828 0-1.49.268-1.983.803-.494.535-.792 1.296-.893 2.282h5.73v-.148z" fill="#C4C4C4"/></svg>