<svg width="23" height="17" fill="none" xmlns="http://www.w3.org/2000/svg"><path d="M16.19 0c.288.655.474 1.742.196 2.538 1.14.973 1.531 3.338.98 5.271 1.625.124 3.56-.06 4.808.439-1.167-.15-2.761-.445-4.267-.342-.285.02-.708-.011-.687.39 1.743.137 3.475.286 4.906.733-1.42-.232-3.143-.585-4.906-.634-.729 1.437-2.195 2.144-4.219 2.293.218.473.634.653.736 1.415.152 1.138-.238 2.804.146 3.562.185.364.485.373.688.684-.496.587-1.725-.066-1.865-.684-.24-1.058.365-2.698-.294-3.416.047 1.155-.273 2.775.05 3.807.126.405.493.562.392.927-2.304.234-1.341-2.982-1.718-4.88-.347.025-.195.52-.196.732-.01 1.854.38 4.396-1.619 4.148-.058-.39.268-.522.393-.877.364-1.043-.068-2.598.099-3.857-.763.576.08 2.583-.393 3.612-.272.592-1.15.85-1.815.585.087-.44.542-.37.735-.78.27-.573.002-1.398.099-2.245-1.412.282-2.507-.041-3.043-.928-.24-.398-.299-.867-.589-1.22-.288-.352-.749-.4-.882-.877 1.748-.421 1.815 1.799 3.385 1.853.481.018.732-.138 1.177-.243.125-.56.392-.977.785-1.27-1.954-.267-3.567-.875-4.317-2.341a26.775 26.775 0 0 0-4.906.683c1.366-.497 3.051-.674 4.857-.733-.106-.64-1.04-.464-1.619-.439-1.076.047-2.431.181-3.287.342 1.24-.442 2.98-.387 4.661-.39-.514-1.612-.336-4.172.785-5.125-.318-.8-.219-2.11.196-2.733 1.251.056 2.01.602 2.797 1.123.974-.277 2-.415 3.335-.342.562.031 1.146.284 1.57.244.415-.04.872-.505 1.276-.683.525-.232.969-.32 1.57-.342z" fill="#C4C4C4"/></svg>