<svg width="16" height="17" fill="none" xmlns="http://www.w3.org/2000/svg"><path d="M2.917 17H.17V4.68h2.747V17zM0 1.48C0 1.055.132.702.396.421.667.141 1.052 0 1.549 0c.498 0 .882.14 1.153.421.272.281.408.634.408 1.06 0 .417-.136.766-.408 1.047-.27.273-.655.41-1.153.41-.497 0-.882-.137-1.153-.41C.132 2.247 0 1.898 0 1.48zm8.47 3.2l.078 1.423c.905-1.1 2.092-1.65 3.562-1.65 2.548 0 3.845 1.468 3.89 4.406V17h-2.748V9.018c0-.782-.17-1.359-.509-1.73-.331-.38-.878-.57-1.64-.57-1.107 0-1.933.505-2.475 1.514V17H5.88V4.68h2.59z" fill="#BBB"/></svg>