<svg width="46" height="46" fill="none" xmlns="http://www.w3.org/2000/svg"><path fill-rule="evenodd" clip-rule="evenodd" d="M19.783 23.083c-1.825 0-3.305-1.585-3.305-3.541S17.959 16 19.784 16s3.304 1.586 3.304 3.542c0 1.956-1.48 3.541-3.304 3.541zm0-1c-1.209 0-2.305-1.071-2.305-2.541S18.575 17 19.784 17c1.208 0 2.304 1.072 2.304 2.542 0 1.47-1.096 2.541-2.304 2.541z" fill="#D10000"/><path fill-rule="evenodd" clip-rule="evenodd" d="M22.586 23.083h2.98v.835h1.176l2.002 2.792 2.128-2.793H33v5.834h-7.435V31H14v-7.917h2.804l2.804 3.79 2.978-3.79zm-6.286 1l3.284 4.439 3.488-4.439h1.493V30H15v-5.917h1.3zm9.928.835h-.489v3.833H32v-3.834h-.633l-2.647 3.475-2.491-3.474z" fill="#D10000"/><path fill-rule="evenodd" clip-rule="evenodd" d="M28.867 23.917a2.49 2.49 0 0 1-2.478-2.5c0-1.38 1.11-2.5 2.478-2.5a2.49 2.49 0 0 1 2.479 2.5c0 1.38-1.11 2.5-2.479 2.5zm0-1a1.49 1.49 0 0 1-1.478-1.5c0-.837.67-1.5 1.478-1.5a1.49 1.49 0 0 1 1.479 1.5c0 .837-.67 1.5-1.479 1.5z" fill="#D10000"/><circle cx="23" cy="23" r="22" stroke="#D10000" stroke-width="2"/></svg>