<svg width="46" height="46" fill="none" xmlns="http://www.w3.org/2000/svg"><path fill-rule="evenodd" clip-rule="evenodd" d="M23.414 11c-.583 0-1.056.473-1.056 1.056v8.988a3.605 3.605 0 0 0-2.379 2.376h-3.923a1.056 1.056 0 0 0 0 2.112h3.923a3.596 3.596 0 0 0 3.43 2.533A3.593 3.593 0 0 0 27 24.476a3.596 3.596 0 0 0-2.53-3.429v-8.991c0-.583-.472-1.056-1.055-1.056zm-1.482 13.471A1.48 1.48 0 0 1 23.397 23h.03a1.48 1.48 0 0 1 1.46 1.477 1.48 1.48 0 0 1-1.477 1.478 1.48 1.48 0 0 1-1.478-1.473v-.01z" fill="#D10000"/><circle cx="23" cy="23" r="22" stroke="#D10000" stroke-width="2"/></svg>