<svg width="46" height="46" fill="none" xmlns="http://www.w3.org/2000/svg"><path d="M21.814 22.014h2.448a4.82 4.82 0 0 1 4.814 4.814 4.82 4.82 0 0 1-4.814 4.814h-.082v2.53a1.143 1.143 0 0 1-2.285 0v-2.53h-2.529a1.143 1.143 0 0 1 0-2.285h4.896a2.532 2.532 0 0 0 2.529-2.529 2.532 2.532 0 0 0-2.53-2.529h-2.447A4.82 4.82 0 0 1 17 19.485a4.82 4.82 0 0 1 4.814-4.813h.081v-2.53a1.143 1.143 0 1 1 2.285 0v2.53h2.53a1.143 1.143 0 0 1 0 2.285h-4.896a2.532 2.532 0 0 0-2.529 2.528 2.532 2.532 0 0 0 2.529 2.53z" fill="#D10000"/><circle cx="23" cy="23" r="22" stroke="#D10000" stroke-width="2"/></svg>