<svg width="103" height="4" fill="none" xmlns="http://www.w3.org/2000/svg"><path d="M102.177 2.177a.251.251 0 0 0 0-.354l-1.591-1.59a.25.25 0 0 0-.354.353L101.646 2l-1.414 1.414a.25.25 0 0 0 .354.354l1.591-1.591zM0 2.25h102v-.5H0v.5z" fill="#fff"/><path d="M102.177 2.177a.251.251 0 0 0 0-.354l-1.591-1.59a.25.25 0 0 0-.354.353L101.646 2l-1.414 1.414a.25.25 0 0 0 .354.354l1.591-1.591zM0 2.25h102v-.5H0v.5z" fill="url(#paint0_linear)"/><defs><linearGradient id="paint0_linear" x1="51" y1="2" x2="0" y2="2" gradientUnits="userSpaceOnUse"><stop stop-color="#fff" stop-opacity="0"/><stop offset="1" stop-color="#4C5057"/></linearGradient></defs></svg>