<svg width="46" height="46" fill="none" xmlns="http://www.w3.org/2000/svg"><path fill-rule="evenodd" clip-rule="evenodd" d="M37 23.5C37 30.956 30.956 37 23.5 37c-7.452-.009-13.491-6.048-13.5-13.5C10 16.044 16.044 10 23.5 10S37 16.044 37 23.5zm-25.294-2.868a12.102 12.102 0 0 0-.356 2.868 12.11 12.11 0 0 0 3.617 8.637l2.344-6.784-5.605-4.72zm15.056-1.501a.675.675 0 0 1-.545-.405L23.5 12.388l-2.717 6.338a.675.675 0 0 1-.545.405l-7.252.814 5.549 4.674c.213.18.294.473.203.737l-2.293 6.637 6.891-1.723a.68.68 0 0 1 .328 0l6.891 1.723-2.293-6.637a.675.675 0 0 1 .203-.737l5.549-4.674-7.252-.814zM23.5 31.621l-7.043 1.76a12.067 12.067 0 0 0 14.086 0l-7.043-1.76zm6.19-6.268l2.343 6.784a12.03 12.03 0 0 0 3.261-11.505l-5.605 4.72zm-2.387-7.52l7.334.824a12.168 12.168 0 0 0-10.09-7.254l2.756 6.43zm-7.606 0l2.757-6.43a12.168 12.168 0 0 0-10.09 7.254l7.333-.824z" fill="#fff"/><circle cx="23" cy="23" r="22" stroke="#E2E2E2" stroke-width="2"/></svg>