<svg width="46" height="46" fill="none" xmlns="http://www.w3.org/2000/svg"><path fill-rule="evenodd" clip-rule="evenodd" d="M28.458 12.964l-.77-1.001a2.657 2.657 0 0 0-3.717-.373 2.609 2.609 0 0 0-.97 2.106l.079 1.257c.067 1.06.385 2.09.927 3.006a2.978 2.978 0 0 0 2.161 1.396l2.845 8.734c.128.499.465.92.926 1.157a2.018 2.018 0 0 0 2.78-1.028c.188-.466.17-.988-.05-1.44l-3.636-8.484c.6-.67.862-1.573.71-2.456a6.742 6.742 0 0 0-1.285-2.874zm.153 3.08a1.8 1.8 0 0 1-.639 1.691.567.567 0 0 0-.151.654l3.804 8.871c.085.17.093.368.02.544a.892.892 0 0 1-1.172.434.685.685 0 0 1-.354-.461l-2.974-9.138a.575.575 0 0 0-.547-.396A1.829 1.829 0 0 1 25 17.38a5.593 5.593 0 0 1-.77-2.495l-.078-1.258a1.486 1.486 0 0 1 1.488-1.484c.435 0 .85.187 1.134.514l.771 1.002a5.61 5.61 0 0 1 1.067 2.386z" fill="#fff"/><path d="M22.694 18.731a.519.519 0 0 0-.672.295l-1.617 4.147-1.818.798a.518.518 0 0 0-.284.31L15.429 32.9a.706.706 0 0 1-.375.42.73.73 0 0 1-.963-.37l-.003-.006a.706.706 0 0 1 .01-.564l3.722-8.287a.518.518 0 0 0 .001-.42l-.798-1.818 1.618-4.148a.518.518 0 1 0-.966-.377l-1.696 4.348a.518.518 0 0 0 .009.396l.79 1.804-3.625 8.08a1.751 1.751 0 1 0 3.26 1.272l2.801-8.402 1.804-.792a.519.519 0 0 0 .275-.286l1.695-4.348a.519.519 0 0 0-.294-.67z" fill="#fff"/><path d="M19.125 17.896a.519.519 0 0 1 .966.376l-1.507 3.865a.519.519 0 0 1-.966-.377l1.507-3.864zm2.12.27a.518.518 0 0 0-.671.295l-1.507 3.865a.519.519 0 0 0 .966.376l1.507-3.864a.519.519 0 0 0-.295-.672z" fill="#fff"/><circle cx="23" cy="23" r="22" stroke="#E2E2E2" stroke-width="2"/></svg>