<svg width="46" height="46" fill="none" xmlns="http://www.w3.org/2000/svg"><path fill-rule="evenodd" clip-rule="evenodd" d="M34.474 20.258c.376 0 .74.177.997.487.245.294.38.68.38 1.088v2.286c0 .408-.135.794-.38 1.088-.258.31-.621.487-.997.487h-.564v.456c0 .82-.712 1.486-1.586 1.486h-.744v.84c0 .397-.17.783-.463 1.061a1.58 1.58 0 0 1-1.09.428 1.58 1.58 0 0 1-1.09-.428 1.467 1.467 0 0 1-.464-1.06v-3.948H18.378v3.948c0 .396-.169.782-.463 1.06a1.58 1.58 0 0 1-1.09.428 1.58 1.58 0 0 1-1.09-.428 1.468 1.468 0 0 1-.464-1.06v-.841h-.835c-.392 0-.763-.142-1.044-.4a1.372 1.372 0 0 1-.45-1.003v-.539h-.56a1.31 1.31 0 0 1-1-.49 1.704 1.704 0 0 1-.382-1.09V21.84c0-.409.136-.797.38-1.092.26-.311.625-.49 1.002-.49h.56v-.538c0-.375.163-.741.449-1.003.282-.258.653-.4 1.045-.4h.835v-.84c0-.397.17-.783.463-1.061.585-.553 1.596-.553 2.18 0 .295.278.464.664.464 1.06v3.948h10.095v-3.948c0-.396.17-.782.464-1.06.584-.553 1.595-.553 2.18 0 .294.277.463.664.463 1.06v.841h.744c.874 0 1.586.667 1.586 1.486v.456h.564zm-22.496 4.45c.113.135.256.21.404.21h.56v-3.884h-.56a.532.532 0 0 0-.404.21.939.939 0 0 0-.201.595v2.274c0 .224.073.441.201.595zm1.938 1.956a.776.776 0 0 0 .52.195h.835v-7.766h-.835a.779.779 0 0 0-.52.195.584.584 0 0 0-.198.43v6.515c0 .16.07.314.198.431zm3.466 2.308a.679.679 0 0 0 .22-.495V17.475a.68.68 0 0 0-.22-.496.817.817 0 0 0-.558-.216.817.817 0 0 0-.557.216.678.678 0 0 0-.22.496v11.002c0 .186.079.362.22.495.292.275.823.275 1.115 0zm.996-6.773v1.553h10.095V22.2H18.378zm12.206 6.773a.678.678 0 0 0 .22-.495V17.475a.678.678 0 0 0-.22-.495.817.817 0 0 0-.557-.216.817.817 0 0 0-.558.216.678.678 0 0 0-.219.495v11.002c0 .186.078.362.22.495.291.275.823.275 1.114 0zm1.74-2.113c.446 0 .809-.318.809-.71v-6.347c0-.391-.363-.71-.809-.71h-.744v7.767h.744zm2.55-2.15a.934.934 0 0 0 .2-.59v-2.286a.931.931 0 0 0-.2-.59.527.527 0 0 0-.4-.209h-.564v3.883h.564a.527.527 0 0 0 .4-.208z" fill="#fff"/><circle cx="23" cy="23" r="22" stroke="#E2E2E2" stroke-width="2"/></svg>