<svg width="46" height="46" fill="none" xmlns="http://www.w3.org/2000/svg"><path d="M28.455 20.577h-9.837a.662.662 0 1 1 0-1.325h9.837a.663.663 0 0 1 0 1.325zm-8.185 2.242h6.558a.663.663 0 0 0 0-1.325H20.27a.663.663 0 0 0 0 1.325z" fill="#fff"/><path fill-rule="evenodd" clip-rule="evenodd" d="M24.163 14.093H34v3.511h-1.093v12.024h-8.082l2.484 3.312a.662.662 0 1 1-1.06.795l-2.086-2.783v2.385a.662.662 0 1 1-1.325 0v-2.385l-2.087 2.783a.662.662 0 1 1-1.06-.795l2.484-3.312h-8.082V17.604h-1.092L13 14.093h9.838v-.43a.662.662 0 0 1 1.325 0v.43zm-9.838 1.325v.861h18.35v-.861h-18.35zm1.093 12.885h16.164V17.604H15.418v10.699z" fill="#fff"/><circle cx="23" cy="23" r="22" stroke="#E2E2E2" stroke-width="2"/></svg>