<svg width="46" height="46" fill="none" xmlns="http://www.w3.org/2000/svg"><path fill-rule="evenodd" clip-rule="evenodd" d="M22.82 25.212c0-.135.107-.245.24-.245.134 0 .242.11.242.245v2.087c.335.105.58.423.58.797 0 .46-.369.833-.822.833a.824.824 0 0 1-.784-.587h-.905a.243.243 0 0 1-.242-.245c0-.135.108-.245.242-.245h.904a.831.831 0 0 1 .544-.553v-2.087zm.24 3.227a.34.34 0 0 1-.338-.343.34.34 0 0 1 .338-.343.34.34 0 0 1 .338.343.34.34 0 0 1-.338.343z" fill="#fff"/><path fill-rule="evenodd" clip-rule="evenodd" d="M33 14.23h-4.607v-.611a.615.615 0 0 0-.61-.619.615.615 0 0 0-.61.619v.61H23.61v-.61A.615.615 0 0 0 23 13a.615.615 0 0 0-.61.619v.61h-3.412v-.61a.615.615 0 0 0-.61-.619.615.615 0 0 0-.61.619v.61H13v15.227h4.354C17.954 32.056 20.257 34 23 34c2.744 0 5.047-1.944 5.646-4.545H33V14.23zm-15.242 1.238v.56c0 .34.274.618.61.618.337 0 .61-.277.61-.619v-.56h3.412v.56c0 .342.273.62.61.62.337 0 .61-.278.61-.62v-.56h3.564v.56c0 .342.273.62.61.62.336 0 .61-.278.61-.62v-.56h3.386V18H14.22v-2.531h3.538zM23 32.762c-2.525 0-4.58-2.085-4.58-4.648 0-2.563 2.055-4.649 4.58-4.649 2.526 0 4.58 2.086 4.58 4.649s-2.054 4.648-4.58 4.648zm5.797-4.545l.002-.042v-.033l.001-.028c0-3.246-2.602-5.887-5.8-5.887s-5.8 2.641-5.8 5.887a1.649 1.649 0 0 0 .003.103H14.22v-8.98h17.56v8.98h-2.983z" fill="#fff"/><circle cx="23" cy="23" r="22" stroke="#E2E2E2" stroke-width="2"/></svg>