<svg width="46" height="46" fill="none" xmlns="http://www.w3.org/2000/svg"><path d="M22.43 21.009c.698-.704.417-2.441.417-2.441l-1.484 1.42-1.574-1.506 1.484-1.42s-1.742-.221-2.498.45c-.62.551-.363 2.287-.363 2.287l1.734 1.659s1.696.142 2.284-.45zm-9.268 8.866c-.735.668-2.552.4-2.552.4l1.485-1.42-1.574-1.506-1.485 1.42s-.23-1.667.471-2.39c.576-.594 2.39-.347 2.39-.347l1.734 1.659s.15 1.622-.47 2.184z" fill="#000"/><path d="M11.837 25.974l6.515-6.233 1.748 1.672-6.515 6.233-1.748-1.672zm18.22-11.324c1.047-.955 3.64-.576 3.64-.576l-2.115 2.03 2.25 2.145 2.114-2.03s.335 2.378-.665 3.411c-.82.848-3.41.5-3.41.5l-2.478-2.362s-.217-2.315.664-3.118zM16.854 27.323c-.994 1.005-.589 3.484-.589 3.484l2.114-2.03 2.25 2.145-2.114 2.03s2.486.311 3.563-.648c.884-.788.512-3.264.512-3.264l-2.479-2.363s-2.42-.2-3.257.646z" fill="#000"/><path d="M22.676 29.122l9.282-8.91-2.5-2.381-9.281 8.91 2.499 2.381z" fill="#000"/><path d="M22.847 18.568l.493-.08-.151-.94-.688.659.346.36zm-.417 2.44l-.355-.352.355.353zm-2.284.45l-.345.36.127.123.176.015.042-.498zm-1.734-1.66l-.494.074.025.17.124.118.345-.361zm.363-2.286l-.332-.373.332.373zm2.498-.45l.346.361.758-.725-1.041-.132-.063.496zm-1.484 1.42l-.346-.361-.378.361.378.361.346-.36zm1.574 1.506l-.346.361.346.33.345-.33-.345-.361zM10.61 30.274l-.345-.361-.739.706 1.011.15.073-.495zm2.552-.399l.336.37-.336-.37zm.469-2.184l.498-.046-.017-.186-.135-.13-.346.362zm-1.734-1.659l.346-.361-.118-.113-.16-.021-.068.495zm-2.39.347l-.359-.348.36.348zm-.47 2.39l-.496.068.135.969.706-.676-.345-.361zm1.484-1.42l.345-.362-.345-.33-.346.33.346.362zm1.574 1.505l.345.361.378-.36-.378-.362-.345.361zm6.257-9.113l.346-.361-.346-.331-.345.33.345.362zm-6.515 6.233l-.346-.361-.378.361.378.361.346-.36zm8.264-4.56l.345.36.378-.36-.378-.362-.346.361zm-6.516 6.232l-.346.362.346.33.345-.33-.345-.362zm20.112-13.572l.346.361.737-.708-1.011-.147-.072.494zm-3.64.576l.337.37-.337-.37zm-.664 3.118l-.498.046.018.187.135.129.345-.362zm2.478 2.363l-.345.362.118.112.16.021.067-.495zm3.41-.5l.36.347-.36-.348zm.665-3.412l.495-.07-.136-.968-.705.678.346.36zm-2.114 2.03l-.345.362.346.33.345-.331-.346-.361zm-2.25-2.145l-.346-.36-.377.361.378.36.345-.361zM16.265 30.807l-.493.08.153.94.686-.66-.346-.36zm.59-3.484l-.356-.352.355.352zm3.256-.646l.345-.362-.128-.122-.176-.014-.04.498zm2.479 2.363l.494-.074-.025-.17-.124-.118-.345.362zm-.512 3.264l.333.373-.333-.373zm-3.563.648l-.346-.361-.757.726 1.04.13.063-.495zm2.114-2.03l.346.36.377-.361-.378-.36-.345.361zm-2.25-2.145l.345-.362-.346-.33-.345.331.346.361zm13.579-8.564l.346.36.377-.361-.378-.361-.345.362zm-9.282 8.91l-.345.361.346.33.345-.33-.346-.362zm6.783-11.292l.345-.362-.346-.33-.345.33.346.362zm-9.282 8.91l-.346-.361-.377.361.378.361.345-.362zm2.67-8.173l-.494.08c0-.001 0-.001 0 0v.001l.002.01a3.068 3.068 0 0 1 .027.236c.014.16.026.378.018.613a3.048 3.048 0 0 1-.093.69c-.059.215-.14.365-.232.458l.71.705c.256-.259.402-.589.486-.898.086-.312.12-.637.129-.922a6.187 6.187 0 0 0-.055-1.026l-.003-.018-.001-.006v-.002l-.494.079zm-.772 2.088c-.061.062-.184.133-.389.192-.197.057-.427.09-.657.108a5.978 5.978 0 0 1-.839.003h-.002l-.042.498-.041.499h.007l.018.002a5.516 5.516 0 0 0 .278.012c.18.005.428.004.698-.017a4.35 4.35 0 0 0 .858-.144c.279-.08.588-.214.82-.448l-.71-.705zm-1.583.44l-1.734-1.659-.691.723 1.734 1.659.691-.723zm-2.08-1.297l.495-.073v-.002l-.002-.012-.006-.049a5.446 5.446 0 0 1-.038-.788c.006-.23.03-.457.08-.646.051-.197.117-.299.166-.343l-.664-.747c-.26.231-.395.553-.47.836a3.908 3.908 0 0 0-.112.874 6.559 6.559 0 0 0 .053.997l.003.018v.008l.495-.073zm.695-1.913c.24-.213.708-.323 1.227-.351a5.64 5.64 0 0 1 .863.022l.011.001h.002l.063-.496.063-.496h-.008l-.019-.003a6.126 6.126 0 0 0-1.029-.027c-.54.03-1.321.144-1.837.603l.664.747zm1.82-1.185l-1.484 1.42.691.722 1.485-1.42-.692-.722zm-1.484 2.142l1.574 1.506.691-.723-1.574-1.505-.69.722zm2.265 1.506l1.485-1.42-.692-.722-1.484 1.42.691.722zM10.61 30.274l-.073.495h.003l.006.001.019.003a4.297 4.297 0 0 0 .3.031c.195.016.464.03.76.02a4.51 4.51 0 0 0 .95-.12c.316-.08.655-.215.923-.459l-.673-.74c-.099.09-.262.171-.494.23a3.526 3.526 0 0 1-.736.09 5.963 5.963 0 0 1-.898-.044l-.011-.001a.02.02 0 0 0-.003 0l-.073.494zm2.888-.029c.246-.224.389-.525.475-.798.088-.279.132-.574.153-.833a6.203 6.203 0 0 0 .005-.944l-.001-.017v-.005l-.001-.002-.498.045-.498.045v.002l.001.01a2.643 2.643 0 0 1 .01.218c.005.149.004.35-.014.564a2.914 2.914 0 0 1-.11.616c-.06.189-.132.302-.195.359l.673.74zm.479-2.916l-1.734-1.658-.692.722 1.734 1.659.692-.723zm-2.08-1.297l.067-.495h-.002l-.006-.002a3.734 3.734 0 0 0-.083-.01 7.456 7.456 0 0 0-.967-.043 4.383 4.383 0 0 0-.9.106c-.288.07-.617.195-.858.443l.718.696c.047-.049.16-.115.374-.166a3.39 3.39 0 0 1 .69-.078 6.443 6.443 0 0 1 .9.044l.067-.495zm-2.749-.001c-.485.5-.608 1.26-.639 1.784a5.893 5.893 0 0 0 .029.996l.002.018a.6.6 0 0 1 0 .005l.001.002v.001l.495-.069.496-.068a.105.105 0 0 1-.002-.011 2.714 2.714 0 0 1-.02-.224 4.896 4.896 0 0 1-.002-.59c.029-.491.142-.925.358-1.148l-.718-.696zm.234 3.099l1.484-1.42-.69-.723-1.485 1.42.691.723zm.793-1.42l1.574 1.505.691-.722-1.574-1.506-.69.723zm1.574.783l-1.484 1.42.691.722 1.484-1.42-.691-.722zm6.258-9.113l-6.516 6.233.691.722 6.516-6.233-.691-.722zm0 .722l1.748 1.672.691-.722-1.748-1.672-.691.722zm1.748.95l-6.516 6.233.691.723 6.516-6.233-.691-.723zm-5.825 6.233l-1.748-1.672-.691.722 1.748 1.673.691-.723zm19.767-13.21l.072-.495h-.003l-.008-.002-.025-.003a8.96 8.96 0 0 0-.418-.043 9.714 9.714 0 0 0-1.061-.028 6.281 6.281 0 0 0-1.31.168c-.431.11-.878.293-1.224.608l.674.74c.177-.163.448-.29.796-.378a5.237 5.237 0 0 1 1.095-.138 8.744 8.744 0 0 1 1.339.065l.073-.495zm-3.977.205c-.312.285-.499.674-.616 1.046a5.348 5.348 0 0 0-.208 1.143 8.626 8.626 0 0 0-.004 1.313l.002.023v.006l.001.002v.001l.498-.046.498-.047v-.003l-.002-.016a5.196 5.196 0 0 1-.017-.323 7.627 7.627 0 0 1 .02-.828c.027-.318.078-.643.166-.925.09-.288.207-.49.336-.607l-.674-.739zm-.672 3.85l2.478 2.363.69-.724-2.478-2.363-.69.724zm2.823 2l-.066.496h.003l.007.002.025.003a6.865 6.865 0 0 0 .411.04c.267.02.634.037 1.03.027.394-.01.833-.048 1.239-.146.395-.096.819-.263 1.12-.574l-.718-.696c-.11.113-.317.22-.638.298-.31.075-.672.11-1.028.119a9.39 9.39 0 0 1-1.314-.063h-.004l-.067.495zm3.77-.152c.634-.656.804-1.672.847-2.412a8.225 8.225 0 0 0-.042-1.382l-.003-.024-.001-.007v-.003l-.496.07-.495.069v.003l.003.016.008.069a7.199 7.199 0 0 1 .028 1.132c-.041.707-.203 1.396-.569 1.773l.72.696zm-.04-4.12l-2.115 2.03.692.721 2.115-2.03-.693-.72zm-1.424 2.029l-2.25-2.145-.69.724 2.25 2.145.69-.724zm-2.248-1.422l2.114-2.03-.693-.721-2.114 2.03.692.72zM16.264 30.807l.494-.08-.001-.004a7.582 7.582 0 0 1-.072-1.265c.011-.35.051-.712.14-1.035.088-.327.217-.58.384-.748l-.711-.704c-.331.335-.524.768-.639 1.189a5.61 5.61 0 0 0-.173 1.266 8.581 8.581 0 0 0 .08 1.426c0 .01.002.019.003.025l.001.007v.003l.494-.08zm.945-3.132c.123-.125.338-.24.646-.33.3-.087.644-.137.98-.164a8.785 8.785 0 0 1 1.213-.007l.017.001h.004l.041-.498.041-.498h-.01a1.329 1.329 0 0 0-.108-.008 9.757 9.757 0 0 0-1.276.014 5.99 5.99 0 0 0-1.181.2c-.382.111-.783.288-1.078.586l.71.704zm2.556-.636l2.479 2.363.69-.724-2.479-2.363-.69.724zm2.824 2.001l-.495.074v.004l.003.018.01.073a8.154 8.154 0 0 1 .058 1.156 4.433 4.433 0 0 1-.119.97c-.078.3-.186.492-.302.595l.666.747c.326-.291.503-.703.604-1.09.102-.394.14-.819.15-1.198A9.167 9.167 0 0 0 23.09 29l-.003-.024-.001-.007v-.003l-.495.074zm-.845 2.89c-.4.357-1.135.517-1.88.558a8.292 8.292 0 0 1-1.267-.03l-.017-.002h-.004l-.062.496-.062.496h.003l.007.001.025.003a6.016 6.016 0 0 0 .404.033c.263.014.627.024 1.028.002.767-.043 1.814-.207 2.49-.81l-.665-.747zm-2.884 1.382l2.114-2.03-.692-.72-2.114 2.029.692.721zm2.113-2.752l-2.25-2.145-.69.724 2.25 2.145.69-.724zm-2.94-2.143l-2.115 2.03.692.72 2.115-2.029-.693-.722zm13.577-8.565l-9.282 8.91.693.721 9.282-8.91-.693-.72zm.692-.001l-2.5-2.382-.69.723 2.5 2.383.69-.724zm-3.19-2.381l-9.282 8.91.692.721 9.282-8.91-.692-.721zm-9.281 9.632l2.499 2.382.69-.723-2.499-2.383-.69.724z" fill="#F9F9F9"/><circle cx="23" cy="23" r="22" stroke="#E2E2E2" stroke-width="2"/></svg>