<svg width="46" height="46" fill="none" xmlns="http://www.w3.org/2000/svg"><circle cx="23" cy="23" r="22" stroke="#E2E2E2" stroke-width="2"/><path d="M23.262 14.847A6.156 6.156 0 0 0 16.844 21a6.115 6.115 0 0 0 2.473 4.937c.518.368.831.96.843 1.596v.66a1.407 1.407 0 0 0-.578 2.28 1.415 1.415 0 0 0 1.051 2.369h.048a2.368 2.368 0 0 0 4.641 0h.048a1.415 1.415 0 0 0 1.051-2.369 1.408 1.408 0 0 0-.577-2.28v-.663a1.967 1.967 0 0 1 .825-1.58 6.16 6.16 0 0 0-3.407-11.103zm-.26 18.942a1.419 1.419 0 0 1-1.334-.947h2.667c-.2.566-.733.945-1.333.947zm2.368-1.895h-4.737a.474.474 0 1 1 0-.947h4.737a.474.474 0 0 1 0 .947zm0-1.894h-4.737a.474.474 0 1 1 0-.948h4.737a.474.474 0 0 1 0 .948zm.734-4.81a2.905 2.905 0 0 0-1.208 2.34v.575h-3.79v-.572a2.941 2.941 0 0 0-1.222-2.355 5.212 5.212 0 1 1 6.22.012z" fill="#E2E2E2"/></svg>