<svg width="46" height="46" fill="none" xmlns="http://www.w3.org/2000/svg"><circle cx="23" cy="23" r="22" stroke="#E2E2E2" stroke-width="2"/><path d="M34.94 23.55c-.288-1.607-1.562-2.844-3.156-3.063-.44-1.652-1.706-3.061-4.252-3.061h-3.866v-1.49c1.17-.374 1.819-1.64 1.45-2.828-.368-1.188-1.614-1.848-2.783-1.474-1.17.374-1.819 1.64-1.45 2.828a2.235 2.235 0 0 0 1.45 1.474v1.456h-3.86c-1.799 0-3.692.84-4.265 3.061-2.031.284-3.452 2.186-3.173 4.25.219 1.619 1.438 2.91 3.02 3.2l-.007.034c.2 2.973 2.373 4.063 4.42 4.063h9.064c3.046 0 4.265-2.032 4.419-4.064 2.017-.372 3.355-2.336 2.989-4.385zm-20.912 3.032c-1.259-.37-1.984-1.706-1.62-2.986a2.392 2.392 0 0 1 1.62-1.646v4.632zm8.085-12.759c0-.497.397-.9.886-.9.49 0 .887.403.887.9 0 .498-.397.9-.887.9a.894.894 0 0 1-.886-.9zm8.525 13.626c0 1.178-.407 3.156-3.106 3.156h-9.058c-1.16 0-3.106-.413-3.106-3.156l-.007-5.5c0-2.749 1.946-3.155 3.106-3.155h9.065c2.706 0 3.106 1.977 3.106 3.156v5.499zm1.306-.914v-4.633a2.412 2.412 0 0 1 1.72 2.317 2.413 2.413 0 0 1-1.72 2.316z" fill="#E2E2E2"/></svg>