<svg width="46" height="46" fill="none" xmlns="http://www.w3.org/2000/svg"><circle cx="23" cy="23" r="22" stroke="#E2E2E2" stroke-width="2"/><path d="M23.123 14h-2.02c-4.183.005-7.572 3.37-7.577 7.52v.843l-2.463 4.429a.502.502 0 0 0-.062.242v.085a1.468 1.468 0 0 0 1.515 1.419c.367.02.72.151 1.01.375v1.63a1.957 1.957 0 0 0 2.02 2.005h3.117a1.466 1.466 0 0 0 1.43-1.504v-3.008h-1.01v3.008a.461.461 0 0 1-.505.501h-3.031a.947.947 0 0 1-1.01-1.003v-1.868a.5.5 0 0 0-.17-.375 2.93 2.93 0 0 0-1.851-.764l-.007.001a.443.443 0 0 1-.488-.391l2.453-4.412a.502.502 0 0 0 .062-.242v-.971c.005-3.598 2.942-6.513 6.567-6.517h2.014a.462.462 0 0 1 .511.501v2.507h1.01v-2.592a1.468 1.468 0 0 0-1.515-1.418zm11.379 6.138h-1.256a4.553 4.553 0 0 0-.181-.437l.889-.892a.501.501 0 0 0 0-.707l-1.41-1.415a.497.497 0 0 0-.704 0l-.889.892a4.613 4.613 0 0 0-.434-.18v-1.262a.5.5 0 0 0-.499-.5h-1.992a.5.5 0 0 0-.498.5v1.261a4.424 4.424 0 0 0-.78.366l.506.86c.28-.165.582-.29.896-.372a.5.5 0 0 0 .374-.484v-1.131h.996v1.131a.5.5 0 0 0 .373.485c.315.081.616.207.896.372a.496.496 0 0 0 .606-.077l.797-.8.705.706-.797.8a.502.502 0 0 0-.077.608c.165.282.29.585.372.9a.5.5 0 0 0 .482.376h1.126v1h-1.125a.499.499 0 0 0-.482.375 3.509 3.509 0 0 1-.372.9.502.502 0 0 0 .077.608l.797.8-.704.707-.797-.8a.497.497 0 0 0-.606-.077 3.51 3.51 0 0 1-.897.373.5.5 0 0 0-.373.484v1.13h-.997v-1.13a.5.5 0 0 0-.373-.484 3.482 3.482 0 0 1-.897-.373.497.497 0 0 0-.605.078l-.797.8-.705-.708.797-.8a.502.502 0 0 0 .078-.608 3.504 3.504 0 0 1-.372-.9.499.499 0 0 0-.482-.375h-1.625v1h1.256c.053.149.113.294.18.437l-.888.892a.501.501 0 0 0 0 .707l1.409 1.415c.195.195.51.195.704 0l.889-.892c.142.067.287.128.435.18v1.262a.5.5 0 0 0 .498.5h1.992a.5.5 0 0 0 .499-.5v-1.26a4.73 4.73 0 0 0 .434-.182l.89.892a.496.496 0 0 0 .703 0l1.41-1.415a.502.502 0 0 0 0-.707l-.89-.892a4.58 4.58 0 0 0 .181-.437h1.257a.5.5 0 0 0 .498-.5v-2a.5.5 0 0 0-.498-.5z" fill="#E2E2E2"/><path d="M29.277 19.454a1.91 1.91 0 1 0 0 3.819 1.91 1.91 0 0 0 0-3.819zm0 2.864a.955.955 0 1 1 0-1.91.955.955 0 0 1 0 1.91zm-9.819 3.139c-.754 0-1.364.733-1.364 1.637s.61 1.636 1.364 1.636c.753 0 1.364-.732 1.364-1.636 0-.904-.611-1.637-1.364-1.637zm0 2.182c-.251 0-.455-.244-.455-.545 0-.302.204-.546.455-.546.25 0 .454.244.454.546 0 .301-.203.545-.454.545zm4.636-9.819c-.904 0-1.637.61-1.637 1.363s.733 1.364 1.637 1.364 1.636-.61 1.636-1.364c0-.753-.732-1.364-1.636-1.364zm0 1.818c-.302 0-.546-.204-.546-.455 0-.25.244-.454.546-.454.301 0 .545.203.545.454s-.244.455-.545.455z" fill="#E2E2E2"/></svg>