<svg width="46" height="46" fill="none" xmlns="http://www.w3.org/2000/svg"><circle cx="23" cy="23" r="22" stroke="#E2E2E2" stroke-width="2"/><path d="M30.646 16.005v-1.913A1.1 1.1 0 0 0 29.542 13H16.458a1.1 1.1 0 0 0-1.104 1.092v1.913C14.04 16.1 13 17.188 13 18.511v.012c0 1.323 1.04 2.41 2.354 2.506v2.947a1.1 1.1 0 0 0 1.104 1.092h4.414v1.261h-1.814a1.78 1.78 0 0 0-1.63-1.057 1.78 1.78 0 0 0-1.483.79h-.9a1.21 1.21 0 0 0-1.217 1.202v5.824c0 .22.181.4.405.4h1.623c.224 0 .405-.18.405-.4v-4.622h.149c.182.127.39.22.613.272v4.35c0 .22.181.4.405.4h11.144c.224 0 .405-.18.405-.4v-4.35c.224-.051.431-.145.613-.271h.15v4.62c0 .222.18.4.404.4h1.623a.402.402 0 0 0 .405-.4v-5.823c0-.663-.546-1.203-1.216-1.203h-.901a1.782 1.782 0 0 0-1.483-.79 1.78 1.78 0 0 0-1.63 1.058h-1.814v-1.261h4.414a1.1 1.1 0 0 0 1.104-1.092v-2.947C31.96 20.933 33 19.846 33 18.523v-.012c0-1.323-1.04-2.41-2.354-2.506zM13.81 18.523v-.012c0-.881.678-1.61 1.545-1.703v3.417a1.722 1.722 0 0 1-1.544-1.702zm3.619 7.549c.533 0 .967.429.967.956a.963.963 0 0 1-.967.956.963.963 0 0 1-.967-.956c0-.527.434-.956.967-.956zm-1.977 1.994v4.622h-.814v-5.424c0-.222.183-.402.407-.402h.615a1.76 1.76 0 0 0 .117.812.401.401 0 0 0-.325.392zm2.381 4.622v-.491h7.166c.224 0 .405-.18.405-.4 0-.221-.181-.4-.405-.4h-7.166v-2.659a1.766 1.766 0 0 0 1.37-1.609h7.596a1.766 1.766 0 0 0 1.37 1.61v3.948H17.832zm13.123-5.827c.225 0 .408.181.408.403v5.424h-.814v-4.622a.401.401 0 0 0-.325-.392 1.731 1.731 0 0 0 .117-.813h.614zm-2.383-.789c.534 0 .967.429.967.956a.963.963 0 0 1-.967.956.963.963 0 0 1-.967-.956c0-.527.434-.956.967-.956zm-4.254.257h-2.636v-1.261h2.636v1.261zm5.519-2.353c0 .16-.133.292-.295.292H16.458a.294.294 0 0 1-.295-.292v-9.884c0-.16.133-.292.295-.292h13.084c.162 0 .295.131.295.292v9.884zm2.354-5.453c0 .881-.678 1.61-1.545 1.702v-3.417a1.722 1.722 0 0 1 1.544 1.703v.012z" fill="#E2E2E2"/></svg>