<svg width="46" height="46" fill="none" xmlns="http://www.w3.org/2000/svg"><circle cx="23" cy="23" r="22" stroke="#E2E2E2" stroke-width="2"/><path d="M24.178 24.228c.923.472 1.374 1.433 1.098 2.344-.276.912-1.21 1.545-2.277 1.545-1.066 0-2-.634-2.276-1.545-.276-.91.174-1.872 1.098-2.344.225-.115.303-.37.172-.57-.13-.199-.418-.267-.644-.152-1.293.66-1.924 2.006-1.537 3.282.386 1.275 1.694 2.162 3.187 2.162 1.494 0 2.801-.887 3.187-2.162.387-1.276-.244-2.622-1.537-3.282-.225-.115-.514-.047-.644.153s-.053.454.173.57z" fill="#E2E2E2"/><path d="M22.45 22.83v2.888c0 .266.245.482.55.482.303 0 .55-.216.55-.482v-2.887c0-.266-.247-.481-.55-.481-.305 0-.55.215-.55.48z" fill="#E2E2E2"/><path d="M33.6 22.184l-8.333-8.257a3.215 3.215 0 0 0-4.518 0l-8.333 8.257a1.405 1.405 0 0 0 0 1.996 1.47 1.47 0 0 0 2.014 0l1.276-1.263v9.98c0 .25.204.453.456.453h13.692a.454.454 0 0 0 .457-.452v-9.981l1.274 1.263a1.434 1.434 0 0 0 1.998-.017c.55-.544.557-1.425.017-1.979zm-4.202 10.262h-12.78V22.012l6.068-6.011a.469.469 0 0 1 .645 0l6.067 6.011v10.434zm3.556-8.905a.527.527 0 0 1-.723 0l-8.254-8.18a1.378 1.378 0 0 0-1.937 0l-8.254 8.18a.526.526 0 0 1-.724 0 .503.503 0 0 1 0-.716l8.332-8.258a2.297 2.297 0 0 1 3.228 0l8.333 8.257a.504.504 0 0 1-.001.717z" fill="#E2E2E2"/></svg>