<svg width="46" height="46" fill="none" xmlns="http://www.w3.org/2000/svg"><path d="M17.5 13.5A1.5 1.5 0 0 1 19 12h12a1.5 1.5 0 0 1 1.5 1.5v15A1.5 1.5 0 0 1 31 30h-2a.5.5 0 0 1 0-1h2a.5.5 0 0 0 .5-.5v-15a.5.5 0 0 0-.5-.5H19a.5.5 0 0 0-.5.5v2a.5.5 0 0 1-1 0v-2z" fill="#fff"/><path d="M17.5 20.5a.5.5 0 0 0 0 1h7a.5.5 0 0 0 0-1h-7zm0 3a.5.5 0 0 0 0 1h7a.5.5 0 0 0 0-1h-7zm0 3a.5.5 0 0 0 0 1h7a.5.5 0 0 0 0-1h-7z" fill="#fff"/><path fill-rule="evenodd" clip-rule="evenodd" d="M14 17.5a1 1 0 0 1 1-1h12a1 1 0 0 1 1 1v15a1 1 0 0 1-1 1H15a1 1 0 0 1-1-1v-15zm1 0h12v15H15v-15z" fill="#fff"/><circle cx="23" cy="23" r="22" stroke="#E2E2E2" stroke-width="2"/></svg>