<svg width="46" height="46" fill="none" xmlns="http://www.w3.org/2000/svg"><path fill-rule="evenodd" clip-rule="evenodd" d="M25.143 29.03v-7.456h.32v-.757c0-.242.194-.439.435-.439.24 0 .436.197.436.439v.758h.873v-.758c0-.242.195-.439.436-.439.24 0 .436.197.436.439v.783c.554.058.988.217 1.301.476.407.335.611.83.611 1.485 0 .348-.098.657-.295.927a1.925 1.925 0 0 1-.805.62c.4.112.717.327.947.645.235.314.352.69.352 1.126 0 .67-.216 1.195-.647 1.577-.365.323-.857.51-1.476.56a.448.448 0 0 1 .012.103v.87a.437.437 0 0 1-.436.439.437.437 0 0 1-.436-.438v-.871c0-.03.003-.06.009-.09h-.89a.444.444 0 0 1 .008.09v.87a.437.437 0 0 1-.872 0v-.87c0-.03.003-.06.01-.09h-.33zm.978-3.487v2.683h1.614c.455 0 .813-.118 1.075-.354.265-.239.397-.566.397-.983 0-.898-.486-1.346-1.457-1.346h-1.63zm0-.789h1.477c.427 0 .769-.107 1.023-.323.258-.215.387-.506.387-.875 0-.41-.119-.707-.356-.891-.238-.188-.6-.282-1.085-.282h-1.446v2.371z" fill="#F4F4F4"/><path fill-rule="evenodd" clip-rule="evenodd" d="M27.963 15.398A9.78 9.78 0 0 0 19.794 11C14.386 11 10 15.394 10 20.815c0 5.166 3.982 9.4 9.037 9.787A9.78 9.78 0 0 0 27.206 35C32.615 35 37 30.606 37 25.185c0-5.166-3.982-9.4-9.037-9.787zm-8.169-2.944c-4.614 0-8.347 3.748-8.347 8.361a8.36 8.36 0 0 0 6.741 8.207 9.802 9.802 0 0 1-.776-3.837c0-1.495.333-2.91.929-4.178a2.6 2.6 0 0 1-.695-.51c-.33-.358-.494-.812-.494-1.362 0-.56.161-1.018.484-1.377.326-.358.772-.572 1.339-.64v-1.121h.759v1.126c.481.066.872.248 1.172.546a9.74 9.74 0 0 1 5.268-2.246 8.322 8.322 0 0 0-6.38-2.969zm.428 5.849c-.223-.25-.516-.376-.88-.376-.404 0-.713.106-.927.318-.214.208-.321.5-.321.875 0 .348.112.627.336.835.09.082.205.16.342.237a9.852 9.852 0 0 1 1.45-1.889zm-1.364 6.882c0-4.614 3.734-8.361 8.348-8.361 4.614 0 8.347 3.747 8.347 8.36 0 4.614-3.733 8.361-8.347 8.361-4.614 0-8.348-3.747-8.348-8.36z" fill="#F4F4F4"/><circle cx="23" cy="23" r="22" stroke="#E2E2E2" stroke-width="2"/></svg>