<svg width="46" height="46" fill="none" xmlns="http://www.w3.org/2000/svg"><path fill-rule="evenodd" clip-rule="evenodd" d="M16.166 24.556v-7.36h10.356v7.36h-3.723l.318.855h1.067v.685h-5.68v-.685h1.224l.273-.855h-3.835zm.345-7.007h9.666v6.653h-9.666v-6.653zm3.795 7.19l-.157.49h2.531l-.182-.49h-2.192z" fill="#F4F4F4"/><path fill-rule="evenodd" clip-rule="evenodd" d="M28.36 13.907c3.877 3.788 4.232 9.94.963 14.157l4.388 4.287c.373.364.387.97.031 1.352a.918.918 0 0 1-1.32.033l-4.387-4.286a10.091 10.091 0 0 1-13.85-.305c-4.107-4.011-4.262-10.674-.348-14.882 3.915-4.208 10.416-4.367 14.523-.356zm-.953 1.024c3.36 3.281 3.665 8.613.828 12.263a.919.919 0 0 0-.875.275.973.973 0 0 0-.226.91 8.736 8.736 0 0 1-11.998-.258c-3.554-3.472-3.689-9.24-.3-12.882a8.741 8.741 0 0 1 12.571-.308z" fill="#F4F4F4"/><circle cx="23" cy="23" r="22" stroke="#E2E2E2" stroke-width="2"/></svg>