<svg width="46" height="46" fill="none" xmlns="http://www.w3.org/2000/svg"><path fill-rule="evenodd" clip-rule="evenodd" d="M18.436 17.44l.12-.475 2.045 1.513 3.118-1.318 2.657 1.31 2.033-1.504.122.473-.319.08.319-.08v.002l.001.005.005.018.006.023.011.047a25.198 25.198 0 0 1 .256 1.222c.148.804.314 1.91.387 3.115.072 1.203.053 2.515-.177 3.727-.229 1.209-.672 2.348-1.472 3.172-.625.645-1.56 1.24-2.32 1.665a20.149 20.149 0 0 1-1.355.695l-.021.01-.006.002h-.002l-.126.057-.13-.05.12-.304-.12.304h-.002l-.006-.003-.024-.01-.047-.018-.042-.017a20.247 20.247 0 0 1-1.394-.638c-.829-.42-1.853-1.014-2.536-1.688-.822-.809-1.283-1.942-1.527-3.149-.244-1.21-.276-2.524-.213-3.73a26.205 26.205 0 0 1 .616-4.36l.017-.07.004-.019.001-.005v-.002zm.529.642a25.533 25.533 0 0 0-.51 3.848c-.063 1.176-.03 2.431.2 3.568.23 1.14.652 2.131 1.345 2.814.607.599 1.554 1.155 2.372 1.569a19.577 19.577 0 0 0 1.328.609 18.058 18.058 0 0 0 1.205-.623c.748-.42 1.614-.976 2.17-1.55.676-.697 1.083-1.697 1.3-2.84.215-1.14.236-2.394.165-3.567a25.733 25.733 0 0 0-.535-3.83l-1.56 1.153-2.747-1.355-3.187 1.348-1.546-1.144z" fill="#F4F4F4"/><path fill-rule="evenodd" clip-rule="evenodd" d="M15.097 13.894L15.34 13l3.426 2.352 5.093-1.998 4.337 1.984 3.401-2.334.246.887-.634.172.634-.172v.003l.003.008.008.028a15.02 15.02 0 0 1 .129.51c.084.349.198.85.32 1.464.243 1.227.516 2.915.636 4.755.12 1.836.088 3.847-.292 5.71-.38 1.859-1.118 3.625-2.456 4.905-1.037.993-2.582 1.902-3.823 2.55a34.31 34.31 0 0 1-2.225 1.057l-.036.015-.01.004-.004.002-.236.098-.242-.087.225-.613-.225.613-.004-.002-.01-.003-.04-.015a23.824 23.824 0 0 1-.678-.263c-.448-.18-1.068-.44-1.756-.763-1.358-.637-3.047-1.545-4.18-2.583-1.375-1.256-2.144-3.013-2.548-4.87-.405-1.859-.456-3.874-.351-5.716.104-1.846.366-3.543.602-4.777a35.95 35.95 0 0 1 .438-1.987l.007-.028.003-.008v-.004zm.635.17l-.635-.17.635.17zm.418 1.08a35.901 35.901 0 0 0-.79 5.628c-.101 1.776-.048 3.663.323 5.367.372 1.707 1.05 3.176 2.153 4.185.979.895 2.514 1.735 3.852 2.362a33.167 33.167 0 0 0 2.134.91 32.85 32.85 0 0 0 1.934-.928c1.223-.638 2.627-1.477 3.522-2.334 1.077-1.03 1.73-2.512 2.08-4.225.348-1.709.384-3.595.268-5.366a36.2 36.2 0 0 0-.83-5.603l-2.47 1.696-4.507-2.063-5.224 2.05-2.445-1.68z" fill="#F4F4F4"/><circle cx="23" cy="23" r="22" stroke="#E2E2E2" stroke-width="2"/></svg>