<svg width="46" height="46" fill="none" xmlns="http://www.w3.org/2000/svg"><path fill-rule="evenodd" clip-rule="evenodd" d="M31.416 14c.436 0 .809.175 1.119.524.31.349.465.768.465 1.258v14.97c0 .49-.155.91-.465 1.258-.31.35-.683.524-1.118.524H15.583c-.435 0-.808-.175-1.118-.524A1.83 1.83 0 0 1 14 30.752v-14.97c0-.49.155-.91.465-1.258.31-.35.683-.524 1.118-.524h15.833zM17.612 30.896a.73.73 0 0 0 .188-.5V28.97a.73.73 0 0 0-.188-.502.578.578 0 0 0-.445-.211H15.9c-.171 0-.32.07-.445.211a.731.731 0 0 0-.188.502v1.425c0 .193.063.36.188.501a.578.578 0 0 0 .445.212h1.267c.171 0 .32-.07.445-.212zm0-4.277a.73.73 0 0 0 .188-.5v-1.427a.73.73 0 0 0-.188-.5.578.578 0 0 0-.445-.212H15.9c-.171 0-.32.07-.445.211a.73.73 0 0 0-.188.501v1.426c0 .193.063.36.188.501a.578.578 0 0 0 .445.212h1.267c.171 0 .32-.07.445-.212zm0-4.277a.73.73 0 0 0 .188-.5v-1.426a.73.73 0 0 0-.188-.502.578.578 0 0 0-.445-.211H15.9c-.171 0-.32.07-.445.211a.73.73 0 0 0-.188.502v1.425c0 .193.063.36.188.501a.578.578 0 0 0 .445.212h1.267c.171 0 .32-.07.445-.212zm0-4.276a.73.73 0 0 0 .188-.502V16.14a.73.73 0 0 0-.188-.502.578.578 0 0 0-.445-.211H15.9c-.171 0-.32.07-.445.211a.73.73 0 0 0-.188.502v1.425c0 .194.063.36.188.502a.578.578 0 0 0 .445.211h1.267c.171 0 .32-.07.445-.211zm10.133 12.83a.73.73 0 0 0 .188-.5v-5.703a.73.73 0 0 0-.188-.502.578.578 0 0 0-.445-.211h-7.6c-.172 0-.32.07-.445.211a.73.73 0 0 0-.188.502v5.702c0 .193.062.36.188.501a.578.578 0 0 0 .445.212h7.6c.171 0 .32-.07.445-.212zm0-8.554a.73.73 0 0 0 .188-.5v-5.703a.73.73 0 0 0-.188-.502.578.578 0 0 0-.445-.211h-7.6c-.172 0-.32.07-.445.211a.73.73 0 0 0-.188.502v5.702c0 .193.062.36.188.501a.577.577 0 0 0 .445.212h7.6c.171 0 .32-.07.445-.212zm3.8 8.554a.73.73 0 0 0 .188-.5V28.97a.73.73 0 0 0-.188-.502.579.579 0 0 0-.445-.211h-1.267c-.171 0-.32.07-.445.211a.73.73 0 0 0-.188.502v1.425c0 .193.062.36.188.501a.577.577 0 0 0 .445.212H31.1c.171 0 .32-.07.445-.212zm0-4.277a.73.73 0 0 0 .188-.5v-1.427a.73.73 0 0 0-.188-.5.578.578 0 0 0-.445-.212h-1.267c-.171 0-.32.07-.445.211a.73.73 0 0 0-.188.501v1.426c0 .193.062.36.188.501a.578.578 0 0 0 .445.212H31.1c.171 0 .32-.07.445-.212zm0-4.277a.73.73 0 0 0 .188-.5v-1.426a.73.73 0 0 0-.188-.502.578.578 0 0 0-.445-.211h-1.267c-.171 0-.32.07-.445.211a.73.73 0 0 0-.188.502v1.425c0 .193.062.36.188.501a.577.577 0 0 0 .445.212H31.1c.171 0 .32-.07.445-.212zm0-4.276a.73.73 0 0 0 .188-.502V16.14a.73.73 0 0 0-.188-.502.578.578 0 0 0-.445-.211h-1.267c-.171 0-.32.07-.445.211a.73.73 0 0 0-.188.502v1.425c0 .194.062.36.188.502a.577.577 0 0 0 .445.211H31.1c.171 0 .32-.07.445-.211z" fill="#F4F4F4"/><circle cx="23" cy="23" r="22" stroke="#E2E2E2" stroke-width="2"/></svg>