<svg width="46" height="46" fill="none" xmlns="http://www.w3.org/2000/svg"><path fill-rule="evenodd" clip-rule="evenodd" d="M30.715 31.897a.62.62 0 0 1 0 1.238h-14.86a.62.62 0 1 1 0-1.238h.81l5.353-14.212a1.848 1.848 0 0 1-.59-1.35c0-.807.518-1.488 1.238-1.744v-1.972a.62.62 0 0 1 1.238 0v1.972c.72.256 1.238.937 1.238 1.743 0 .534-.229 1.012-.59 1.351l5.352 14.212h.811zM24.202 26.6l3.724 3.57-1.982-5.229-1.742 1.66zm-2.225-2.134l1.33 1.276 1.34-1.276h-2.67zm1.231-6.281l-.052-.006-1.882 5.05h4.021l-1.881-5.05c-.018.001-.036.004-.053.006a.55.55 0 0 1-.076.007.548.548 0 0 1-.077-.007zm-.798 8.412L20.64 24.9l-2.004 5.29 3.774-3.593zm.894.858l-4.663 4.442h9.295l-4.632-4.442z" fill="#F4F4F4"/><path d="M16.031 20.27c-.264.218-.657.182-.85-.1a6.818 6.818 0 0 1 0-7.672c.193-.282.586-.318.85-.1.264.217.298.606.11.892a5.577 5.577 0 0 0 0 6.087c.188.287.154.676-.11.893zm15.363-.104c-.193.283-.586.319-.85.101s-.297-.607-.11-.893a5.577 5.577 0 0 0 0-6.087c-.188-.286-.154-.675.11-.893.264-.218.657-.182.85.1a6.818 6.818 0 0 1 0 7.672z" fill="#F4F4F4"/><path d="M17.102 14.08c.181-.29.576-.325.84-.107.263.217.293.605.128.904-.573 1.035-.35 2.04-.11 2.636.128.317.052.705-.232.897-.283.192-.671.117-.817-.192-.478-1.018-.764-2.612.19-4.138zm11.525 4.617c.264.217.658.182.836-.11a4.34 4.34 0 0 0 0-4.504c-.178-.292-.573-.328-.836-.11-.264.217-.295.606-.134.908a3.1 3.1 0 0 1 0 2.907c-.16.302-.13.691.134.909z" fill="#F4F4F4"/><circle cx="23" cy="23" r="22" stroke="#E2E2E2" stroke-width="2"/></svg>