<svg width="46" height="46" fill="none" xmlns="http://www.w3.org/2000/svg"><path fill-rule="evenodd" clip-rule="evenodd" d="M18.54 14.997a1.17 1.17 0 0 1-1.173 1.165 1.17 1.17 0 0 1-1.173-1.165 1.17 1.17 0 0 1 1.173-1.166 1.17 1.17 0 0 1 1.174 1.166zm-1 0a.17.17 0 0 1-.173.165.17.17 0 0 1-.173-.165.17.17 0 0 1 .173-.166.17.17 0 0 1 .174.166z" fill="#F4F4F4"/><path fill-rule="evenodd" clip-rule="evenodd" d="M16.528 11h1.468l.526 1.044.126.042 1.095-.363.918.913-.352 1.05.116.232.963.191v1.775l-.963.191-.097.193.53 1.053-.945.938-1.253-.355-.097.032-.355 1.057h-1.68l-.354-1.057-.048-.016-1.097.545-1.151-1.144.512-1.017-.071-.105-.971-.386v-1.444l1.052-.523.02-.06-.563-.933 1.136-1.13 1.095.363.085-.029.355-1.057zm.72 1l-.286.85-.874.29-.826-.274-.143.142.396.657-.3.893-.867.43v.146l.628.25.57.848-.449.89.13.128.823-.409.912.302.286.85h.24l.286-.85.863-.285.986.28.016-.015-.43-.855.543-1.079.637-.126v-.133l-.637-.126-.524-1.04.287-.857-.041-.041-.826.273-.833-.276L17.38 12h-.132zm13.967 6.493c0 1.03-.841 1.865-1.878 1.865a1.871 1.871 0 0 1-1.878-1.865c0-1.03.841-1.864 1.878-1.864s1.878.834 1.878 1.864zm-1 0a.871.871 0 0 1-.878.865.871.871 0 0 1-.878-.865c0-.47.387-.864.878-.864s.878.393.878.864z" fill="#F4F4F4"/><path fill-rule="evenodd" clip-rule="evenodd" d="M28.273 12.865l-.504 1.502-.31.103-1.542-.51-1.436 1.425.788 1.304-.095.283-1.5.745v1.815l1.345.534.22.328-.736 1.462 1.45 1.44 1.545-.767.271.09.504 1.503h2.128l.504-1.503.32-.106 1.777.504 1.17-1.161-.755-1.498.247-.49L35 19.604v-2.22l-1.336-.265-.266-.528.502-1.496-1.143-1.135-1.542.51-.35-.115-.75-1.49h-1.842zm.72 1h.505l.659 1.308 1.058.35 1.273-.421.266.263-.437 1.302.673 1.337 1.01.2v.578l-1.01.2-.692 1.376.654 1.3-.24.237-1.509-.428-1.087.36-.434 1.295h-.69l-.434-1.295-1.137-.376-1.271.631-.428-.424.673-1.336-.719-1.07-1.002-.399v-.516l1.316-.654.374-1.115-.62-1.027.442-.44 1.273.422 1.1-.363.434-1.295zm-9.044 13.487a1.87 1.87 0 0 1-1.878 1.864 1.871 1.871 0 0 1-1.877-1.864c0-1.03.84-1.865 1.877-1.865s1.878.835 1.878 1.865zm-1 0a.871.871 0 0 1-.878.864.871.871 0 0 1-.877-.864c0-.472.386-.865.877-.865s.878.393.878.865z" fill="#F4F4F4"/><path fill-rule="evenodd" clip-rule="evenodd" d="M16.816 20.324h2.16l.943 1.87.542.18 1.927-.637 1.334 1.325-.63 1.877.394.783 1.657.329v2.6l-1.657.33-.374.744.946 1.88-1.361 1.35-2.225-.63-.513.17-.632 1.883h-2.511l-.633-1.884-.463-.153-1.929.958-1.706-1.695.928-1.843-.348-.519L11 28.581v-2.133l1.884-.936.16-.474-.98-1.621 1.691-1.68 1.927.637.501-.166.633-1.884zm.719 1L16.972 23l-1.29.428-1.658-.549-.698.693.813 1.346-.439 1.306-1.7.844v.834l1.322.525.847 1.262-.864 1.717.683.679 1.656-.823 1.328.44.563 1.676h1.073l.563-1.676 1.279-.423 1.957.555.431-.428-.846-1.681.82-1.63 1.33-.264v-.96l-1.33-.263-.8-1.591.564-1.683-.457-.455-1.658.549-1.25-.414-.85-1.69h-.826z" fill="#F4F4F4"/><circle cx="23" cy="23" r="22" stroke="#E2E2E2" stroke-width="2"/></svg>