<svg width="46" height="46" fill="none" xmlns="http://www.w3.org/2000/svg"><path fill-rule="evenodd" clip-rule="evenodd" d="M19.503 29.498l-.32-.2.32.2-.14.221c.081.255.125.536.101.797-.08.89-.397 1.507-1.421 1.655-.698.1-1.365.032-1.896-.078-.688-.142-1.147-.352-1.147-.352s.426-.256.8-.769c.026-.035.05-.07.075-.107.122-.181.224-.401.328-.622.17-.368.344-.739.608-.944.49-.382.95-.507 1.32-.518l.003-.01.049-.13.186-.493a187.221 187.221 0 0 1 2.871-7.098c.84-1.94 1.744-3.894 2.561-5.368.408-.735.804-1.369 1.168-1.825a3.49 3.49 0 0 1 .557-.576c.18-.14.422-.28.704-.281.153 0 .33.015.504.101.176.086.296.216.388.338.171.224.208.5.206.728-.002.24-.047.51-.117.792-.141.566-.403 1.265-.739 2.036-.673 1.545-1.674 3.452-2.703 5.298a185.749 185.749 0 0 1-4.166 7.046l-.075.118-.025.04zm6.824-15.338a.485.485 0 0 0-.011-.129.464.464 0 0 0-.026-.03.442.442 0 0 0-.039-.002.49.49 0 0 0-.109.07 2.47 2.47 0 0 0-.39.41 7.371 7.371 0 0 0-.36.496c-.158.77-.437 2.01-.752 2.876-.716 1.968-2.561 4.601-2.561 4.601l2.812-6.665c-.07.121-.141.247-.214.378-.793 1.431-1.682 3.35-2.518 5.281a169.766 169.766 0 0 0-2.178 5.307l-.06.155.085-.142a169.63 169.63 0 0 0 2.888-4.959c1.025-1.838 2.007-3.71 2.66-5.21.328-.753.565-1.393.685-1.879.06-.243.087-.428.088-.558zm-9.192 16.45c-.076.164-.176.38-.29.582.333.036.693.041 1.055-.011.32-.046.39-.138.412-.167.049-.064.122-.218.155-.588a1.204 1.204 0 0 0-.156-.639c-.156-.026-.474-.02-.883.297-.003.004-.025.025-.061.08a2.64 2.64 0 0 0-.16.294l-.072.152zm8.482-2.315c.44-.704 6.577-10.555 5.743-11.647-.109-.143-.192-.184-.372-.183-1.344.006-5.274 10.37-5.726 11.574-.293-.082-.81-.099-1.38.346-.2.155-.33.435-.46.712-.054.115-.107.23-.166.336a2.356 2.356 0 0 1-.741.795 4.615 4.615 0 0 0 1.716.36l.203.044.124-.053c.084-.006.168-.015.253-.028.773-.111 1.011-.577 1.072-1.248.032-.356-.1-.763-.266-1.008zm-1.289 1.226l-.032.068c.123 0 .248-.008.372-.026a.563.563 0 0 0 .155-.04.934.934 0 0 0 .063-.31.445.445 0 0 0-.009-.114.816.816 0 0 0-.026-.101.777.777 0 0 0-.334.16 1.753 1.753 0 0 0-.116.21l-.072.151-.001.002z" fill="#F4F4F4"/><circle cx="23" cy="23" r="22" stroke="#E2E2E2" stroke-width="2"/></svg>