<svg width="46" height="46" fill="none" xmlns="http://www.w3.org/2000/svg"><path fill-rule="evenodd" clip-rule="evenodd" d="M21.704 13h-.36l-.114.342-.784 2.354-.9.3-2.433-.811-.293-.098-.219.219-1.727 1.727-.276.276.2.335 1.178 1.962-.294.88-2.406 1.203-.276.138v2.807l.314.126 2.015.806.617.925-1.166 2.33-.161.323.255.255 1.727 1.727.255.255.322-.161 2.406-1.203.862.287.784 2.354.114.342h3.311l.115-.342.784-2.354.912-.303 2.874.82.283.081.208-.207 1.295-1.296.255-.255-.161-.322-1.184-2.367.643-1.285 1.92-.384.401-.08v-3.412l-.402-.08-1.92-.385-.66-1.323.797-2.394.098-.293-.218-.219-1.296-1.295-.219-.219-.293.098-2.433.81-.94-.313-1.203-2.406-.138-.276h-2.469zm-.389 3.249l.75-2.249h1.49l1.157 2.314.093.186.196.065 1.295.432.159.053.158-.053 2.297-.766.859.859-.766 2.297-.066.197.093.185.864 1.727.11.22.239.047 1.757.351v1.772l-1.757.351-.24.048-.11.219-.863 1.727-.112.223.112.224 1.134 2.269-.832.832-2.74-.782-.149-.043-.147.049-1.295.432-.237.079-.08.237L23.936 32h-1.87l-.75-2.249-.079-.237-.237-.08-1.295-.431-.197-.066-.185.093-2.269 1.134-1.217-1.217 1.134-2.269.13-.26-.161-.24-.864-1.296-.086-.13-.144-.057L14 23.957v-1.512l2.314-1.157.186-.093.065-.196.432-1.295.073-.219-.119-.197-1.094-1.824 1.233-1.233 2.297.766.159.053.158-.053 1.295-.432.237-.079.08-.237zm-2.07 7.033l3.162 3.474 4.349-7.136-1.582-.376-2.979 5.828-1.962-2.448-.989.658z" fill="#F4F4F4"/><circle cx="23" cy="23" r="22" stroke="#E2E2E2" stroke-width="2"/></svg>