<svg width="46" height="46" fill="none" xmlns="http://www.w3.org/2000/svg"><path d="M26.874 14.65c1.047-.955 3.64-.576 3.64-.576l-2.115 2.03 2.25 2.145 2.114-2.03s.334 2.378-.666 3.411c-.82.848-3.409.5-3.409.5l-2.479-2.362s-.217-2.315.665-3.118zM13.67 27.323c-.993 1.005-.588 3.484-.588 3.484l2.114-2.03 2.25 2.145-2.115 2.03s2.487.311 3.564-.648c.883-.788.511-3.264.511-3.264l-2.478-2.363s-2.42-.2-3.257.646z" fill="#000"/><path d="M19.492 29.122l9.282-8.91-2.498-2.381-9.282 8.91 2.498 2.381z" fill="#000"/><path d="M30.513 14.074l.346.361.738-.708-1.011-.147-.073.494zm-3.64.576l.338.37-.337-.37zm-.664 3.118l-.497.046.017.187.136.129.345-.362zm2.479 2.363l-.345.362.117.112.161.021.067-.495zm3.41-.5l.359.347-.36-.348zm.665-3.412l.495-.07-.136-.968-.705.678.346.36zm-2.114 2.03l-.346.362.347.33.345-.331-.346-.361zm-2.25-2.145l-.346-.36-.377.361.378.36.345-.361zM13.082 30.807l-.494.08.154.94.686-.66-.346-.36zm.589-3.484l-.356-.352.356.352zm3.257-.646l.345-.362-.128-.122-.176-.014-.041.498zm2.478 2.363l.495-.074-.026-.17-.124-.118-.345.362zm-.511 3.264l.332.373-.332-.373zm-3.564.648l-.346-.361-.757.726 1.041.13.062-.495zm2.115-2.03l.346.36.377-.361-.378-.36-.345.361zm-2.25-2.145l.345-.362-.346-.33-.345.331.346.361zm13.578-8.564l.346.36.377-.361-.378-.361-.345.362zm-9.282 8.91l-.345.361.347.33.345-.33-.347-.362zm6.784-11.292l.345-.362-.347-.33-.345.33.347.362zm-9.282 8.91l-.347-.361-.377.361.379.361.345-.362zm13.52-12.667c.072-.494.072-.494.071-.495h-.003l-.007-.001-.026-.003a8.95 8.95 0 0 0-.418-.043 9.716 9.716 0 0 0-1.06-.028 6.224 6.224 0 0 0-1.31.168c-.432.11-.878.293-1.224.608l.674.74c.177-.163.448-.29.796-.378a5.235 5.235 0 0 1 1.095-.138 8.744 8.744 0 0 1 1.316.062l.019.002.004.001.072-.495zm-3.977.206c-.312.285-.5.674-.616 1.046a5.342 5.342 0 0 0-.208 1.143 8.597 8.597 0 0 0-.004 1.313l.002.023v.009l.498-.046.498-.047v-.003l-.001-.016a5.196 5.196 0 0 1-.017-.323 7.627 7.627 0 0 1 .02-.828c.027-.318.078-.643.166-.925.09-.288.207-.49.336-.607l-.674-.739zm-.672 3.85l2.478 2.363.69-.724-2.479-2.363-.69.724zm2.823 2l-.066.496h.003l.007.002.025.003a6.865 6.865 0 0 0 .41.04c.267.02.634.037 1.03.027a6.05 6.05 0 0 0 1.24-.146c.395-.096.818-.263 1.12-.574l-.719-.696c-.109.113-.316.22-.637.298-.31.075-.673.11-1.029.119a9.39 9.39 0 0 1-1.313-.063h-.004l-.067.495zm3.769-.152c.634-.656.805-1.672.847-2.412a8.205 8.205 0 0 0-.041-1.382l-.003-.024a.28.28 0 0 1-.002-.01l-.495.07-.495.069v.003l.002.016.008.069a7.199 7.199 0 0 1 .028 1.132c-.04.707-.203 1.396-.568 1.773l.719.696zm-.04-4.12l-2.115 2.03.693.721 2.114-2.03-.692-.72zm-1.423 2.029l-2.25-2.145-.69.724 2.25 2.145.69-.724zm-2.249-1.422l2.114-2.03-.692-.721-2.114 2.03.692.72zM13.082 30.807l.493-.08v-.004a7.563 7.563 0 0 1-.071-1.265c.01-.35.05-.712.138-1.035.089-.327.218-.58.384-.748l-.71-.704c-.331.335-.524.768-.64 1.189a5.55 5.55 0 0 0-.172 1.266 8.581 8.581 0 0 0 .079 1.426l.003.025.002.007v.003l.494-.08zm.944-3.132c.124-.125.339-.24.646-.33.3-.087.645-.137.98-.164a8.786 8.786 0 0 1 1.214-.007l.017.001h.004l.04-.498.042-.498h-.01a1.436 1.436 0 0 0-.109-.008 9.755 9.755 0 0 0-1.276.014 5.946 5.946 0 0 0-1.18.2c-.382.111-.784.288-1.079.586l.711.704zm2.557-.636l2.478 2.363.69-.724-2.478-2.363-.69.724zm2.823 2.001l-.494.074v.004l.003.018a6.451 6.451 0 0 1 .038.346c.02.232.037.547.029.882-.008.338-.042.68-.118.971-.079.3-.187.492-.302.595l.665.747c.327-.291.503-.703.604-1.09.103-.394.142-.819.15-1.198A9.167 9.167 0 0 0 19.907 29l-.004-.024v-.007l-.001-.002v-.001l-.495.074zm-.844 2.89c-.4.357-1.135.517-1.88.558a8.292 8.292 0 0 1-1.267-.03l-.018-.002h-.003l-.063.496-.062.496h.004a.48.48 0 0 1 .007.001l.024.003a6.164 6.164 0 0 0 .404.033c.263.014.627.024 1.029.002.767-.043 1.814-.207 2.49-.81l-.665-.747zm-2.884 1.382l2.114-2.03-.693-.72-2.114 2.029.693.721zm2.113-2.752l-2.25-2.145-.69.724 2.25 2.145.69-.724zm-2.941-2.143l-2.115 2.03.693.72 2.114-2.029-.692-.722zm13.578-8.565l-9.282 8.91.692.721 9.282-8.91-.692-.72zm.691-.001l-2.498-2.382-.69.723 2.498 2.383.69-.724zm-3.19-2.381l-9.282 8.91.693.721 9.282-8.91-.693-.721zm-9.28 9.632l2.498 2.382.69-.723-2.498-2.383-.69.724z" fill="#F9F9F9"/><circle cx="23" cy="23" r="22" stroke="#E2E2E2" stroke-width="2"/></svg>